SplineFontDB: 3.2
FontName: NimbusSans-Italic
FullName: Nimbus Sans Italic
FamilyName: Nimbus Sans
Weight: Book
Copyright: (URW)++,Copyright 2014 by (URW)++ Design & Development
Version: 1.10
ItalicAngle: -12
UnderlinePosition: -360
UnderlineWidth: 102
Ascent: 1638
Descent: 410
InvalidEm: 0
sfntRevision: 0x00011999
LayerCount: 2
Layer: 0 1 "Hinten" 1
Layer: 1 1 "Vorne" 0
XUID: [1021 367 390255522 2862861]
StyleMap: 0x0001
FSType: 4
OS2Version: 4
OS2_WeightWidthSlopeOnly: 0
OS2_UseTypoMetrics: 1
CreationTime: 1590483796
ModificationTime: 1737391021
PfmFamily: 81
TTFWeight: 400
TTFWidth: 5
LineGap: 410
VLineGap: 0
Panose: 0 0 0 0 0 0 0 0 0 0
OS2TypoAscent: 1843
OS2TypoAOffset: 0
OS2TypoDescent: -512
OS2TypoDOffset: 0
OS2TypoLinegap: 410
OS2WinAscent: 1952
OS2WinAOffset: 0
OS2WinDescent: 451
OS2WinDOffset: 0
HheadAscent: 1843
HheadAOffset: 0
HheadDescent: -512
HheadDOffset: 0
OS2SubXSize: 1331
OS2SubYSize: 1331
OS2SubXOff: 0
OS2SubYOff: 307
OS2SupXSize: 1331
OS2SupYSize: 1331
OS2SupXOff: 0
OS2SupYOff: 983
OS2StrikeYSize: 147
OS2StrikeYPos: 639
OS2CapHeight: 1493
OS2XHeight: 1073
OS2FamilyClass: 2053
OS2Vendor: 'URW '
OS2CodePages: 0000009f.00000000
OS2UnicodeRanges: a00002af.100178ff.00000000.00000000
Lookup: 6 0 0 "'ordn' Ordinals lookup 0" { "'ordn' Ordinals lookup 0 contextual 0"  "'ordn' Ordinals lookup 0 contextual 1"  } ['ordn' ('DFLT' <'dflt' > 'grek' <'dflt' > 'latn' <'dflt' > ) ]
Lookup: 1 0 0 "Single Substitution lookup 1" { "Single Substitution lookup 1 subtable"  } []
Lookup: 258 8 0 "'kern' Horizontal Kerning lookup 0" { "'kern' Horizontal Kerning lookup 0 subtable"  } ['kern' ('DFLT' <'dflt' > 'grek' <'dflt' > 'latn' <'dflt' > ) ]
DEI: 91125
ChainSub2: coverage "'ordn' Ordinals lookup 0 contextual 1" 0 0 0 1
 1 1 0
  Coverage: 3 O o
  BCoverage: 49 zero one two three four five six seven eight nine
 1
  SeqLookup: 0 "Single Substitution lookup 1"
EndFPST
ChainSub2: coverage "'ordn' Ordinals lookup 0 contextual 0" 0 0 0 1
 1 1 0
  Coverage: 3 A a

StartChar: .notdef
Encoding: 65536 -1 0
Width: 569
Flags: W
LayerCount: 2
Fore
SplineSet
57 0 m 1,0,-1
 57 1493 l 1,1,-1
 512 1493 l 1,2,-1
 512 0 l 1,3,-1
 57 0 l 1,0,-1
455 57 m 1,4,-1
 455 1436 l 1,5,-1
 114 1436 l 1,6,-1
 114 57 l 1,7,-1
 455 57 l 1,4,-1
EndSplineSet
EndChar

StartChar: exclam
Encoding: 33 33 2
Width: 569
GlyphClass: 2
Flags: W
LayerCount: 2
Fore
SplineSet
743 1493 m 1,0,-1
 591 777 l 1,1,-1
 454 344 l 1,2,-1
 373 344 l 1,3,-1
 419 777 l 1,4,-1
 571 1493 l 1,5,-1
 743 1493 l 1,0,-1
471 211 m 1,6,-1
 426 0 l 1,7,-1
 254 0 l 1,8,-1
 299 211 l 1,9,-1
 471 211 l 1,6,-1
EndSplineSet
EndChar

StartChar: quotedbl
Encoding: 34 34 3
Width: 727
GlyphClass: 2
Flags: W
LayerCount: 2
Fore
SplineSet
413 1452 m 1,0,-1
 606 1452 l 1,1,-1
 558 1225 l 1,2,-1
 444 950 l 1,3,-1
 362 950 l 1,4,-1
 365 1225 l 1,5,-1
 413 1452 l 1,0,-1
739 1452 m 1,6,-1
 931 1452 l 1,7,-1
 883 1225 l 1,8,-1
 769 950 l 1,9,-1
 688 950 l 1,10,-1
 691 1225 l 1,11,-1
 739 1452 l 1,6,-1
EndSplineSet
EndChar

StartChar: numbersign
Encoding: 35 35 4
Width: 1139
GlyphClass: 2
Flags: W
LayerCount: 2
Fore
SplineSet
1295 1427 m 1,0,-1
 1138 1030 l 1,1,-1
 1330 1030 l 1,2,-1
 1302 899 l 1,3,-1
 1087 899 l 1,4,-1
 937 522 l 1,5,-1
 1155 522 l 1,6,-1
 1128 391 l 1,7,-1
 886 391 l 1,8,-1
 716 -41 l 1,9,-1
 559 -41 l 1,10,-1
 729 391 l 1,11,-1
 474 391 l 1,12,-1
 304 -41 l 1,13,-1
 148 -41 l 1,14,-1
 318 391 l 1,15,-1
 111 391 l 1,16,-1
 139 522 l 1,17,-1
 370 522 l 1,18,-1
 519 899 l 1,19,-1
 294 899 l 1,20,-1
 322 1030 l 1,21,-1
 570 1030 l 1,22,-1
 728 1427 l 1,23,-1
 884 1427 l 1,24,-1
 726 1030 l 1,25,-1
 982 1030 l 1,26,-1
 1139 1427 l 1,27,-1
 1295 1427 l 1,0,-1
930 899 m 1,28,-1
 675 899 l 1,29,-1
 526 522 l 1,30,-1
 781 522 l 1,31,-1
 930 899 l 1,28,-1
EndSplineSet
EndChar

StartChar: dollar
Encoding: 36 36 5
Width: 1139
GlyphClass: 2
Flags: W
LayerCount: 2
Fore
SplineSet
834 1577 m 1,0,-1
 955 1577 l 1,1,-1
 931 1466 l 1,2,3
 1061 1459 1061 1459 1145 1397 c 0,4,5
 1255 1314 1255 1314 1255 1158 c 0,6,7
 1255 1116 1255 1116 1243 1063 c 1,8,-1
 1081 1063 l 1,9,10
 1082 1084 1082 1084 1083 1094 c 0,11,12
 1085 1121 1085 1121 1085 1137 c 0,13,14
 1085 1161 1085 1161 1079 1186 c 0,15,16
 1047 1316 1047 1316 901 1323 c 1,17,-1
 792 813 l 1,18,19
 985 753 985 753 1041 716 c 0,20,21
 1157 637 1157 637 1157 498 c 0,22,23
 1157 365 1157 365 1096 240 c 0,24,25
 1030 107 1030 107 922 42 c 0,26,27
 784 -41 784 -41 610 -47 c 1,28,-1
 565 -258 l 1,29,-1
 444 -258 l 1,30,-1
 489 -47 l 1,31,32
 386 -32 386 -32 315 0 c 0,33,34
 141 77 141 77 141 275 c 0,35,36
 141 336 141 336 157 426 c 1,37,-1
 319 426 l 1,38,39
 318 411 318 411 317 403 c 0,40,41
 311 339 311 339 311 307 c 0,42,43
 311 255 311 255 334 211 c 0,44,45
 355 169 355 169 396 143 c 128,-1,46
 437 117 437 117 519 94 c 1,47,-1
 637 651 l 1,48,49
 456 713 456 713 402 758 c 0,50,51
 311 836 311 836 311 960 c 0,52,53
 311 1005 311 1005 319 1051 c 0,54,55
 352 1235 352 1235 480 1343 c 128,-1,56
 608 1451 608 1451 810 1466 c 1,57,-1
 834 1577 l 1,0,-1
779 1321 m 1,58,59
 651 1310 651 1310 571 1233 c 0,60,61
 531 1194 531 1194 506 1137 c 128,-1,62
 481 1080 481 1080 481 1026 c 0,63,64
 481 1012 481 1012 483 998 c 0,65,66
 492 934 492 934 535 896.5 c 128,-1,67
 578 859 578 859 675 829 c 1,68,-1
 779 1321 l 1,58,59
640 94 m 1,69,70
 804 106 804 106 888 193 c 0,71,72
 977 284 977 284 977 433 c 0,73,74
 977 451 977 451 975 465 c 0,75,76
 967 522 967 522 916 560.5 c 128,-1,77
 865 599 865 599 754 633 c 1,78,-1
 640 94 l 1,69,70
EndSplineSet
EndChar

StartChar: percent
Encoding: 37 37 6
Width: 1821
GlyphClass: 2
Flags: W
LayerCount: 2
Fore
SplineSet
1554 1452 m 1,0,-1
 1689 1452 l 1,1,-1
 563 -41 l 1,2,-1
 428 -41 l 1,3,-1
 1554 1452 l 1,0,-1
707 1397 m 0,4,5
 776 1397 776 1397 833 1370 c 0,6,7
 905 1337 905 1337 947 1272.5 c 128,-1,8
 989 1208 989 1208 989 1131 c 0,9,10
 989 1046 989 1046 948.5 963 c 128,-1,11
 908 880 908 880 836 818 c 0,12,13
 709 709 709 709 553 709 c 0,14,15
 432 709 432 709 353 786 c 128,-1,16
 274 863 274 863 274 980 c 0,17,18
 274 1061 274 1061 313.5 1142 c 128,-1,19
 353 1223 353 1223 421 1282 c 0,20,21
 553 1397 553 1397 707 1397 c 0,4,5
674 1262 m 0,22,23
 629 1262 629 1262 591 1248 c 0,24,25
 517 1220 517 1220 467 1152.5 c 128,-1,26
 417 1085 417 1085 417 1013 c 0,27,28
 417 992 417 992 421 973 c 0,29,30
 433 915 433 915 478.5 879.5 c 128,-1,31
 524 844 524 844 584 844 c 0,32,33
 685 844 685 844 765.5 920.5 c 128,-1,34
 846 997 846 997 846 1093 c 0,35,36
 846 1169 846 1169 799 1215.5 c 128,-1,37
 752 1262 752 1262 674 1262 c 0,22,23
1551 655 m 0,38,39
 1620 655 1620 655 1677 628 c 0,40,41
 1748 595 1748 595 1790.5 530.5 c 128,-1,42
 1833 466 1833 466 1833 389 c 0,43,44
 1833 304 1833 304 1792.5 221 c 128,-1,45
 1752 138 1752 138 1679 76 c 0,46,47
 1553 -33 1553 -33 1398 -33 c 0,48,49
 1276 -33 1276 -33 1197 44 c 128,-1,50
 1118 121 1118 121 1118 238 c 0,51,52
 1118 319 1118 319 1157.5 400 c 128,-1,53
 1197 481 1197 481 1265 540 c 0,54,55
 1397 655 1397 655 1551 655 c 0,38,39
1518 520 m 0,56,57
 1473 520 1473 520 1435 506 c 0,58,59
 1361 478 1361 478 1311 410.5 c 128,-1,60
 1261 343 1261 343 1261 271 c 0,61,62
 1261 250 1261 250 1265 231 c 0,63,64
 1277 173 1277 173 1322.5 137.5 c 128,-1,65
 1368 102 1368 102 1429 102 c 0,66,67
 1529 102 1529 102 1609.5 178.5 c 128,-1,68
 1690 255 1690 255 1690 351 c 0,69,70
 1690 427 1690 427 1643 473.5 c 128,-1,71
 1596 520 1596 520 1518 520 c 0,56,57
EndSplineSet
EndChar

StartChar: ampersand
Encoding: 38 38 7
Width: 1366
GlyphClass: 2
Flags: W
LayerCount: 2
Fore
SplineSet
1157 684 m 1,0,-1
 1319 684 l 1,1,2
 1276 485 1276 485 1114 309 c 1,3,-1
 1298 0 l 1,4,-1
 1081 0 l 1,5,-1
 987 160 l 1,6,7
 847 43 847 43 744.5 -2 c 128,-1,8
 642 -47 642 -47 519 -47 c 0,9,10
 428 -47 428 -47 348 -16 c 0,11,12
 270 14 270 14 225 76 c 0,13,14
 170 153 170 153 170 262 c 0,15,16
 170 388 170 388 233 500 c 0,17,18
 280 581 280 581 358.5 647.5 c 128,-1,19
 437 714 437 714 590 799 c 1,20,21
 576 834 576 834 535 932 c 0,22,23
 506 999 506 999 506 1070 c 0,24,25
 506 1115 506 1115 522 1163 c 0,26,27
 560 1281 560 1281 666 1362 c 0,28,29
 783 1452 783 1452 931 1452 c 0,30,31
 995 1452 995 1452 1053 1432 c 0,32,33
 1125 1406 1125 1406 1164.5 1346 c 128,-1,34
 1204 1286 1204 1286 1204 1203 c 0,35,36
 1204 1165 1204 1165 1195 1125 c 0,37,38
 1170 1015 1170 1015 1085 932.5 c 128,-1,39
 1000 850 1000 850 834 774 c 1,40,-1
 1034 440 l 1,41,42
 1124 546 1124 546 1157 684 c 1,0,-1
772 889 m 1,43,44
 911 957 911 957 972.5 1024.5 c 128,-1,45
 1034 1092 1034 1092 1034 1175 c 0,46,47
 1034 1238 1034 1238 996.5 1273.5 c 128,-1,48
 959 1309 959 1309 894 1309 c 0,49,50
 791 1309 791 1309 731 1237 c 0,51,52
 676 1171 676 1171 676 1092 c 0,53,54
 676 1049 676 1049 693 1013.5 c 128,-1,55
 710 978 710 978 772 889 c 1,43,44
674 688 m 1,56,57
 500 595 500 595 425 510.5 c 128,-1,58
 350 426 350 426 350 325 c 0,59,60
 350 299 350 299 354 276 c 0,61,62
 368 198 368 198 425.5 154.5 c 128,-1,63
 483 111 483 111 573 111 c 0,64,65
 650 111 650 111 728 149.5 c 128,-1,66
 806 188 806 188 918 281 c 1,67,-1
 674 688 l 1,56,57
EndSplineSet
EndChar

StartChar: quotesingle
Encoding: 39 39 8
Width: 391
GlyphClass: 2
Flags: W
LayerCount: 2
Fore
SplineSet
405 1452 m 1,0,-1
 598 1452 l 1,1,-1
 550 1225 l 1,2,-1
 436 950 l 1,3,-1
 354 950 l 1,4,-1
 357 1225 l 1,5,-1
 405 1452 l 1,0,-1
EndSplineSet
EndChar

StartChar: parenleft
Encoding: 40 40 9
Width: 682
GlyphClass: 2
Flags: W
LayerCount: 2
Fore
SplineSet
800 1493 m 1,0,-1
 913 1493 l 1,1,2
 732 1271 732 1271 616 1044 c 0,3,4
 501 819 501 819 446 603.5 c 128,-1,5
 391 388 391 388 391 163 c 0,6,7
 391 -144 391 -144 503 -434 c 1,8,-1
 391 -434 l 1,9,10
 315 -301 315 -301 273 -123 c 128,-1,11
 231 55 231 55 231 239 c 0,12,13
 231 386 231 386 262 531 c 0,14,15
 313 773 313 773 456 1028 c 128,-1,16
 599 1283 599 1283 800 1493 c 1,0,-1
EndSplineSet
EndChar

StartChar: parenright
Encoding: 41 41 10
Width: 682
GlyphClass: 2
Flags: W
LayerCount: 2
Fore
SplineSet
99 -434 m 1,0,-1
 -14 -434 l 1,1,2
 167 -212 167 -212 283 14 c 0,3,4
 508 456 508 456 508 883 c 0,5,6
 508 1082 508 1082 465 1270 c 0,7,8
 441 1377 441 1377 396 1493 c 1,9,-1
 508 1493 l 1,10,11
 581 1365 581 1365 623.5 1187 c 128,-1,12
 666 1009 666 1009 666 834 c 0,13,14
 666 434 666 434 443 33 c 0,15,16
 298 -226 298 -226 99 -434 c 1,0,-1
EndSplineSet
EndChar

StartChar: asterisk
Encoding: 42 42 11
Width: 797
GlyphClass: 2
Flags: W
LayerCount: 2
Fore
SplineSet
653 1493 m 1,0,-1
 780 1493 l 1,1,-1
 721 1263 l 1,2,-1
 946 1341 l 1,3,-1
 964 1214 l 1,4,-1
 732 1158 l 1,5,-1
 842 972 l 1,6,-1
 722 897 l 1,7,-1
 632 1094 l 1,8,-1
 466 900 l 1,9,-1
 370 980 l 1,10,-1
 560 1161 l 1,11,-1
 346 1224 l 1,12,-1
 408 1345 l 1,13,-1
 613 1263 l 1,14,-1
 653 1493 l 1,0,-1
EndSplineSet
EndChar

StartChar: plus
Encoding: 43 43 12
Width: 1196
GlyphClass: 2
Flags: W
LayerCount: 2
Fore
SplineSet
1210 550 m 1,0,-1
 1180 403 l 1,1,-1
 756 403 l 1,2,-1
 665 -23 l 1,3,-1
 521 -23 l 1,4,-1
 612 403 l 1,5,-1
 188 403 l 1,6,-1
 218 550 l 1,7,-1
 642 550 l 1,8,-1
 732 969 l 1,9,-1
 876 969 l 1,10,-1
 786 550 l 1,11,-1
 1210 550 l 1,0,-1
EndSplineSet
EndChar

StartChar: comma
Encoding: 44 44 13
Width: 569
GlyphClass: 2
Flags: W
LayerCount: 2
Fore
SplineSet
224 211 m 1,0,-1
 439 211 l 1,1,-1
 386 -32 l 2,2,3
 329 -300 329 -300 113 -302 c 1,4,-1
 130 -224 l 1,5,6
 174 -222 174 -222 197.5 -211 c 128,-1,7
 221 -200 221 -200 243 -172 c 0,8,9
 262 -146 262 -146 272.5 -114 c 128,-1,10
 283 -82 283 -82 300 0 c 1,11,-1
 178 0 l 1,12,-1
 224 211 l 1,0,-1
EndSplineSet
EndChar

StartChar: hyphen
Encoding: 45 45 14
Width: 682
GlyphClass: 2
Flags: W
LayerCount: 2
Fore
SplineSet
719 639 m 1,0,-1
 688 492 l 1,1,-1
 199 492 l 1,2,-1
 230 639 l 1,3,-1
 719 639 l 1,0,-1
EndSplineSet
EndChar

StartChar: period
Encoding: 46 46 15
Width: 569
GlyphClass: 2
Flags: W
LayerCount: 2
Fore
SplineSet
436 211 m 1,0,-1
 391 0 l 1,1,-1
 178 0 l 1,2,-1
 223 211 l 1,3,-1
 436 211 l 1,0,-1
EndSplineSet
EndChar

StartChar: slash
Encoding: 47 47 16
Width: 569
GlyphClass: 2
Flags: W
LayerCount: 2
Fore
SplineSet
775 1493 m 1,0,-1
 888 1493 l 1,1,-1
 88 -41 l 1,2,-1
 -25 -41 l 1,3,-1
 775 1493 l 1,0,-1
EndSplineSet
EndChar

StartChar: zero
Encoding: 48 48 17
Width: 1139
GlyphClass: 2
Flags: W
LayerCount: 2
Fore
SplineSet
861 1481 m 0,0,1
 955 1481 955 1481 1032 1445 c 0,2,3
 1229 1355 1229 1355 1229 1078 c 0,4,5
 1229 802 1229 802 1131 500 c 0,6,7
 952 -47 952 -47 564 -47 c 0,8,9
 405 -47 405 -47 303 54 c 0,10,11
 202 153 202 153 202 354 c 0,12,13
 202 631 202 631 301 934 c 0,14,15
 479 1481 479 1481 861 1481 c 0,0,1
837 1323 m 0,16,17
 768 1323 768 1323 712 1291 c 0,18,19
 574 1213 574 1213 495 978 c 0,20,21
 382 642 382 642 382 375 c 0,22,23
 382 307 382 307 402 246 c 0,24,25
 447 111 447 111 587 111 c 0,26,27
 662 111 662 111 717 143 c 0,28,29
 855 222 855 222 936 458 c 0,30,31
 987 606 987 606 1018 770.5 c 128,-1,32
 1049 935 1049 935 1049 1057 c 0,33,34
 1049 1127 1049 1127 1029 1186 c 0,35,36
 982 1323 982 1323 837 1323 c 0,16,17
EndSplineSet
EndChar

StartChar: one
Encoding: 49 49 18
Width: 1139
GlyphClass: 2
Flags: W
LayerCount: 2
Fore
SplineSet
757 1063 m 1,0,-1
 432 1063 l 1,1,-1
 459 1192 l 1,2,3
 680 1221 680 1221 752.5 1268 c 128,-1,4
 825 1315 825 1315 906 1481 c 1,5,-1
 1026 1481 l 1,6,-1
 711 1 l 1,7,-1
 531 1 l 1,8,-1
 757 1063 l 1,0,-1
EndSplineSet
EndChar

StartChar: two
Encoding: 50 50 19
Width: 1139
GlyphClass: 2
Flags: W
LayerCount: 2
Fore
SplineSet
1074 179 m 1,0,-1
 1035 1 l 1,1,-1
 70 1 l 1,2,3
 117 158 117 158 146 225 c 128,-1,4
 175 292 175 292 220 349 c 0,5,6
 343 503 343 503 611 640 c 2,7,-1
 824 749 l 2,8,9
 954 815 954 815 1024.5 906.5 c 128,-1,10
 1095 998 1095 998 1095 1100 c 0,11,12
 1095 1188 1095 1188 1044 1247 c 0,13,14
 979 1323 979 1323 859 1323 c 0,15,16
 770 1323 770 1323 695 1285 c 128,-1,17
 620 1247 620 1247 572 1177 c 0,18,19
 520 1101 520 1101 486 968 c 1,20,-1
 305 968 l 1,21,22
 353 1177 353 1177 443 1290 c 0,23,24
 594 1481 594 1481 884 1481 c 0,25,26
 972 1481 972 1481 1047 1458 c 0,27,28
 1170 1420 1170 1420 1232 1302 c 0,29,30
 1275 1221 1275 1221 1275 1125 c 0,31,32
 1275 813 1275 813 867 601 c 2,33,-1
 637 482 l 2,34,35
 349 332 349 332 301 179 c 1,36,-1
 1074 179 l 1,0,-1
EndSplineSet
EndChar

StartChar: three
Encoding: 51 51 20
Width: 1139
GlyphClass: 2
Flags: W
LayerCount: 2
Fore
SplineSet
597 680 m 1,0,-1
 630 834 l 1,1,-1
 667 834 l 2,2,3
 896 834 896 834 982 933 c 0,4,5
 1052 1013 1052 1013 1052 1142 c 0,6,7
 1052 1227 1052 1227 994 1275 c 128,-1,8
 936 1323 936 1323 835 1323 c 0,9,10
 773 1323 773 1323 721 1306 c 0,11,12
 626 1275 626 1275 573 1206 c 128,-1,13
 520 1137 520 1137 490 1004 c 1,14,-1
 310 1004 l 1,15,16
 365 1211 365 1211 446 1304 c 0,17,18
 600 1481 600 1481 861 1481 c 0,19,20
 945 1481 945 1481 1020 1458 c 0,21,22
 1118 1428 1118 1428 1175 1352.5 c 128,-1,23
 1232 1277 1232 1277 1232 1177 c 0,24,25
 1232 1038 1232 1038 1171.5 939.5 c 128,-1,26
 1111 841 1111 841 980 766 c 1,27,28
 1041 736 1041 736 1070 707 c 0,29,30
 1139 639 1139 639 1139 521 c 0,31,32
 1139 420 1139 420 1098 315 c 128,-1,33
 1057 210 1057 210 987 133 c 0,34,35
 824 -47 824 -47 540 -47 c 0,36,37
 311 -47 311 -47 212 80 c 0,38,39
 147 163 147 163 147 300 c 0,40,41
 147 348 147 348 158 430 c 1,42,-1
 338 430 l 1,43,44
 327 360 327 360 327 322 c 0,45,46
 327 308 327 308 329 293 c 0,47,48
 340 206 340 206 403 158.5 c 128,-1,49
 466 111 466 111 568 111 c 0,50,51
 772 111 772 111 879 250 c 0,52,53
 959 353 959 353 959 495 c 0,54,55
 959 509 959 509 957 522 c 0,56,57
 946 600 946 600 876.5 642 c 128,-1,58
 807 684 807 684 689 684 c 0,59,60
 657 684 657 684 626 682 c 0,61,62
 617 682 617 682 597 680 c 1,0,-1
EndSplineSet
EndChar

StartChar: four
Encoding: 52 52 21
Width: 1139
GlyphClass: 2
Flags: W
LayerCount: 2
Fore
SplineSet
744 358 m 1,0,-1
 131 358 l 1,1,-1
 172 547 l 1,2,-1
 1029 1481 l 1,3,-1
 1162 1481 l 1,4,-1
 958 518 l 1,5,-1
 1175 518 l 1,6,-1
 1141 358 l 1,7,-1
 924 358 l 1,8,-1
 848 0 l 1,9,-1
 668 0 l 1,10,-1
 744 358 l 1,0,-1
778 518 m 1,11,-1
 916 1167 l 1,12,-1
 327 518 l 1,13,-1
 778 518 l 1,11,-1
EndSplineSet
EndChar

StartChar: five
Encoding: 53 53 22
Width: 1139
GlyphClass: 2
Flags: W
LayerCount: 2
Fore
SplineSet
1288 1452 m 1,0,-1
 1251 1274 l 1,1,-1
 637 1274 l 1,2,-1
 493 869 l 1,3,4
 639 957 639 957 780 957 c 0,5,6
 876 957 876 957 958 924 c 0,7,8
 1054 886 1054 886 1107.5 801.5 c 128,-1,9
 1161 717 1161 717 1161 604 c 0,10,11
 1161 374 1161 374 1020 189 c 0,12,13
 839 -47 839 -47 554 -47 c 0,14,15
 361 -47 361 -47 243 53 c 0,16,17
 143 139 143 139 143 311 c 2,18,-1
 143 356 l 1,19,-1
 323 356 l 1,20,21
 334 111 334 111 580 111 c 0,22,23
 653 111 653 111 713 132 c 0,24,25
 855 180 855 180 927 323 c 0,26,27
 981 429 981 429 981 551 c 0,28,29
 981 697 981 697 885 758 c 0,30,31
 819 799 819 799 722 799 c 0,32,33
 633 799 633 799 573 772 c 128,-1,34
 513 745 513 745 417 662 c 1,35,-1
 254 662 l 1,36,-1
 530 1452 l 1,37,-1
 1288 1452 l 1,0,-1
EndSplineSet
EndChar

StartChar: six
Encoding: 54 54 23
Width: 1139
GlyphClass: 2
Flags: W
LayerCount: 2
Fore
SplineSet
1254 1096 m 1,0,-1
 1074 1096 l 1,1,2
 1070 1161 1070 1161 1059 1199 c 0,3,4
 1042 1256 1042 1256 990.5 1289.5 c 128,-1,5
 939 1323 939 1323 869 1323 c 0,6,7
 676 1323 676 1323 545 1088 c 0,8,9
 465 945 465 945 430 745 c 1,10,11
 600 923 600 923 798 923 c 0,12,13
 983 923 983 923 1082 804 c 0,14,15
 1161 710 1161 710 1161 567 c 0,16,17
 1161 473 1161 473 1124 368.5 c 128,-1,18
 1087 264 1087 264 1023 180 c 0,19,20
 851 -47 851 -47 586 -47 c 0,21,22
 395 -47 395 -47 288 68 c 0,23,24
 192 173 192 173 192 347 c 0,25,26
 192 582 192 582 284 878 c 0,27,28
 380 1188 380 1188 550 1342 c 0,29,30
 705 1481 705 1481 897 1481 c 0,31,32
 964 1481 964 1481 1028 1462 c 0,33,34
 1256 1395 1256 1395 1256 1153 c 0,35,36
 1256 1132 1256 1132 1254 1096 c 1,0,-1
749 765 m 0,37,38
 676 765 676 765 609 735 c 0,39,40
 497 686 497 686 434.5 587 c 128,-1,41
 372 488 372 488 372 360 c 0,42,43
 372 341 372 341 374 323 c 0,44,45
 384 221 384 221 459 163 c 0,46,47
 525 111 525 111 613 111 c 0,48,49
 686 111 686 111 753 143 c 0,50,51
 871 199 871 199 932 325 c 0,52,53
 981 427 981 427 981 538 c 0,54,55
 981 604 981 604 952 657 c 0,56,57
 926 707 926 707 871 736 c 128,-1,58
 816 765 816 765 749 765 c 0,37,38
EndSplineSet
EndChar

StartChar: seven
Encoding: 55 55 24
Width: 1139
GlyphClass: 2
Flags: W
LayerCount: 2
Fore
SplineSet
1375 1452 m 1,0,-1
 1340 1286 l 1,1,2
 1071 1011 1071 1011 869 715 c 0,3,4
 600 322 600 322 482 0 c 1,5,-1
 281 0 l 1,6,7
 380 219 380 219 441.5 332.5 c 128,-1,8
 503 446 503 446 600 590 c 0,9,10
 808 895 808 895 1147 1274 c 1,11,-1
 363 1274 l 1,12,-1
 402 1452 l 1,13,-1
 1375 1452 l 1,0,-1
EndSplineSet
EndChar

StartChar: eight
Encoding: 56 56 25
Width: 1139
GlyphClass: 2
Flags: W
LayerCount: 2
Fore
SplineSet
977 779 m 1,0,1
 1149 688 1149 688 1149 500 c 0,2,3
 1149 311 1149 311 1009 152 c 0,4,5
 835 -47 835 -47 575 -47 c 0,6,7
 417 -47 417 -47 304 22 c 0,8,9
 153 114 153 114 153 301 c 0,10,11
 153 462 153 462 236.5 583.5 c 128,-1,12
 320 705 320 705 482 779 c 1,13,14
 409 829 409 829 379.5 878 c 128,-1,15
 350 927 350 927 350 999 c 0,16,17
 350 1187 350 1187 480 1323 c 0,18,19
 631 1481 631 1481 873 1481 c 0,20,21
 960 1481 960 1481 1036 1456 c 0,22,23
 1146 1420 1146 1420 1202 1322 c 0,24,25
 1242 1252 1242 1252 1242 1173 c 0,26,27
 1242 1087 1242 1087 1206.5 1005.5 c 128,-1,28
 1171 924 1171 924 1111 868 c 0,29,30
 1061 824 1061 824 977 779 c 1,0,1
842 1323 m 0,31,32
 783 1323 783 1323 733 1308 c 0,33,34
 642 1281 642 1281 586 1203 c 128,-1,35
 530 1125 530 1125 530 1023 c 0,36,37
 530 1003 530 1003 532 991 c 0,38,39
 541 927 541 927 599.5 889 c 128,-1,40
 658 851 658 851 747 851 c 0,41,42
 808 851 808 851 858 866 c 0,43,44
 959 896 959 896 1017 991 c 0,45,46
 1062 1064 1062 1064 1062 1142 c 0,47,48
 1062 1227 1062 1227 1003.5 1275 c 128,-1,49
 945 1323 945 1323 842 1323 c 0,31,32
708 699 m 256,50,51
 646 699 646 699 584 678 c 0,52,53
 451 633 451 633 386 522 c 0,54,55
 333 432 333 432 333 331 c 0,56,57
 333 308 333 308 337 288 c 0,58,59
 352 207 352 207 420.5 159 c 128,-1,60
 489 111 489 111 589 111 c 0,61,62
 660 111 660 111 718 130 c 0,63,64
 829 166 829 166 899 262 c 128,-1,65
 969 358 969 358 969 474 c 0,66,67
 969 567 969 567 918 621 c 0,68,69
 884 656 884 656 827 677.5 c 128,-1,70
 770 699 770 699 708 699 c 256,50,51
EndSplineSet
EndChar

StartChar: nine
Encoding: 57 57 26
Width: 1139
GlyphClass: 2
Flags: W
LayerCount: 2
Fore
SplineSet
808 1323 m 0,0,1
 734 1323 734 1323 668 1292 c 0,2,3
 553 1237 553 1237 491 1112 c 0,4,5
 443 1013 443 1013 443 913 c 0,6,7
 443 836 443 836 470 784 c 0,8,9
 494 736 494 736 550 706.5 c 128,-1,10
 606 677 606 677 673 677 c 0,11,12
 761 677 761 677 842.5 720 c 128,-1,13
 924 763 924 763 976 837 c 0,14,15
 1051 942 1051 942 1051 1080 c 0,16,17
 1051 1162 1051 1162 1008 1223 c 0,18,19
 937 1323 937 1323 808 1323 c 0,0,1
173 338 m 1,20,-1
 351 338 l 1,21,-1
 351 319 l 2,22,23
 351 272 351 272 365 234 c 0,24,25
 386 176 386 176 435.5 143.5 c 128,-1,26
 485 111 485 111 553 111 c 0,27,28
 746 111 746 111 874 344 c 0,29,30
 941 466 941 466 989 683 c 1,31,32
 909 614 909 614 875 591 c 0,33,34
 769 519 769 519 624 519 c 0,35,36
 545 519 545 519 473 546 c 0,37,38
 371 584 371 584 317 667.5 c 128,-1,39
 263 751 263 751 263 872 c 0,40,41
 263 1091 263 1091 388 1258 c 0,42,43
 474 1372 474 1372 599 1430 c 0,44,45
 707 1481 707 1481 832 1481 c 0,46,47
 1028 1481 1028 1481 1133 1365 c 0,48,49
 1179 1315 1179 1315 1205 1244 c 128,-1,50
 1231 1173 1231 1173 1231 1099 c 0,51,52
 1231 888 1231 888 1144 557 c 0,53,54
 1103 401 1103 401 1056 316 c 0,55,56
 955 129 955 129 795 30 c 0,57,58
 668 -47 668 -47 528 -47 c 0,59,60
 462 -47 462 -47 399 -28 c 0,61,62
 171 40 171 40 171 281 c 0,63,64
 171 300 171 300 173 338 c 1,20,-1
EndSplineSet
EndChar

StartChar: colon
Encoding: 58 58 27
Width: 569
GlyphClass: 2
Flags: W
LayerCount: 2
Fore
SplineSet
483 211 m 1,0,-1
 438 0 l 1,1,-1
 225 0 l 1,2,-1
 270 211 l 1,3,-1
 483 211 l 1,0,-1
667 1073 m 1,4,-1
 622 862 l 1,5,-1
 409 862 l 1,6,-1
 454 1073 l 1,7,-1
 667 1073 l 1,4,-1
EndSplineSet
EndChar

StartChar: semicolon
Encoding: 59 59 28
Width: 569
GlyphClass: 2
Flags: W
LayerCount: 2
Fore
SplineSet
666 1073 m 1,0,-1
 621 862 l 1,1,-1
 408 862 l 1,2,-1
 453 1073 l 1,3,-1
 666 1073 l 1,0,-1
271 211 m 1,4,-1
 486 211 l 1,5,-1
 433 -32 l 2,6,7
 376 -300 376 -300 160 -302 c 1,8,-1
 177 -224 l 1,9,10
 221 -222 221 -222 244.5 -211 c 128,-1,11
 268 -200 268 -200 290 -172 c 0,12,13
 309 -146 309 -146 319.5 -114 c 128,-1,14
 330 -82 330 -82 347 0 c 1,15,-1
 225 0 l 1,16,-1
 271 211 l 1,4,-1
EndSplineSet
EndChar

StartChar: less
Encoding: 60 60 29
Width: 1196
GlyphClass: 2
Flags: W
LayerCount: 2
Fore
SplineSet
178 406 m 1,0,-1
 208 547 l 1,1,-1
 1300 971 l 1,2,-1
 1266 808 l 1,3,-1
 401 474 l 1,4,-1
 1125 139 l 1,5,-1
 1090 -18 l 1,6,-1
 178 406 l 1,0,-1
EndSplineSet
EndChar

StartChar: equal
Encoding: 61 61 30
Width: 1196
GlyphClass: 2
Flags: W
LayerCount: 2
Fore
SplineSet
1248 727 m 1,0,-1
 1217 580 l 1,1,-1
 227 580 l 1,2,-1
 257 727 l 1,3,-1
 1248 727 l 1,0,-1
1173 374 m 1,4,-1
 1142 227 l 1,5,-1
 152 227 l 1,6,-1
 183 374 l 1,7,-1
 1173 374 l 1,4,-1
EndSplineSet
EndChar

StartChar: greater
Encoding: 62 62 31
Width: 1196
GlyphClass: 2
Flags: W
LayerCount: 2
Fore
SplineSet
1220 546 m 1,0,-1
 1190 406 l 1,1,-1
 98 -18 l 1,2,-1
 133 144 l 1,3,-1
 997 479 l 1,4,-1
 274 814 l 1,5,-1
 308 971 l 1,6,-1
 1220 546 l 1,0,-1
EndSplineSet
EndChar

StartChar: question
Encoding: 63 63 32
Width: 1139
GlyphClass: 2
Flags: W
LayerCount: 2
Fore
SplineSet
761 408 m 1,0,-1
 576 408 l 1,1,-1
 600 520 l 2,2,3
 620 612 620 612 665 666 c 128,-1,4
 710 720 710 720 878 855 c 0,5,6
 1009 959 1009 959 1051 1034 c 0,7,8
 1093 1108 1093 1108 1093 1184 c 0,9,10
 1093 1207 1093 1207 1087 1229 c 0,11,12
 1069 1290 1069 1290 1013 1325 c 128,-1,13
 957 1360 957 1360 875 1360 c 0,14,15
 739 1360 739 1360 662 1283.5 c 128,-1,16
 585 1207 585 1207 551 1038 c 1,17,-1
 377 1038 l 1,18,19
 474 1518 474 1518 920 1518 c 0,20,21
 1012 1518 1012 1518 1087 1493 c 0,22,23
 1162 1469 1162 1469 1216 1405 c 0,24,25
 1290 1319 1290 1319 1290 1209 c 0,26,27
 1290 1112 1290 1112 1243 1024 c 0,28,29
 1175 896 1175 896 993 758 c 0,30,31
 876 668 876 668 836 620.5 c 128,-1,32
 796 573 796 573 781 504 c 2,33,-1
 761 408 l 1,0,-1
719 211 m 1,34,-1
 674 0 l 1,35,-1
 490 0 l 1,36,-1
 535 211 l 1,37,-1
 719 211 l 1,34,-1
EndSplineSet
EndChar

StartChar: at
Encoding: 64 64 33
Width: 2079
GlyphClass: 2
Flags: W
LayerCount: 2
Fore
SplineSet
1259 932 m 0,0,1
 1211 932 1211 932 1169 918 c 0,2,3
 1022 866 1022 866 915 698 c 0,4,5
 823 554 823 554 823 430 c 0,6,7
 823 368 823 368 856 318 c 0,8,9
 898 254 898 254 979 254 c 0,10,11
 1120 254 1120 254 1245 431 c 0,12,13
 1312 525 1312 525 1354.5 628.5 c 128,-1,14
 1397 732 1397 732 1397 798 c 0,15,16
 1397 819 1397 819 1393 840 c 0,17,18
 1373 932 1373 932 1259 932 c 0,0,1
1579 1026 m 1,19,-1
 1747 1026 l 1,20,-1
 1442 453 l 2,21,22
 1393 360 1393 360 1393 333 c 0,23,24
 1393 327 1393 327 1395 319 c 0,25,26
 1411 260 1411 260 1477 260 c 0,27,28
 1546 260 1546 260 1624 303 c 0,29,30
 1795 398 1795 398 1889 591 c 0,31,32
 1952 721 1952 721 1952 849 c 0,33,34
 1952 911 1952 911 1936 972 c 0,35,36
 1883 1170 1883 1170 1702 1272 c 0,37,38
 1547 1360 1547 1360 1352 1360 c 0,39,40
 1206 1360 1206 1360 1056 1307 c 0,41,42
 820 1224 820 1224 634 1037 c 0,43,44
 453 856 453 856 383 640 c 0,45,46
 344 521 344 521 344 402 c 0,47,48
 344 342 344 342 354 291 c 0,49,50
 398 76 398 76 596 -42 c 0,51,52
 751 -133 751 -133 973 -133 c 0,53,54
 1144 -133 1144 -133 1391 -68 c 1,55,-1
 1417 -205 l 1,56,57
 1178 -291 1178 -291 916 -291 c 0,58,59
 748 -291 748 -291 590 -227 c 0,60,61
 427 -162 427 -162 314 -35 c 0,62,63
 164 132 164 132 164 374 c 0,64,65
 164 587 164 587 266 799 c 0,66,67
 445 1171 445 1171 792 1361 c 0,68,69
 1080 1518 1080 1518 1395 1518 c 0,70,71
 1642 1518 1642 1518 1833 1400 c 0,72,73
 1973 1313 1973 1313 2047.5 1182 c 128,-1,74
 2122 1051 2122 1051 2122 890 c 0,75,76
 2122 740 2122 740 2069 592 c 0,77,78
 2008 422 2008 422 1892 318 c 0,79,80
 1786 222 1786 222 1664 169.5 c 128,-1,81
 1542 117 1542 117 1426 117 c 0,82,83
 1324 117 1324 117 1276 150 c 0,84,85
 1255 164 1255 164 1239 193 c 128,-1,86
 1223 222 1223 222 1223 246 c 2,87,-1
 1223 274 l 1,88,89
 1202 258 1202 258 1192 250 c 0,90,91
 1112 184 1112 184 1057 160 c 0,92,93
 982 127 982 127 912 127 c 0,94,95
 786 127 786 127 710.5 205 c 128,-1,96
 635 283 635 283 635 412 c 0,97,98
 635 520 635 520 691 640 c 0,99,100
 741 747 741 747 826.5 840.5 c 128,-1,101
 912 934 912 934 1015 993 c 0,102,103
 1152 1073 1152 1073 1281 1073 c 0,104,105
 1322 1073 1322 1073 1358 1063 c 0,106,107
 1476 1029 1476 1029 1505 891 c 1,108,-1
 1579 1026 l 1,19,-1
EndSplineSet
EndChar

StartChar: A
Encoding: 65 65 34
Width: 1366
GlyphClass: 2
Flags: W
LayerCount: 2
Fore
SplineSet
1073 449 m 1,0,-1
 490 449 l 1,1,-1
 238 0 l 1,2,-1
 35 0 l 1,3,-1
 885 1493 l 1,4,-1
 1131 1493 l 1,5,-1
 1338 0 l 1,6,-1
 1129 0 l 1,7,-1
 1073 449 l 1,0,-1
1053 609 m 1,8,-1
 971 1290 l 1,9,-1
 580 609 l 1,10,-1
 1053 609 l 1,8,-1
EndSplineSet
Substitution2: "Single Substitution lookup 1 subtable" ordfeminine
EndChar

StartChar: B
Encoding: 66 66 35
Width: 1366
GlyphClass: 2
Flags: W
LayerCount: 2
Fore
SplineSet
162 0 m 1,0,-1
 479 1493 l 1,1,-1
 1086 1493 l 2,2,3
 1191 1493 1191 1493 1260.5 1468.5 c 128,-1,4
 1330 1444 1330 1444 1382 1389 c 0,5,6
 1456 1310 1456 1310 1456 1197 c 0,7,8
 1456 1148 1456 1148 1448 1106 c 0,9,10
 1427 1001 1427 1001 1357 918.5 c 128,-1,11
 1287 836 1287 836 1178 786 c 1,12,13
 1266 748 1266 748 1313 700 c 0,14,15
 1376 635 1376 635 1376 528 c 0,16,17
 1376 327 1376 327 1243 177 c 0,18,19
 1085 0 1085 0 838 0 c 2,20,-1
 162 0 l 1,0,-1
535 850 m 1,21,-1
 903 850 l 2,22,23
 1005 850 1005 850 1070.5 872.5 c 128,-1,24
 1136 895 1136 895 1182 945 c 0,25,26
 1259 1029 1259 1029 1259 1149 c 0,27,28
 1259 1240 1259 1240 1198 1282.5 c 128,-1,29
 1137 1325 1137 1325 1006 1325 c 2,30,-1
 636 1325 l 1,31,-1
 535 850 l 1,21,-1
390 168 m 1,32,-1
 854 168 l 2,33,34
 1019 168 1019 168 1109 285 c 0,35,36
 1179 377 1179 377 1179 496 c 0,37,38
 1179 587 1179 587 1124 634.5 c 128,-1,39
 1069 682 1069 682 963 682 c 2,40,-1
 500 682 l 1,41,-1
 390 168 l 1,32,-1
EndSplineSet
EndChar

StartChar: C
Encoding: 67 67 36
Width: 1479
GlyphClass: 2
Flags: W
LayerCount: 2
Fore
SplineSet
1577 1030 m 1,0,-1
 1380 1030 l 1,1,2
 1370 1172 1370 1172 1307 1254 c 0,3,4
 1232 1352 1232 1352 1055 1352 c 0,5,6
 776 1352 776 1352 593 1079 c 0,7,8
 514 962 514 962 470 817.5 c 128,-1,9
 426 673 426 673 426 532 c 0,10,11
 426 393 426 393 483 287 c 0,12,13
 525 210 525 210 608 164 c 0,14,15
 689 119 689 119 780 119 c 0,16,17
 901 119 901 119 1010 172 c 128,-1,18
 1119 225 1119 225 1184 317 c 0,19,20
 1234 385 1234 385 1304 545 c 1,21,-1
 1505 545 l 1,22,23
 1405 306 1405 306 1290 179 c 0,24,25
 1085 -47 1085 -47 752 -47 c 0,26,27
 630 -47 630 -47 534 -12 c 0,28,29
 374 46 374 46 290 215 c 0,30,31
 229 339 229 339 229 496 c 0,32,33
 229 608 229 608 254 723 c 0,34,35
 335 1103 335 1103 591 1334 c 0,36,37
 797 1518 797 1518 1089 1518 c 0,38,39
 1184 1518 1184 1518 1267 1493 c 0,40,41
 1404 1453 1404 1453 1490 1331 c 0,42,43
 1566 1223 1566 1223 1577 1030 c 1,0,-1
EndSplineSet
EndChar

StartChar: D
Encoding: 68 68 37
Width: 1479
GlyphClass: 2
Flags: W
LayerCount: 2
Fore
SplineSet
182 0 m 1,0,-1
 499 1493 l 1,1,-1
 1077 1493 l 2,2,3
 1279 1493 1279 1493 1397 1386 c 0,4,5
 1475 1316 1475 1316 1519 1197 c 0,6,7
 1554 1102 1554 1102 1554 999 c 0,8,9
 1554 792 1554 792 1473 564 c 0,10,11
 1365 259 1365 259 1133 108 c 0,12,13
 967 0 967 0 760 0 c 2,14,-1
 182 0 l 1,0,-1
410 168 m 1,15,-1
 762 168 l 2,16,17
 1048 168 1048 168 1209 419 c 0,18,19
 1272 516 1272 516 1314.5 679 c 128,-1,20
 1357 842 1357 842 1357 983 c 0,21,22
 1357 1090 1357 1090 1310 1176 c 0,23,24
 1267 1254 1267 1254 1183 1290 c 0,25,26
 1103 1325 1103 1325 1007 1325 c 2,27,-1
 656 1325 l 1,28,-1
 410 168 l 1,15,-1
EndSplineSet
EndChar

StartChar: E
Encoding: 69 69 38
Width: 1366
GlyphClass: 2
Flags: W
LayerCount: 2
Fore
SplineSet
521 680 m 1,0,-1
 412 168 l 1,1,-1
 1290 168 l 1,2,-1
 1255 0 l 1,3,-1
 184 0 l 1,4,-1
 501 1493 l 1,5,-1
 1538 1493 l 1,6,-1
 1503 1325 l 1,7,-1
 658 1325 l 1,8,-1
 557 848 l 1,9,-1
 1368 848 l 1,10,-1
 1331 680 l 1,11,-1
 521 680 l 1,0,-1
EndSplineSet
EndChar

StartChar: F
Encoding: 70 70 39
Width: 1251
GlyphClass: 2
Flags: W
LayerCount: 2
Fore
SplineSet
521 680 m 1,0,-1
 377 0 l 1,1,-1
 184 0 l 1,2,-1
 501 1493 l 1,3,-1
 1503 1493 l 1,4,-1
 1468 1325 l 1,5,-1
 658 1325 l 1,6,-1
 557 848 l 1,7,-1
 1267 848 l 1,8,-1
 1233 680 l 1,9,-1
 521 680 l 1,0,-1
EndSplineSet
EndChar

StartChar: G
Encoding: 71 71 40
Width: 1593
GlyphClass: 2
Flags: W
LayerCount: 2
Fore
SplineSet
1623 788 m 1,0,-1
 1454 -8 l 1,1,-1
 1333 -8 l 1,2,-1
 1325 176 l 1,3,4
 1222 90 1222 90 1159 53 c 0,5,6
 985 -47 985 -47 773 -47 c 0,7,8
 554 -47 554 -47 407 73 c 0,9,10
 312 150 312 150 264 288 c 0,11,12
 223 404 223 404 223 535 c 0,13,14
 223 766 223 766 332 986 c 0,15,16
 486 1297 486 1297 749 1431 c 0,17,18
 922 1518 922 1518 1136 1518 c 0,19,20
 1373 1518 1373 1518 1509 1405 c 0,21,22
 1657 1283 1657 1283 1657 1075 c 2,23,-1
 1657 1040 l 1,24,-1
 1470 1040 l 1,25,26
 1467 1169 1467 1169 1394 1244 c 0,27,28
 1290 1352 1290 1352 1099 1352 c 0,29,30
 792 1352 792 1352 601 1102 c 0,31,32
 501 971 501 971 453 794 c 0,33,34
 420 675 420 675 420 567 c 0,35,36
 420 383 420 383 496 270 c 0,37,38
 548 192 548 192 649 154 c 0,39,40
 740 119 740 119 843 119 c 0,41,42
 1050 119 1050 119 1212 252 c 0,43,44
 1364 375 1364 375 1407 567 c 2,45,-1
 1419 620 l 1,46,-1
 964 620 l 1,47,-1
 1001 788 l 1,48,-1
 1623 788 l 1,0,-1
EndSplineSet
EndChar

StartChar: H
Encoding: 72 72 41
Width: 1479
GlyphClass: 2
Flags: W
LayerCount: 2
Fore
SplineSet
1271 680 m 1,0,-1
 507 680 l 1,1,-1
 363 0 l 1,2,-1
 170 0 l 1,3,-1
 487 1493 l 1,4,-1
 680 1493 l 1,5,-1
 543 848 l 1,6,-1
 1307 848 l 1,7,-1
 1444 1493 l 1,8,-1
 1636 1493 l 1,9,-1
 1319 0 l 1,10,-1
 1127 0 l 1,11,-1
 1271 680 l 1,0,-1
EndSplineSet
EndChar

StartChar: I
Encoding: 73 73 42
Width: 569
GlyphClass: 2
Flags: W
LayerCount: 2
Fore
SplineSet
715 1493 m 1,0,-1
 398 0 l 1,1,-1
 205 0 l 1,2,-1
 522 1493 l 1,3,-1
 715 1493 l 1,0,-1
EndSplineSet
EndChar

StartChar: J
Encoding: 74 74 43
Width: 1024
GlyphClass: 2
Flags: W
LayerCount: 2
Fore
SplineSet
997 1493 m 1,0,-1
 1190 1493 l 1,1,-1
 952 372 l 2,2,3
 910 176 910 176 782 70 c 0,4,5
 641 -47 641 -47 435 -47 c 0,6,7
 353 -47 353 -47 290 -26 c 0,8,9
 219 -3 219 -3 165 61 c 0,10,11
 96 145 96 145 96 249 c 0,12,13
 96 294 96 294 108 348 c 2,14,-1
 136 479 l 1,15,-1
 329 479 l 1,16,-1
 300 344 l 2,17,18
 293 310 293 310 293 275 c 0,19,20
 293 214 293 214 330 174 c 0,21,22
 381 119 381 119 477 119 c 0,23,24
 600 119 600 119 677 209 c 0,25,26
 740 282 740 282 774 442 c 2,27,-1
 997 1493 l 1,0,-1
EndSplineSet
EndChar

StartChar: K
Encoding: 75 75 44
Width: 1366
GlyphClass: 2
Flags: W
LayerCount: 2
Fore
SplineSet
463 510 m 1,0,-1
 355 0 l 1,1,-1
 162 0 l 1,2,-1
 479 1493 l 1,3,-1
 672 1493 l 1,4,-1
 509 729 l 1,5,-1
 1419 1493 l 1,6,-1
 1665 1493 l 1,7,-1
 926 883 l 1,8,-1
 1348 0 l 1,9,-1
 1123 0 l 1,10,-1
 778 770 l 1,11,-1
 463 510 l 1,0,-1
EndSplineSet
EndChar

StartChar: L
Encoding: 76 76 45
Width: 1139
GlyphClass: 2
Flags: W
LayerCount: 2
Fore
SplineSet
674 1493 m 1,0,-1
 392 168 l 1,1,-1
 1129 168 l 1,2,-1
 1094 0 l 1,3,-1
 164 0 l 1,4,-1
 481 1493 l 1,5,-1
 674 1493 l 1,0,-1
EndSplineSet
EndChar

StartChar: M
Encoding: 77 77 46
Width: 1706
GlyphClass: 2
Flags: W
LayerCount: 2
Fore
SplineSet
957 0 m 1,0,-1
 758 0 l 1,1,-1
 600 1239 l 1,2,-1
 336 0 l 1,3,-1
 154 0 l 1,4,-1
 471 1493 l 1,5,-1
 736 1493 l 1,6,-1
 899 210 l 1,7,-1
 1608 1493 l 1,8,-1
 1876 1493 l 1,9,-1
 1559 0 l 1,10,-1
 1377 0 l 1,11,-1
 1640 1239 l 1,12,-1
 957 0 l 1,0,-1
EndSplineSet
EndChar

StartChar: N
Encoding: 78 78 47
Width: 1479
GlyphClass: 2
Flags: W
LayerCount: 2
Fore
SplineSet
1641 1493 m 1,0,-1
 1323 0 l 1,1,-1
 1107 0 l 1,2,-1
 596 1211 l 1,3,-1
 338 0 l 1,4,-1
 156 0 l 1,5,-1
 473 1493 l 1,6,-1
 685 1493 l 1,7,-1
 1198 269 l 1,8,-1
 1458 1493 l 1,9,-1
 1641 1493 l 1,0,-1
EndSplineSet
EndChar

StartChar: O
Encoding: 79 79 48
Width: 1593
GlyphClass: 2
Flags: W
LayerCount: 2
Fore
SplineSet
1099 1518 m 0,0,1
 1230 1518 1230 1518 1344 1481 c 0,2,3
 1537 1418 1537 1418 1622 1259 c 0,4,5
 1696 1122 1696 1122 1696 951 c 0,6,7
 1696 659 1696 659 1544 395 c 0,8,9
 1289 -47 1289 -47 801 -47 c 0,10,11
 621 -47 621 -47 479 27 c 0,12,13
 336 101 336 101 271 245 c 0,14,15
 213 374 213 374 213 539 c 0,16,17
 213 679 213 679 252 815 c 0,18,19
 350 1160 350 1160 619 1360 c 0,20,21
 830 1518 830 1518 1099 1518 c 0,0,1
1075 1352 m 0,22,23
 974 1352 974 1352 879 1317 c 0,24,25
 655 1235 655 1235 529 1008 c 0,26,27
 410 794 410 794 410 556 c 0,28,29
 410 508 410 508 416 463 c 0,30,31
 441 278 441 278 580 189 c 0,32,33
 691 119 691 119 828 119 c 0,34,35
 933 119 933 119 1030 154 c 0,36,37
 1253 233 1253 233 1380 463 c 0,38,39
 1499 677 1499 677 1499 915 c 0,40,41
 1499 1096 1499 1096 1415 1204 c 0,42,43
 1357 1280 1357 1280 1260 1317 c 0,44,45
 1169 1352 1169 1352 1075 1352 c 0,22,23
EndSplineSet
Substitution2: "Single Substitution lookup 1 subtable" ordmasculine
EndChar

StartChar: P
Encoding: 80 80 49
Width: 1366
GlyphClass: 2
Flags: W
LayerCount: 2
Fore
SplineSet
513 633 m 1,0,-1
 379 0 l 1,1,-1
 186 0 l 1,2,-1
 503 1493 l 1,3,-1
 1122 1493 l 2,4,5
 1501 1493 1501 1493 1501 1162 c 0,6,7
 1501 1016 1501 1016 1427 889 c 0,8,9
 1355 764 1355 764 1240.5 698.5 c 128,-1,10
 1126 633 1126 633 981 633 c 2,11,-1
 513 633 l 1,0,-1
549 801 m 1,12,-1
 946 801 l 2,13,14
 1135 801 1135 801 1232 926 c 0,15,16
 1304 1017 1304 1017 1304 1127 c 0,17,18
 1304 1224 1304 1224 1241 1274.5 c 128,-1,19
 1178 1325 1178 1325 1058 1325 c 2,20,-1
 660 1325 l 1,21,-1
 549 801 l 1,12,-1
EndSplineSet
EndChar

StartChar: Q
Encoding: 81 81 50
Width: 1593
GlyphClass: 2
Flags: W
LayerCount: 2
Fore
SplineSet
1501 -2 m 1,0,-1
 1378 -121 l 1,1,-1
 1200 57 l 1,2,3
 1108 8 1108 8 1055 -10 c 0,4,5
 945 -47 945 -47 798 -47 c 0,6,7
 673 -47 673 -47 559 -10 c 0,8,9
 375 50 375 50 288 215 c 0,10,11
 213 358 213 358 213 541 c 0,12,13
 213 821 213 821 365 1075 c 0,14,15
 515 1329 515 1329 752 1442 c 0,16,17
 910 1518 910 1518 1099 1518 c 256,18,19
 1288 1518 1288 1518 1430 1445 c 256,20,21
 1572 1372 1572 1372 1638 1222 c 0,22,23
 1696 1091 1696 1091 1696 934 c 0,24,25
 1696 713 1696 713 1603.5 510.5 c 128,-1,26
 1511 308 1511 308 1341 156 c 1,27,-1
 1501 -2 l 1,0,-1
1073 420 m 1,28,-1
 1225 270 l 1,29,30
 1347 388 1347 388 1411 527 c 0,31,32
 1499 719 1499 719 1499 914 c 0,33,34
 1499 962 1499 962 1493 1008 c 0,35,36
 1468 1193 1468 1193 1329 1282 c 0,37,38
 1219 1352 1219 1352 1075 1352 c 0,39,40
 906 1352 906 1352 757 1258 c 0,41,42
 576 1145 576 1145 479 903 c 0,43,44
 410 733 410 733 410 556 c 0,45,46
 410 508 410 508 416 463 c 0,47,48
 442 277 442 277 580 189 c 0,49,50
 690 119 690 119 839 119 c 0,51,52
 889 119 889 119 932 127 c 0,53,54
 992 138 992 138 1081 178 c 1,55,-1
 954 305 l 1,56,-1
 1073 420 l 1,28,-1
EndSplineSet
EndChar

StartChar: R
Encoding: 82 82 51
Width: 1479
GlyphClass: 2
Flags: W
LayerCount: 2
Fore
SplineSet
519 643 m 1,0,-1
 383 0 l 1,1,-1
 190 0 l 1,2,-1
 507 1493 l 1,3,-1
 1196 1493 l 2,4,5
 1410 1493 1410 1493 1498 1405 c 0,6,7
 1576 1327 1576 1327 1576 1177 c 0,8,9
 1576 1026 1576 1026 1491 900 c 0,10,11
 1459 852 1459 852 1418 819 c 128,-1,12
 1377 786 1377 786 1290 737 c 1,13,14
 1362 690 1362 690 1387.5 649.5 c 128,-1,15
 1413 609 1413 609 1413 542 c 0,16,17
 1413 515 1413 515 1409 485 c 0,18,19
 1397 400 1397 400 1370 258 c 0,20,21
 1358 194 1358 194 1358 155 c 0,22,23
 1358 132 1358 132 1366 104 c 0,24,25
 1377 69 1377 69 1400 47 c 1,26,-1
 1390 0 l 1,27,-1
 1159 0 l 1,28,29
 1151 54 1151 54 1151 96 c 0,30,31
 1151 146 1151 146 1157 180 c 128,-1,32
 1163 214 1163 214 1200 367 c 0,33,34
 1216 434 1216 434 1216 489 c 0,35,36
 1216 538 1216 538 1189 575 c 0,37,38
 1142 643 1142 643 1009 643 c 2,39,-1
 519 643 l 1,0,-1
555 811 m 1,40,-1
 1028 811 l 2,41,42
 1219 811 1219 811 1304 921 c 0,43,44
 1379 1016 1379 1016 1379 1142 c 0,45,46
 1379 1222 1379 1222 1336 1268 c 0,47,48
 1307 1299 1307 1299 1262 1312 c 128,-1,49
 1217 1325 1217 1325 1136 1325 c 2,50,-1
 664 1325 l 1,51,-1
 555 811 l 1,40,-1
EndSplineSet
EndChar

StartChar: S
Encoding: 83 83 52
Width: 1366
GlyphClass: 2
Flags: W
LayerCount: 2
Fore
SplineSet
1446 1055 m 1,0,-1
 1265 1055 l 1,1,2
 1274 1105 1274 1105 1274 1129 c 0,3,4
 1274 1159 1274 1159 1266 1188 c 0,5,6
 1242 1275 1242 1275 1171 1313.5 c 128,-1,7
 1100 1352 1100 1352 963 1352 c 0,8,9
 762 1352 762 1352 652 1252 c 0,10,11
 561 1170 561 1170 561 1061 c 0,12,13
 561 1044 561 1044 563 1032 c 0,14,15
 572 979 572 979 616.5 947 c 128,-1,16
 661 915 661 915 768 885 c 2,17,-1
 1120 785 l 2,18,19
 1256 746 1256 746 1321 645 c 0,20,21
 1370 569 1370 569 1370 486 c 256,22,23
 1370 403 1370 403 1324 304 c 0,24,25
 1235 112 1235 112 1037 23 c 0,26,27
 882 -47 882 -47 675 -47 c 0,28,29
 425 -47 425 -47 297 70 c 0,30,31
 182 174 182 174 182 347 c 0,32,33
 182 398 182 398 194 450 c 0,34,35
 196 459 196 459 200 475 c 1,36,-1
 379 475 l 1,37,38
 370 426 370 426 370 390 c 0,39,40
 370 356 370 356 376 324 c 0,41,42
 396 216 396 216 475 167.5 c 128,-1,43
 554 119 554 119 709 119 c 0,44,45
 952 119 952 119 1076 233 c 0,46,47
 1173 323 1173 323 1173 428 c 0,48,49
 1173 503 1173 503 1119 550.5 c 128,-1,50
 1065 598 1065 598 942 633 c 2,51,-1
 592 731 l 2,52,53
 500 757 500 757 447 813 c 0,54,55
 364 900 364 900 364 1007 c 0,56,57
 364 1040 364 1040 374 1084 c 0,58,59
 420 1283 420 1283 569 1395 c 0,60,61
 731 1518 731 1518 999 1518 c 0,62,63
 1099 1518 1099 1518 1185 1497 c 0,64,65
 1332 1463 1332 1463 1408 1346 c 0,66,67
 1462 1263 1462 1263 1462 1170 c 0,68,69
 1462 1129 1462 1129 1446 1055 c 1,0,-1
EndSplineSet
EndChar

StartChar: T
Encoding: 84 84 53
Width: 1251
GlyphClass: 2
Flags: W
LayerCount: 2
Fore
SplineSet
1010 1325 m 1,0,-1
 728 0 l 1,1,-1
 535 0 l 1,2,-1
 817 1325 l 1,3,-1
 324 1325 l 1,4,-1
 360 1493 l 1,5,-1
 1532 1493 l 1,6,-1
 1497 1325 l 1,7,-1
 1010 1325 l 1,0,-1
EndSplineSet
EndChar

StartChar: U
Encoding: 85 85 54
Width: 1479
GlyphClass: 2
Flags: W
LayerCount: 2
Fore
SplineSet
1446 1493 m 1,0,-1
 1638 1493 l 1,1,-1
 1416 444 l 2,2,3
 1365 206 1365 206 1163 72 c 0,4,5
 985 -47 985 -47 743 -47 c 0,6,7
 635 -47 635 -47 535 -18 c 0,8,9
 382 26 382 26 310 140 c 0,10,11
 254 230 254 230 254 317 c 0,12,13
 254 380 254 380 283 514 c 2,14,-1
 492 1493 l 1,15,-1
 684 1493 l 1,16,-1
 461 444 l 2,17,18
 451 398 451 398 451 355 c 0,19,20
 451 249 451 249 541.5 184 c 128,-1,21
 632 119 632 119 780 119 c 0,22,23
 955 119 955 119 1073 205.5 c 128,-1,24
 1191 292 1191 292 1223 444 c 2,25,-1
 1446 1493 l 1,0,-1
EndSplineSet
EndChar

StartChar: V
Encoding: 86 86 55
Width: 1366
GlyphClass: 2
Flags: W
LayerCount: 2
Fore
SplineSet
804 0 m 1,0,-1
 598 0 l 1,1,-1
 379 1493 l 1,2,-1
 578 1493 l 1,3,-1
 748 228 l 1,4,-1
 1436 1493 l 1,5,-1
 1639 1493 l 1,6,-1
 804 0 l 1,0,-1
EndSplineSet
EndChar

StartChar: W
Encoding: 87 87 56
Width: 1933
GlyphClass: 2
Flags: W
LayerCount: 2
Fore
SplineSet
1524 0 m 1,0,-1
 1314 0 l 1,1,-1
 1231 1213 l 1,2,-1
 636 0 l 1,3,-1
 427 0 l 1,4,-1
 362 1493 l 1,5,-1
 567 1493 l 1,6,-1
 598 281 l 1,7,-1
 1187 1493 l 1,8,-1
 1385 1493 l 1,9,-1
 1469 281 l 1,10,-1
 2007 1493 l 1,11,-1
 2220 1493 l 1,12,-1
 1524 0 l 1,0,-1
EndSplineSet
EndChar

StartChar: X
Encoding: 88 88 57
Width: 1366
GlyphClass: 2
Flags: W
LayerCount: 2
Fore
SplineSet
965 766 m 1,0,-1
 1331 0 l 1,1,-1
 1095 0 l 1,2,-1
 822 622 l 1,3,-1
 281 0 l 1,4,-1
 45 0 l 1,5,-1
 738 766 l 1,6,-1
 398 1493 l 1,7,-1
 629 1493 l 1,8,-1
 884 909 l 1,9,-1
 1393 1493 l 1,10,-1
 1626 1493 l 1,11,-1
 965 766 l 1,0,-1
EndSplineSet
EndChar

StartChar: Y
Encoding: 89 89 58
Width: 1366
GlyphClass: 2
Flags: W
LayerCount: 2
Fore
SplineSet
917 585 m 1,0,-1
 792 0 l 1,1,-1
 600 0 l 1,2,-1
 724 585 l 1,3,-1
 344 1493 l 1,4,-1
 573 1493 l 1,5,-1
 852 761 l 1,6,-1
 1443 1493 l 1,7,-1
 1671 1493 l 1,8,-1
 917 585 l 1,0,-1
EndSplineSet
EndChar

StartChar: Z
Encoding: 90 90 59
Width: 1251
GlyphClass: 2
Flags: W
LayerCount: 2
Fore
SplineSet
1509 1493 m 1,0,-1
 1472 1321 l 1,1,-1
 334 168 l 1,2,-1
 1231 168 l 1,3,-1
 1195 0 l 1,4,-1
 57 0 l 1,5,-1
 94 172 l 1,6,-1
 1230 1325 l 1,7,-1
 398 1325 l 1,8,-1
 434 1493 l 1,9,-1
 1509 1493 l 1,0,-1
EndSplineSet
EndChar

StartChar: bracketleft
Encoding: 91 91 60
Width: 569
GlyphClass: 2
Flags: W
LayerCount: 2
Fore
SplineSet
830 1493 m 1,0,-1
 799 1346 l 1,1,-1
 590 1346 l 1,2,-1
 242 -287 l 1,3,-1
 451 -287 l 1,4,-1
 420 -434 l 1,5,-1
 39 -434 l 1,6,-1
 449 1493 l 1,7,-1
 830 1493 l 1,0,-1
EndSplineSet
EndChar

StartChar: backslash
Encoding: 92 92 61
Width: 569
GlyphClass: 2
Flags: W
LayerCount: 2
Fore
SplineSet
301 1493 m 1,0,-1
 414 1493 l 1,1,-1
 573 -41 l 1,2,-1
 461 -41 l 1,3,-1
 301 1493 l 1,0,-1
EndSplineSet
EndChar

StartChar: bracketright
Encoding: 93 93 62
Width: 569
GlyphClass: 2
Flags: W
LayerCount: 2
Fore
SplineSet
-47 -434 m 1,0,-1
 -16 -287 l 1,1,-1
 195 -287 l 1,2,-1
 543 1346 l 1,3,-1
 332 1346 l 1,4,-1
 363 1493 l 1,5,-1
 746 1493 l 1,6,-1
 336 -434 l 1,7,-1
 -47 -434 l 1,0,-1
EndSplineSet
EndChar

StartChar: asciicircum
Encoding: 94 94 63
Width: 961
GlyphClass: 2
Flags: W
LayerCount: 2
Fore
SplineSet
715 1452 m 1,0,-1
 865 1452 l 1,1,-1
 1016 674 l 1,2,-1
 874 674 l 1,3,-1
 756 1286 l 1,4,-1
 383 674 l 1,5,-1
 236 674 l 1,6,-1
 715 1452 l 1,0,-1
EndSplineSet
EndChar

StartChar: underscore
Encoding: 95 95 64
Width: 1139
GlyphClass: 2
Flags: W
LayerCount: 2
Fore
SplineSet
1128 -258 m 1,0,-1
 1107 -360 l 1,1,-1
 -121 -360 l 1,2,-1
 -99 -258 l 1,3,-1
 1128 -258 l 1,0,-1
EndSplineSet
EndChar

StartChar: grave
Encoding: 96 96 65
Width: 682
GlyphClass: 2
Flags: W
LayerCount: 2
Fore
SplineSet
585 1516 m 1,0,-1
 732 1212 l 1,1,-1
 622 1212 l 1,2,-1
 367 1516 l 1,3,-1
 585 1516 l 1,0,-1
EndSplineSet
EndChar

StartChar: a
Encoding: 97 97 66
Width: 1139
GlyphClass: 2
Flags: W
LayerCount: 2
Fore
SplineSet
924 529 m 1,0,1
 858 506 858 506 817.5 498 c 128,-1,2
 777 490 777 490 623 469 c 0,3,4
 481 450 481 450 414 408 c 0,5,6
 313 346 313 346 313 235 c 0,7,8
 313 100 313 100 495 100 c 0,9,10
 630 100 630 100 749 171 c 0,11,12
 800 202 800 202 836.5 247 c 128,-1,13
 873 292 873 292 883 336 c 2,14,-1
 924 529 l 1,0,1
1130 105 m 1,15,-1
 1104 -28 l 1,16,17
 1085 -32 1085 -32 1075 -35 c 0,18,19
 1022 -47 1022 -47 995 -47 c 0,20,21
 922 -47 922 -47 881 -11.5 c 128,-1,22
 840 24 840 24 840 88 c 2,23,-1
 840 111 l 1,24,25
 775 55 775 55 741.5 33 c 128,-1,26
 708 11 708 11 660 -6 c 0,27,28
 542 -47 542 -47 427 -47 c 0,29,30
 354 -47 354 -47 291 -24 c 0,31,32
 216 2 216 2 174 66 c 0,33,34
 133 128 133 128 133 214 c 0,35,36
 133 304 133 304 177 382 c 128,-1,37
 221 460 221 460 301 510 c 0,38,39
 377 558 377 558 466.5 579 c 128,-1,40
 556 600 556 600 762 619 c 0,41,42
 875 629 875 629 914 653 c 0,43,44
 959 680 959 680 969 740 c 2,45,-1
 975 776 l 2,46,47
 979 802 979 802 979 816 c 0,48,49
 979 842 979 842 965 864 c 0,50,51
 940 902 940 902 885.5 924 c 128,-1,52
 831 946 831 946 762 946 c 0,53,54
 695 946 695 946 636 925.5 c 128,-1,55
 577 905 577 905 543 871 c 0,56,57
 505 832 505 832 481 756 c 1,58,-1
 309 756 l 1,59,60
 332 889 332 889 419 978 c 0,61,62
 544 1104 544 1104 807 1104 c 0,63,64
 885 1104 885 1104 956 1088 c 0,65,66
 1049 1066 1049 1066 1106 1007 c 128,-1,67
 1163 948 1163 948 1163 873 c 0,68,69
 1163 853 1163 853 1151 797 c 2,70,-1
 1020 180 l 2,71,72
 1018 172 1018 172 1018 159 c 0,73,74
 1018 101 1018 101 1095 101 c 0,75,76
 1105 101 1105 101 1118 103 c 0,77,78
 1122 103 1122 103 1130 105 c 1,15,-1
EndSplineSet
Substitution2: "Single Substitution lookup 1 subtable" ordfeminine
EndChar

StartChar: b
Encoding: 98 98 67
Width: 1139
GlyphClass: 2
Flags: W
LayerCount: 2
Fore
SplineSet
428 1493 m 1,0,-1
 600 1493 l 1,1,-1
 481 930 l 1,2,3
 563 1015 563 1015 607 1042 c 0,4,5
 706 1104 706 1104 843 1104 c 0,6,7
 922 1104 922 1104 992 1071 c 0,8,9
 1073 1033 1073 1033 1123 963 c 0,10,11
 1205 847 1205 847 1205 702 c 0,12,13
 1205 460 1205 460 1070 237 c 0,14,15
 971 71 971 71 820 2 c 0,16,17
 712 -47 712 -47 603 -47 c 0,18,19
 458 -47 458 -47 375 37 c 0,20,21
 336 77 336 77 299 160 c 1,22,-1
 265 0 l 1,23,-1
 111 0 l 1,24,-1
 428 1493 l 1,0,-1
786 946 m 0,25,26
 709 946 709 946 651 915 c 0,27,28
 516 845 516 845 443 680 c 0,29,30
 379 537 379 537 379 375 c 0,31,32
 379 303 379 303 406 238 c 0,33,34
 458 111 458 111 606 111 c 0,35,36
 684 111 684 111 745 140 c 0,37,38
 882 203 882 203 961 377 c 0,39,40
 1025 516 1025 516 1025 663 c 0,41,42
 1025 750 1025 750 994 819 c 0,43,44
 937 946 937 946 786 946 c 0,25,26
EndSplineSet
EndChar

StartChar: c
Encoding: 99 99 68
Width: 1024
GlyphClass: 2
Flags: W
LayerCount: 2
Fore
SplineSet
1129 713 m 1,0,-1
 957 713 l 1,1,2
 959 741 959 741 959 759 c 0,3,4
 959 791 959 791 949 823 c 0,5,6
 910 946 910 946 749 946 c 0,7,8
 562 946 562 946 446 763 c 0,9,10
 396 684 396 684 366 576.5 c 128,-1,11
 336 469 336 469 336 370 c 0,12,13
 336 283 336 283 373 215 c 0,14,15
 400 167 400 167 451.5 139 c 128,-1,16
 503 111 503 111 567 111 c 0,17,18
 794 111 794 111 889 369 c 1,19,-1
 1061 369 l 1,20,21
 1016 209 1016 209 943 124 c 0,22,23
 797 -47 797 -47 540 -47 c 0,24,25
 444 -47 444 -47 373 -18 c 0,26,27
 266 25 266 25 205 144 c 0,28,29
 156 240 156 240 156 348 c 0,30,31
 156 508 156 508 215 678 c 0,32,33
 293 904 293 904 457 1011 c 0,34,35
 601 1104 601 1104 781 1104 c 0,36,37
 864 1104 864 1104 930 1081 c 0,38,39
 1036 1046 1036 1046 1095 940 c 0,40,41
 1135 870 1135 870 1135 804 c 0,42,43
 1135 793 1135 793 1131 744 c 0,44,45
 1130 733 1130 733 1129 713 c 1,0,-1
EndSplineSet
EndChar

StartChar: d
Encoding: 100 100 69
Width: 1139
GlyphClass: 2
Flags: W
LayerCount: 2
Fore
SplineSet
1332 1493 m 1,0,-1
 1014 0 l 1,1,-1
 848 0 l 1,2,-1
 881 156 l 1,3,4
 844 80 844 80 764 31 c 0,5,6
 638 -47 638 -47 500 -47 c 0,7,8
 419 -47 419 -47 348 -14 c 0,9,10
 150 77 150 77 150 349 c 0,11,12
 150 522 150 522 210 687 c 0,13,14
 292 913 292 913 461 1021 c 0,15,16
 591 1104 591 1104 744 1104 c 0,17,18
 801 1104 801 1104 852 1090 c 0,19,20
 916 1072 916 1072 958 1033 c 128,-1,21
 1000 994 1000 994 1037 917 c 1,22,-1
 1160 1493 l 1,23,-1
 1332 1493 l 1,0,-1
728 946 m 0,24,25
 651 946 651 946 592 917 c 0,26,27
 466 856 466 856 392 680 c 0,28,29
 330 534 330 534 330 390 c 0,30,31
 330 307 330 307 359 238 c 0,32,33
 413 111 413 111 571 111 c 0,34,35
 756 111 756 111 875 318 c 0,36,37
 969 481 969 481 969 670 c 0,38,39
 969 757 969 757 942 819 c 0,40,41
 915 882 915 882 852 915 c 0,42,43
 794 946 794 946 728 946 c 0,24,25
EndSplineSet
EndChar

StartChar: e
Encoding: 101 101 70
Width: 1139
GlyphClass: 2
Flags: W
LayerCount: 2
Fore
SplineSet
1153 480 m 1,0,-1
 362 480 l 1,1,2
 352 441 352 441 352 385 c 0,3,4
 352 358 352 358 354 334 c 0,5,6
 363 232 363 232 431 171.5 c 128,-1,7
 499 111 499 111 605 111 c 0,8,9
 813 111 813 111 926 326 c 1,10,-1
 1098 326 l 1,11,12
 1062 202 1062 202 962 104 c 0,13,14
 809 -47 809 -47 578 -47 c 0,15,16
 405 -47 405 -47 299 55 c 0,17,18
 240 112 240 112 206 191.5 c 128,-1,19
 172 271 172 271 172 354 c 0,20,21
 172 493 172 493 233 666 c 0,22,23
 319 906 319 906 480 1010 c 0,24,25
 626 1104 626 1104 797 1104 c 0,26,27
 894 1104 894 1104 979 1067 c 0,28,29
 1073 1026 1073 1026 1129 941 c 0,30,31
 1188 850 1188 850 1188 753 c 0,32,33
 1188 668 1188 668 1159 514 c 0,34,35
 1157 503 1157 503 1153 480 c 1,0,-1
1001 627 m 1,36,37
 1008 668 1008 668 1008 694 c 0,38,39
 1008 724 1008 724 1002 755 c 0,40,41
 964 946 964 946 770 946 c 0,42,43
 703 946 703 946 644 921 c 0,44,45
 560 886 560 886 494 806.5 c 128,-1,46
 428 727 428 727 399 627 c 1,47,-1
 1001 627 l 1,36,37
EndSplineSet
EndChar

StartChar: f
Encoding: 102 102 71
Width: 569
GlyphClass: 2
Flags: W
LayerCount: 2
Fore
SplineSet
757 1073 m 1,0,-1
 728 936 l 1,1,-1
 553 936 l 1,2,-1
 354 0 l 1,3,-1
 182 0 l 1,4,-1
 381 936 l 1,5,-1
 237 936 l 1,6,-1
 266 1073 l 1,7,-1
 410 1073 l 1,8,-1
 449 1255 l 2,9,10
 473 1370 473 1370 554 1434.5 c 128,-1,11
 635 1499 635 1499 754 1499 c 0,12,13
 792 1499 792 1499 825 1493 c 0,14,15
 832 1492 832 1492 846 1489 c 1,16,-1
 816 1348 l 1,17,18
 777 1351 777 1351 759 1351 c 0,19,20
 736 1351 736 1351 717 1347 c 0,21,22
 671 1338 671 1338 648.5 1309.5 c 128,-1,23
 626 1281 626 1281 612 1214 c 2,24,-1
 582 1073 l 1,25,-1
 757 1073 l 1,0,-1
EndSplineSet
EndChar

StartChar: g
Encoding: 103 103 72
Width: 1139
GlyphClass: 2
Flags: W
LayerCount: 2
Fore
SplineSet
744 946 m 0,0,1
 665 946 665 946 595 909 c 0,2,3
 466 842 466 842 396 678 c 0,4,5
 332 529 332 529 332 376 c 0,6,7
 332 244 332 244 396 179 c 0,8,9
 462 112 462 112 556 112 c 0,10,11
 648 112 648 112 732 166.5 c 128,-1,12
 816 221 816 221 868 315 c 0,13,14
 910 391 910 391 935.5 495 c 128,-1,15
 961 599 961 599 961 695 c 0,16,17
 961 765 961 765 938 821 c 0,18,19
 916 876 916 876 866 909 c 0,20,21
 811 946 811 946 744 946 c 0,0,1
1076 1073 m 1,22,-1
 1231 1073 l 1,23,-1
 1040 174 l 2,24,25
 991 -57 991 -57 933 -167 c 0,26,27
 787 -446 787 -446 428 -446 c 0,28,29
 342 -446 342 -446 267 -426 c 0,30,31
 162 -397 162 -397 107 -317 c 0,32,33
 66 -256 66 -256 66 -186 c 0,34,35
 66 -175 66 -175 68 -150 c 0,36,37
 69 -141 69 -141 70 -123 c 1,38,-1
 242 -123 l 1,39,-1
 242 -152 l 2,40,41
 242 -221 242 -221 300.5 -260 c 128,-1,42
 359 -299 359 -299 463 -299 c 0,43,44
 627 -299 627 -299 716.5 -209 c 128,-1,45
 806 -119 806 -119 850 90 c 1,46,-1
 859 129 l 1,47,48
 701 -35 701 -35 507 -35 c 0,49,50
 422 -35 422 -35 349 0 c 0,51,52
 266 39 266 39 220 108 c 0,53,54
 152 210 152 210 152 344 c 0,55,56
 152 502 152 502 215 674 c 0,57,58
 302 910 302 910 464 1015 c 0,59,60
 602 1104 602 1104 757 1104 c 0,61,62
 809 1104 809 1104 859 1088 c 0,63,64
 924 1066 924 1066 966 1026 c 128,-1,65
 1008 986 1008 986 1041 913 c 1,66,-1
 1076 1073 l 1,22,-1
EndSplineSet
EndChar

StartChar: h
Encoding: 104 104 73
Width: 1139
GlyphClass: 2
Flags: W
LayerCount: 2
Fore
SplineSet
460 1493 m 1,0,-1
 632 1493 l 1,1,-1
 515 940 l 1,2,3
 593 1012 593 1012 647 1042 c 0,4,5
 757 1104 757 1104 899 1104 c 0,6,7
 1040 1104 1040 1104 1112 1026 c 0,8,9
 1175 957 1175 957 1175 846 c 0,10,11
 1175 808 1175 808 1167 770 c 2,12,-1
 1003 0 l 1,13,-1
 831 0 l 1,14,-1
 980 702 l 2,15,16
 993 758 993 758 993 783 c 0,17,18
 993 844 993 844 962 889 c 0,19,20
 916 957 916 957 818 957 c 0,21,22
 764 957 764 957 710 939 c 0,23,24
 499 866 499 866 441 592 c 2,25,-1
 315 0 l 1,26,-1
 143 0 l 1,27,-1
 460 1493 l 1,0,-1
EndSplineSet
EndChar

StartChar: i
Encoding: 105 105 74
Width: 455
GlyphClass: 2
Flags: W
LayerCount: 2
Fore
SplineSet
535 1073 m 1,0,-1
 307 0 l 1,1,-1
 135 0 l 1,2,-1
 363 1073 l 1,3,-1
 535 1073 l 1,0,-1
624 1493 m 1,4,-1
 579 1282 l 1,5,-1
 407 1282 l 1,6,-1
 452 1493 l 1,7,-1
 624 1493 l 1,4,-1
EndSplineSet
EndChar

StartChar: j
Encoding: 106 106 75
Width: 455
GlyphClass: 2
Flags: W
LayerCount: 2
Fore
SplineSet
370 1073 m 1,0,-1
 542 1073 l 1,1,-1
 266 -223 l 2,2,3
 239 -349 239 -349 160.5 -397.5 c 128,-1,4
 82 -446 82 -446 -94 -446 c 0,5,6
 -117 -446 -117 -446 -133 -440 c 1,7,-1
 -102 -295 l 1,8,9
 -65 -299 -65 -299 -51 -299 c 0,10,11
 -29 -299 -29 -299 -4 -295 c 0,12,13
 34 -289 34 -289 51 -278 c 128,-1,14
 68 -267 68 -267 82 -239 c 0,15,16
 97 -211 97 -211 109 -156 c 2,17,-1
 370 1073 l 1,0,-1
631 1493 m 1,18,-1
 585 1282 l 1,19,-1
 413 1282 l 1,20,-1
 459 1493 l 1,21,-1
 631 1493 l 1,18,-1
EndSplineSet
EndChar

StartChar: k
Encoding: 107 107 76
Width: 1024
GlyphClass: 2
Flags: W
LayerCount: 2
Fore
SplineSet
608 1493 m 1,0,-1
 424 627 l 1,1,-1
 975 1073 l 1,2,-1
 1196 1073 l 1,3,-1
 742 702 l 1,4,-1
 1028 0 l 1,5,-1
 832 0 l 1,6,-1
 598 596 l 1,7,-1
 379 416 l 1,8,-1
 291 0 l 1,9,-1
 119 0 l 1,10,-1
 436 1493 l 1,11,-1
 608 1493 l 1,0,-1
EndSplineSet
EndChar

StartChar: l
Encoding: 108 108 77
Width: 455
GlyphClass: 2
Flags: W
LayerCount: 2
Fore
SplineSet
628 1493 m 1,0,-1
 311 0 l 1,1,-1
 139 0 l 1,2,-1
 456 1493 l 1,3,-1
 628 1493 l 1,0,-1
EndSplineSet
EndChar

StartChar: m
Encoding: 109 109 78
Width: 1706
GlyphClass: 2
Flags: W
LayerCount: 2
Fore
SplineSet
373 1073 m 1,0,-1
 529 1073 l 1,1,-1
 500 940 l 1,2,3
 579 1012 579 1012 630 1042 c 0,4,5
 736 1104 736 1104 866 1104 c 0,6,7
 1066 1104 1066 1104 1114 934 c 1,8,9
 1290 1104 1290 1104 1486 1104 c 0,10,11
 1617 1104 1617 1104 1679 1035 c 0,12,13
 1745 962 1745 962 1745 877 c 0,14,15
 1745 822 1745 822 1733 764 c 2,16,-1
 1570 0 l 1,17,-1
 1398 0 l 1,18,-1
 1547 698 l 2,19,20
 1565 767 1565 767 1565 799 c 0,21,22
 1565 865 1565 865 1534 904 c 0,23,24
 1491 957 1491 957 1409 957 c 0,25,26
 1295 957 1295 957 1202 873 c 0,27,28
 1112 791 1112 791 1087 674 c 2,29,-1
 944 0 l 1,30,-1
 772 0 l 1,31,-1
 929 739 l 2,32,33
 937 778 937 778 937 816 c 0,34,35
 937 831 937 831 935 844 c 0,36,37
 927 894 927 894 881 925.5 c 128,-1,38
 835 957 835 957 770 957 c 0,39,40
 666 957 666 957 575 873 c 0,41,42
 485 789 485 789 460 674 c 2,43,-1
 317 0 l 1,44,-1
 145 0 l 1,45,-1
 373 1073 l 1,0,-1
EndSplineSet
EndChar

StartChar: n
Encoding: 110 110 79
Width: 1139
GlyphClass: 2
Flags: W
LayerCount: 2
Fore
SplineSet
371 1073 m 1,0,-1
 527 1073 l 1,1,-1
 498 940 l 1,2,3
 661 1104 661 1104 897 1104 c 0,4,5
 1013 1104 1013 1104 1082 1049 c 0,6,7
 1175 976 1175 976 1175 847 c 0,8,9
 1175 808 1175 808 1167 770 c 2,10,-1
 1003 0 l 1,11,-1
 831 0 l 1,12,-1
 983 715 l 2,13,14
 995 770 995 770 995 790 c 0,15,16
 995 862 995 862 944 909.5 c 128,-1,17
 893 957 893 957 816 957 c 0,18,19
 762 957 762 957 708 939 c 0,20,21
 499 866 499 866 441 592 c 2,22,-1
 315 0 l 1,23,-1
 143 0 l 1,24,-1
 371 1073 l 1,0,-1
EndSplineSet
EndChar

StartChar: o
Encoding: 111 111 80
Width: 1139
GlyphClass: 2
Flags: W
LayerCount: 2
Fore
SplineSet
787 1104 m 256,0,1
 894 1104 894 1104 975 1067 c 0,2,3
 1062 1028 1062 1028 1114 946 c 0,4,5
 1180 844 1180 844 1180 721 c 0,6,7
 1180 588 1180 588 1134 437.5 c 128,-1,8
 1088 287 1088 287 1018 190 c 0,9,10
 847 -47 847 -47 551 -47 c 0,11,12
 378 -47 378 -47 277 53 c 0,13,14
 164 163 164 163 164 336 c 0,15,16
 164 428 164 428 187 529 c 0,17,18
 248 804 248 804 389 946 c 0,19,20
 468 1026 468 1026 580 1067 c 0,21,22
 680 1104 680 1104 787 1104 c 256,0,1
761 946 m 0,23,24
 679 946 679 946 608 909 c 0,25,26
 476 841 476 841 406 674 c 0,27,28
 344 526 344 526 344 376 c 0,29,30
 344 254 344 254 405 183 c 0,31,32
 468 111 468 111 580 111 c 0,33,34
 666 111 666 111 738 148 c 0,35,36
 866 214 866 214 938 383 c 0,37,38
 1000 529 1000 529 1000 682 c 0,39,40
 1000 753 1000 753 979 809 c 0,41,42
 956 872 956 872 901 907 c 0,43,44
 839 946 839 946 761 946 c 0,23,24
EndSplineSet
Substitution2: "Single Substitution lookup 1 subtable" ordmasculine
EndChar

StartChar: p
Encoding: 112 112 81
Width: 1139
GlyphClass: 2
Flags: W
LayerCount: 2
Fore
SplineSet
14 -436 m 1,0,-1
 335 1073 l 1,1,-1
 501 1073 l 1,2,-1
 464 901 l 1,3,4
 498 971 498 971 581 1024 c 0,5,6
 707 1104 707 1104 843 1104 c 0,7,8
 999 1104 999 1104 1099 1004 c 0,9,10
 1200 903 1200 903 1200 705 c 0,11,12
 1200 534 1200 534 1139 370 c 0,13,14
 1054 141 1054 141 886 36 c 0,15,16
 754 -47 754 -47 602 -47 c 0,17,18
 545 -47 545 -47 493 -33 c 0,19,20
 429 -15 429 -15 387 24.5 c 128,-1,21
 345 64 345 64 308 139 c 1,22,-1
 186 -436 l 1,23,-1
 14 -436 l 1,0,-1
777 946 m 0,24,25
 705 946 705 946 645 917 c 0,26,27
 516 856 516 856 440 680 c 0,28,29
 374 530 374 530 374 377 c 0,30,31
 374 239 374 239 449 173 c 0,32,33
 518 111 518 111 617 111 c 0,34,35
 691 111 691 111 753 140 c 0,36,37
 883 200 883 200 958 377 c 0,38,39
 1020 523 1020 523 1020 664 c 0,40,41
 1020 750 1020 750 989 819 c 0,42,43
 931 946 931 946 777 946 c 0,24,25
EndSplineSet
EndChar

StartChar: q
Encoding: 113 113 82
Width: 1139
GlyphClass: 2
Flags: W
LayerCount: 2
Fore
SplineSet
922 -436 m 1,0,-1
 750 -436 l 1,1,-1
 870 127 l 1,2,3
 784 40 784 40 743 14 c 0,4,5
 644 -47 644 -47 507 -47 c 0,6,7
 428 -47 428 -47 358 -14 c 0,8,9
 277 24 277 24 227 94 c 0,10,11
 145 210 145 210 145 354 c 0,12,13
 145 597 145 597 280 820 c 0,14,15
 380 986 380 986 530 1055 c 0,16,17
 637 1104 637 1104 750 1104 c 0,18,19
 824 1104 824 1104 884 1079 c 0,20,21
 1004 1031 1004 1031 1050 897 c 1,22,-1
 1089 1073 l 1,23,-1
 1243 1073 l 1,24,-1
 922 -436 l 1,0,-1
744 946 m 0,25,26
 666 946 666 946 606 917 c 0,27,28
 459 846 459 846 389 680 c 0,29,30
 325 530 325 530 325 381 c 0,31,32
 325 305 325 305 356 238 c 0,33,34
 414 111 414 111 564 111 c 0,35,36
 639 111 639 111 699 142 c 0,37,38
 832 210 832 210 906 377 c 0,39,40
 970 519 970 519 970 682 c 0,41,42
 970 756 970 756 943 819 c 0,43,44
 889 946 889 946 744 946 c 0,25,26
EndSplineSet
EndChar

StartChar: r
Encoding: 114 114 83
Width: 682
GlyphClass: 2
Flags: W
LayerCount: 2
Fore
SplineSet
369 1073 m 1,0,-1
 524 1073 l 1,1,-1
 489 905 l 1,2,3
 586 1015 586 1015 662 1059.5 c 128,-1,4
 738 1104 738 1104 827 1104 c 0,5,6
 855 1104 855 1104 880 1100 c 0,7,8
 884 1099 884 1099 893 1098 c 1,9,-1
 856 924 l 1,10,-1
 835 924 l 2,11,12
 509 924 509 924 431 557 c 2,13,-1
 313 0 l 1,14,-1
 141 0 l 1,15,-1
 369 1073 l 1,0,-1
EndSplineSet
EndChar

StartChar: s
Encoding: 115 115 84
Width: 1024
GlyphClass: 2
Flags: W
LayerCount: 2
Fore
SplineSet
1053 774 m 1,0,-1
 881 774 l 1,1,2
 883 800 883 800 883 819 c 0,3,4
 883 846 883 846 875 864 c 0,5,6
 839 946 839 946 695 946 c 0,7,8
 564 946 564 946 493 878 c 0,9,10
 432 820 432 820 432 751 c 0,11,12
 432 737 432 737 436 727 c 0,13,14
 460 665 460 665 606 628 c 2,15,-1
 762 590 l 2,16,17
 842 570 842 570 885 549 c 128,-1,18
 928 528 928 528 959 495 c 0,19,20
 1010 440 1010 440 1010 354 c 0,21,22
 1010 190 1010 190 894 79 c 0,23,24
 761 -48 761 -48 507 -48 c 0,25,26
 427 -48 427 -48 352 -32 c 0,27,28
 209 0 209 0 154 98 c 0,29,30
 125 149 125 149 125 215 c 0,31,32
 125 257 125 257 137 319 c 1,33,-1
 320 319 l 1,34,35
 315 287 315 287 315 268 c 0,36,37
 315 247 315 247 321 225 c 0,38,39
 353 110 353 110 537 110 c 0,40,41
 681 110 681 110 765 179 c 0,42,43
 790 200 790 200 810 239 c 128,-1,44
 830 278 830 278 830 306 c 0,45,46
 830 342 830 342 803 374 c 0,47,48
 778 404 778 404 686 428 c 2,49,-1
 535 467 l 2,50,51
 361 511 361 511 301 571 c 0,52,53
 252 621 252 621 252 707 c 0,54,55
 252 779 252 779 285.5 853.5 c 128,-1,56
 319 928 319 928 375 981 c 0,57,58
 504 1104 504 1104 729 1104 c 0,59,60
 874 1104 874 1104 967 1041 c 0,61,62
 1065 973 1065 973 1065 862 c 0,63,64
 1065 829 1065 829 1053 774 c 1,0,-1
EndSplineSet
EndChar

StartChar: t
Encoding: 116 116 85
Width: 569
GlyphClass: 2
Flags: W
LayerCount: 2
Fore
SplineSet
750 1073 m 1,0,-1
 721 936 l 1,1,-1
 539 936 l 1,2,-1
 379 184 l 2,3,4
 375 164 375 164 375 156 c 256,5,6
 375 148 375 148 377 141 c 0,7,8
 390 100 390 100 448 100 c 0,9,10
 476 100 476 100 547 117 c 1,11,-1
 515 -33 l 1,12,13
 457 -47 457 -47 382 -47 c 0,14,15
 348 -47 348 -47 314 -37 c 0,16,17
 199 -3 199 -3 199 115 c 0,18,19
 199 146 199 146 206 178 c 2,20,-1
 367 936 l 1,21,-1
 222 936 l 1,22,-1
 250 1073 l 1,23,-1
 396 1073 l 1,24,-1
 459 1368 l 1,25,-1
 631 1368 l 1,26,-1
 568 1073 l 1,27,-1
 750 1073 l 1,0,-1
EndSplineSet
EndChar

StartChar: u
Encoding: 117 117 86
Width: 1139
GlyphClass: 2
Flags: W
LayerCount: 2
Fore
SplineSet
988 0 m 1,0,-1
 833 0 l 1,1,-1
 858 117 l 1,2,3
 769 30 769 30 675.5 -8.5 c 128,-1,4
 582 -47 582 -47 462 -47 c 0,5,6
 410 -47 410 -47 362 -37 c 0,7,8
 277 -18 277 -18 228.5 38.5 c 128,-1,9
 180 95 180 95 180 175 c 0,10,11
 180 216 180 216 186 246 c 2,12,-1
 362 1073 l 1,13,-1
 534 1073 l 1,14,-1
 373 313 l 2,15,16
 366 282 366 282 366 258 c 0,17,18
 366 237 366 237 370 219 c 0,19,20
 397 100 397 100 548 100 c 0,21,22
 602 100 602 100 653 119 c 0,23,24
 755 155 755 155 825 252 c 0,25,26
 888 338 888 338 915 465 c 2,27,-1
 1044 1073 l 1,28,-1
 1216 1073 l 1,29,-1
 988 0 l 1,0,-1
EndSplineSet
EndChar

StartChar: v
Encoding: 118 118 87
Width: 1024
GlyphClass: 2
Flags: W
LayerCount: 2
Fore
SplineSet
588 0 m 1,0,-1
 402 0 l 1,1,-1
 250 1073 l 1,2,-1
 438 1073 l 1,3,-1
 539 209 l 1,4,-1
 1038 1073 l 1,5,-1
 1225 1073 l 1,6,-1
 588 0 l 1,0,-1
EndSplineSet
EndChar

StartChar: w
Encoding: 119 119 88
Width: 1479
GlyphClass: 2
Flags: W
LayerCount: 2
Fore
SplineSet
1139 0 m 1,0,-1
 944 0 l 1,1,-1
 920 856 l 1,2,-1
 521 0 l 1,3,-1
 324 0 l 1,4,-1
 242 1073 l 1,5,-1
 428 1073 l 1,6,-1
 467 238 l 1,7,-1
 854 1073 l 1,8,-1
 1069 1073 l 1,9,-1
 1092 238 l 1,10,-1
 1493 1073 l 1,11,-1
 1680 1073 l 1,12,-1
 1139 0 l 1,0,-1
EndSplineSet
EndChar

StartChar: x
Encoding: 120 120 89
Width: 1024
GlyphClass: 2
Flags: W
LayerCount: 2
Fore
SplineSet
717 547 m 1,0,-1
 969 0 l 1,1,-1
 776 0 l 1,2,-1
 592 410 l 1,3,-1
 236 0 l 1,4,-1
 35 0 l 1,5,-1
 524 547 l 1,6,-1
 283 1073 l 1,7,-1
 473 1073 l 1,8,-1
 653 680 l 1,9,-1
 996 1073 l 1,10,-1
 1194 1073 l 1,11,-1
 717 547 l 1,0,-1
EndSplineSet
EndChar

StartChar: y
Encoding: 121 121 90
Width: 1024
GlyphClass: 2
Flags: W
LayerCount: 2
Fore
SplineSet
1026 1073 m 1,0,-1
 1208 1073 l 1,1,-1
 454 -225 l 2,2,3
 388 -339 388 -339 306.5 -392.5 c 128,-1,4
 225 -446 225 -446 117 -446 c 0,5,6
 64 -446 64 -446 16 -426 c 1,7,-1
 49 -272 l 1,8,9
 115 -280 115 -280 138 -280 c 0,10,11
 196 -280 196 -280 228.5 -259 c 128,-1,12
 261 -238 261 -238 303 -174 c 2,13,-1
 409 -8 l 1,14,-1
 270 1073 l 1,15,-1
 454 1073 l 1,16,-1
 548 240 l 1,17,-1
 1026 1073 l 1,0,-1
EndSplineSet
EndChar

StartChar: z
Encoding: 122 122 91
Width: 1024
GlyphClass: 2
Flags: W
LayerCount: 2
Fore
SplineSet
1140 1073 m 1,0,-1
 1103 920 l 1,1,-1
 301 147 l 1,2,-1
 968 147 l 1,3,-1
 937 0 l 1,4,-1
 63 0 l 1,5,-1
 100 151 l 1,6,-1
 909 926 l 1,7,-1
 307 926 l 1,8,-1
 337 1073 l 1,9,-1
 1140 1073 l 1,0,-1
EndSplineSet
EndChar

StartChar: braceleft
Encoding: 123 123 92
Width: 684
GlyphClass: 2
Flags: W
LayerCount: 2
Fore
SplineSet
882 1493 m 1,0,-1
 854 1360 l 1,1,-1
 821 1360 l 2,2,3
 745 1360 745 1360 711.5 1331.5 c 128,-1,4
 678 1303 678 1303 661 1223 c 2,5,-1
 581 852 l 2,6,7
 534 630 534 630 360 531 c 1,8,9
 406 500 406 500 427 471 c 0,10,11
 458 425 458 425 458 332 c 0,12,13
 458 262 458 262 446 207 c 2,14,-1
 366 -164 l 2,15,16
 358 -202 358 -202 358 -231 c 0,17,18
 358 -257 358 -257 372 -274 c 0,19,20
 395 -301 395 -301 469 -301 c 2,21,-1
 501 -301 l 1,22,-1
 473 -434 l 1,23,-1
 376 -434 l 2,24,25
 293 -434 293 -434 246.5 -392 c 128,-1,26
 200 -350 200 -350 200 -275 c 0,27,28
 200 -223 200 -223 213 -164 c 2,29,-1
 284 176 l 2,30,31
 302 260 302 260 302 313 c 0,32,33
 302 333 302 333 298 352 c 0,34,35
 279 443 279 443 186 459 c 1,36,-1
 217 600 l 1,37,38
 305 615 305 615 354 678.5 c 128,-1,39
 403 742 403 742 434 883 c 2,40,-1
 508 1223 l 2,41,42
 534 1343 534 1343 594 1407 c 0,43,44
 674 1493 674 1493 786 1493 c 2,45,-1
 882 1493 l 1,0,-1
EndSplineSet
EndChar

StartChar: bar
Encoding: 124 124 93
Width: 532
GlyphClass: 2
Flags: W
LayerCount: 2
Fore
SplineSet
523 1493 m 1,0,-1
 646 1493 l 1,1,-1
 234 -434 l 1,2,-1
 111 -434 l 1,3,-1
 523 1493 l 1,0,-1
EndSplineSet
EndChar

StartChar: braceright
Encoding: 125 125 94
Width: 684
GlyphClass: 2
Flags: W
LayerCount: 2
Fore
SplineSet
-33 -434 m 1,0,-1
 -4 -301 l 1,1,-1
 28 -301 l 2,2,3
 105 -301 105 -301 138 -272.5 c 128,-1,4
 171 -244 171 -244 188 -164 c 2,5,-1
 268 207 l 2,6,7
 290 308 290 308 308 352.5 c 128,-1,8
 326 397 326 397 362 438 c 0,9,10
 406 489 406 489 489 529 c 1,11,12
 391 614 391 614 391 742 c 0,13,14
 391 795 391 795 403 852 c 2,15,-1
 483 1223 l 2,16,17
 491 1259 491 1259 491 1290 c 0,18,19
 491 1360 491 1360 381 1360 c 2,20,-1
 348 1360 l 1,21,-1
 377 1493 l 1,22,-1
 473 1493 l 2,23,24
 565 1493 565 1493 611 1435 c 0,25,26
 649 1386 649 1386 649 1325 c 0,27,28
 649 1281 649 1281 637 1223 c 2,29,-1
 565 883 l 2,30,31
 547 797 547 797 547 736 c 0,32,33
 547 719 547 719 549 707 c 0,34,35
 564 617 564 617 663 600 c 1,36,-1
 633 459 l 1,37,38
 457 430 457 430 416 176 c 1,39,-1
 342 -164 l 2,40,41
 316 -282 316 -282 260 -348 c 0,42,43
 218 -397 218 -397 176 -416 c 0,44,45
 134 -434 134 -434 63 -434 c 2,46,-1
 -33 -434 l 1,0,-1
EndSplineSet
EndChar

StartChar: asciitilde
Encoding: 126 126 95
Width: 1196
GlyphClass: 2
Flags: W
LayerCount: 2
Fore
SplineSet
1110 842 m 1,0,-1
 1217 842 l 1,1,2
 1198 729 1198 729 1148 662 c 0,3,4
 1064 549 1064 549 939 549 c 0,5,6
 913 549 913 549 887 555 c 0,7,8
 833 568 833 568 786 603 c 2,9,-1
 614 730 l 2,10,11
 571 762 571 762 534 762 c 0,12,13
 515 762 515 762 496 754 c 0,14,15
 425 722 425 722 388 600 c 1,16,-1
 281 600 l 1,17,18
 310 707 310 707 351 769 c 0,19,20
 437 897 437 897 564 897 c 0,21,22
 582 897 582 897 599 894 c 0,23,24
 637 887 637 887 668 865 c 2,25,-1
 877 724 l 2,26,27
 930 688 930 688 972 688 c 0,28,29
 1079 688 1079 688 1110 842 c 1,0,-1
EndSplineSet
EndChar

StartChar: exclamdown
Encoding: 161 161 97
Width: 682
GlyphClass: 2
Flags: W
LayerCount: 2
Fore
SplineSet
156 -420 m 1,0,-1
 308 296 l 1,1,-1
 446 729 l 1,2,-1
 527 729 l 1,3,-1
 480 296 l 1,4,-1
 328 -420 l 1,5,-1
 156 -420 l 1,0,-1
432 862 m 1,6,-1
 478 1073 l 1,7,-1
 650 1073 l 1,8,-1
 604 862 l 1,9,-1
 432 862 l 1,6,-1
EndSplineSet
EndChar

StartChar: cent
Encoding: 162 162 98
Width: 1139
GlyphClass: 2
Flags: W
LayerCount: 2
Fore
SplineSet
751 942 m 1,0,1
 641 923 641 923 566 850 c 0,2,3
 465 753 465 753 414 595 c 0,4,5
 377 481 377 481 377 375 c 0,6,7
 377 267 377 267 430 197.5 c 128,-1,8
 483 128 483 128 575 115 c 1,9,-1
 751 942 l 1,0,1
834 948 m 1,10,-1
 656 109 l 1,11,12
 761 117 761 117 834.5 181.5 c 128,-1,13
 908 246 908 246 953 369 c 1,14,-1
 1125 369 l 1,15,16
 1070 172 1070 172 957 74 c 0,17,18
 855 -14 855 -14 700 -38 c 0,19,20
 672 -42 672 -42 623 -47 c 1,21,-1
 580 -246 l 1,22,-1
 498 -246 l 1,23,-1
 541 -45 l 1,24,25
 420 -32 420 -32 340 33 c 0,26,27
 197 148 197 148 197 351 c 0,28,29
 197 562 197 562 293 762 c 0,30,31
 366 913 366 913 490.5 999.5 c 128,-1,32
 615 1086 615 1086 785 1102 c 1,33,-1
 824 1286 l 1,34,-1
 906 1286 l 1,35,-1
 867 1102 l 1,36,-1
 880 1102 l 2,37,38
 983 1102 983 1102 1066 1043 c 0,39,40
 1124 1002 1124 1002 1161 935 c 128,-1,41
 1198 868 1198 868 1198 804 c 0,42,43
 1198 792 1198 792 1194 744 c 0,44,45
 1193 733 1193 733 1192 713 c 1,46,-1
 1020 713 l 1,47,48
 1022 739 1022 739 1022 761 c 0,49,50
 1022 815 1022 815 997.5 859 c 128,-1,51
 973 903 973 903 932 924 c 0,52,53
 908 936 908 936 834 948 c 1,10,-1
EndSplineSet
EndChar

StartChar: sterling
Encoding: 163 163 99
Width: 1139
GlyphClass: 2
Flags: W
LayerCount: 2
Fore
SplineSet
915 770 m 1,0,-1
 891 657 l 1,1,-1
 610 657 l 1,2,3
 611 642 611 642 612 634 c 0,4,5
 616 592 616 592 616 578 c 0,6,7
 616 556 616 556 610 526 c 0,8,9
 589 425 589 425 527 338 c 0,10,11
 486 279 486 279 346 176 c 0,12,13
 323 159 323 159 278 125 c 1,14,15
 439 204 439 204 552 204 c 0,16,17
 589 204 589 204 610 200 c 0,18,19
 625 197 625 197 659 185 c 0,20,21
 788 142 788 142 868 142 c 0,22,23
 917 142 917 142 956.5 155 c 128,-1,24
 996 168 996 168 1061 206 c 1,25,-1
 1112 63 l 1,26,27
 976 -48 976 -48 822 -48 c 0,28,29
 765 -48 765 -48 702.5 -32.5 c 128,-1,30
 640 -17 640 -17 536 24 c 0,31,32
 477 47 477 47 407 47 c 0,33,34
 374 47 374 47 348 43 c 0,35,36
 270 30 270 30 166 -29 c 1,37,-1
 90 106 l 1,38,39
 446 340 446 340 446 555 c 0,40,41
 446 577 446 577 442 598 c 0,42,43
 439 611 439 611 426 657 c 1,44,-1
 194 657 l 1,45,-1
 219 770 l 1,46,-1
 389 770 l 1,47,-1
 371 815 l 2,48,49
 328 919 328 919 328 984 c 0,50,51
 328 1027 328 1027 338 1069 c 0,52,53
 383 1255 383 1255 553 1378 c 0,54,55
 711 1493 711 1493 905 1493 c 0,56,57
 989 1493 989 1493 1067 1468 c 0,58,59
 1198 1427 1198 1427 1252 1326 c 0,60,61
 1286 1262 1286 1262 1286 1186 c 0,62,63
 1286 1127 1286 1127 1268 1018 c 1,64,-1
 1087 1018 l 1,65,66
 1106 1086 1106 1086 1106 1134 c 0,67,68
 1106 1212 1106 1212 1063 1261 c 0,69,70
 998 1335 998 1335 869 1335 c 0,71,72
 814 1335 814 1335 760 1319 c 0,73,74
 647 1284 647 1284 585 1197 c 0,75,76
 525 1114 525 1114 525 1007 c 0,77,78
 525 953 525 953 541 908 c 0,79,80
 575 811 575 811 588 770 c 1,81,-1
 915 770 l 1,0,-1
EndSplineSet
EndChar

StartChar: yen
Encoding: 165 165 100
Width: 1139
GlyphClass: 2
Flags: W
LayerCount: 2
Fore
SplineSet
1173 725 m 1,0,-1
 1151 621 l 1,1,-1
 798 621 l 1,2,-1
 765 462 l 1,3,-1
 1117 462 l 1,4,-1
 1095 358 l 1,5,-1
 742 358 l 1,6,-1
 666 0 l 1,7,-1
 486 0 l 1,8,-1
 562 358 l 1,9,-1
 205 358 l 1,10,-1
 227 462 l 1,11,-1
 584 462 l 1,12,-1
 618 621 l 1,13,-1
 261 621 l 1,14,-1
 283 725 l 1,15,-1
 597 725 l 1,16,-1
 332 1452 l 1,17,-1
 507 1452 l 1,18,-1
 745 793 l 1,19,-1
 1252 1452 l 1,20,-1
 1426 1452 l 1,21,-1
 859 725 l 1,22,-1
 1173 725 l 1,0,-1
EndSplineSet
EndChar

StartChar: section
Encoding: 167 167 101
Width: 1139
GlyphClass: 2
Flags: W
LayerCount: 2
Fore
SplineSet
1178 1073 m 1,0,-1
 1006 1073 l 1,1,2
 1026 1130 1026 1130 1026 1177 c 0,3,4
 1026 1207 1026 1207 1018 1234 c 0,5,6
 1004 1280 1004 1280 959.5 1307.5 c 128,-1,7
 915 1335 915 1335 855 1335 c 0,8,9
 780 1335 780 1335 721 1288 c 0,10,11
 641 1223 641 1223 641 1132 c 0,12,13
 641 1114 641 1114 647 1096 c 0,14,15
 655 1072 655 1072 669 1056 c 128,-1,16
 683 1040 683 1040 727 1005 c 2,17,-1
 987 799 l 2,18,19
 1072 731 1072 731 1096 699 c 0,20,21
 1145 634 1145 634 1145 547 c 0,22,23
 1145 479 1145 479 1115 400 c 128,-1,24
 1085 321 1085 321 1038 268 c 0,25,26
 967 186 967 186 844 145 c 1,27,28
 905 60 905 60 905 -32 c 0,29,30
 905 -60 905 -60 901 -82 c 0,31,32
 888 -152 888 -152 845 -222 c 128,-1,33
 802 -292 802 -292 743 -340 c 0,34,35
 624 -436 624 -436 461 -436 c 0,36,37
 310 -436 310 -436 219.5 -359 c 128,-1,38
 129 -282 129 -282 129 -153 c 0,39,40
 129 -98 129 -98 152 -29 c 1,41,-1
 326 -29 l 1,42,43
 309 -87 309 -87 309 -121 c 0,44,45
 309 -175 309 -175 342 -216 c 0,46,47
 393 -279 393 -279 487 -279 c 0,48,49
 603 -279 603 -279 667 -198 c 0,50,51
 717 -135 717 -135 717 -69 c 0,52,53
 717 -25 717 -25 699.5 8 c 128,-1,54
 682 41 682 41 639 78 c 2,55,-1
 342 332 l 2,56,57
 274 390 274 390 250 431 c 0,58,59
 213 496 213 496 213 562 c 0,60,61
 213 597 213 597 225 645 c 0,62,63
 259 776 259 776 358 859 c 0,64,65
 395 889 395 889 506 948 c 1,66,67
 453 1017 453 1017 453 1106 c 0,68,69
 453 1243 453 1243 576 1364 c 0,70,71
 707 1493 707 1493 893 1493 c 0,72,73
 1048 1493 1048 1493 1136 1399 c 0,74,75
 1206 1325 1206 1325 1206 1217 c 0,76,77
 1206 1169 1206 1169 1194 1130 c 0,78,79
 1181 1088 1181 1088 1178 1073 c 1,0,-1
766 221 m 1,80,81
 965 323 965 323 965 473 c 0,82,83
 965 571 965 571 856 659 c 2,84,-1
 588 876 l 1,85,86
 529 843 529 843 493 815 c 0,87,88
 393 739 393 739 393 632 c 0,89,90
 393 570 393 570 427 526 c 0,91,92
 445 502 445 502 483 469 c 2,93,-1
 766 221 l 1,80,81
EndSplineSet
EndChar

StartChar: dieresis
Encoding: 168 168 102
Width: 682
GlyphClass: 2
Flags: W
LayerCount: 2
Fore
SplineSet
584 1464 m 1,0,-1
 539 1253 l 1,1,-1
 326 1253 l 1,2,-1
 371 1464 l 1,3,-1
 584 1464 l 1,0,-1
914 1464 m 1,4,-1
 869 1253 l 1,5,-1
 656 1253 l 1,6,-1
 701 1464 l 1,7,-1
 914 1464 l 1,4,-1
EndSplineSet
EndChar

StartChar: copyright
Encoding: 169 169 103
Width: 1509
GlyphClass: 2
Flags: W
LayerCount: 2
Fore
SplineSet
1305 895 m 1,0,-1
 1159 895 l 1,1,2
 1155 988 1155 988 1126 1028 c 0,3,4
 1085 1085 1085 1085 1001 1085 c 0,5,6
 850 1085 850 1085 752 934 c 0,7,8
 659 792 659 792 659 617 c 0,9,10
 659 536 659 536 690 478 c 0,11,12
 713 438 713 438 758.5 411.5 c 128,-1,13
 804 385 804 385 853 385 c 0,14,15
 938 385 938 385 1006.5 450 c 128,-1,16
 1075 515 1075 515 1121 639 c 1,17,-1
 1267 639 l 1,18,19
 1200 476 1200 476 1131 402 c 0,20,21
 999 258 999 258 821 258 c 0,22,23
 754 258 754 258 696 280 c 0,24,25
 577 324 577 324 532 455 c 0,26,27
 511 518 511 518 511 599 c 0,28,29
 511 714 511 714 553.5 830.5 c 128,-1,30
 596 947 596 947 670 1035 c 0,31,32
 818 1212 818 1212 1031 1212 c 0,33,34
 1086 1212 1086 1212 1135 1197 c 0,35,36
 1301 1148 1301 1148 1305 895 c 1,0,-1
1085 1520 m 0,37,38
 1237 1520 1237 1520 1365 1461 c 0,39,40
 1582 1360 1582 1360 1667 1145 c 0,41,42
 1712 1030 1712 1030 1712 900 c 0,43,44
 1712 726 1712 726 1633 553 c 0,45,46
 1506 274 1506 274 1239 105 c 0,47,48
 1000 -45 1000 -45 739 -45 c 0,49,50
 591 -45 591 -45 460 15 c 0,51,52
 244 113 244 113 158 331 c 0,53,54
 113 446 113 446 113 576 c 0,55,56
 113 656 113 656 130 738 c 0,57,58
 177 958 177 958 333 1148 c 0,59,60
 484 1332 484 1332 705 1434 c 0,61,62
 890 1520 890 1520 1085 1520 c 0,37,38
1057 1393 m 0,63,64
 921 1393 921 1393 796 1343 c 0,65,66
 526 1236 526 1236 373 989 c 0,67,68
 256 799 256 799 256 600 c 0,69,70
 256 541 256 541 267 487 c 0,71,72
 306 290 306 290 460 179 c 0,73,74
 594 82 594 82 768 82 c 0,75,76
 982 82 982 82 1178 208 c 0,77,78
 1398 350 1398 350 1503 583 c 0,79,80
 1569 729 1569 729 1569 877 c 0,81,82
 1569 1065 1569 1065 1464 1201 c 0,83,84
 1392 1295 1392 1295 1287 1343 c 0,85,86
 1178 1393 1178 1393 1057 1393 c 0,63,64
EndSplineSet
EndChar

StartChar: ordfeminine
Encoding: 170 170 104
Width: 758
GlyphClass: 2
Flags: W
LayerCount: 2
Fore
SplineSet
831 725 m 1,0,-1
 809 621 l 1,1,-1
 219 621 l 1,2,-1
 242 725 l 1,3,-1
 831 725 l 1,0,-1
885 919 m 1,4,-1
 866 829 l 1,5,6
 852 827 852 827 846 825 c 0,7,8
 808 817 808 817 792 817 c 0,9,10
 767 817 767 817 747 825 c 0,11,12
 702 844 702 844 696 905 c 1,13,14
 603 817 603 817 472 817 c 0,15,16
 418 817 418 817 376 831 c 0,17,18
 278 865 278 865 278 981 c 0,19,20
 278 1099 278 1099 381 1163 c 0,21,22
 425 1191 425 1191 479.5 1204 c 128,-1,23
 534 1217 534 1217 655 1228 c 0,24,25
 722 1235 722 1235 743.5 1247 c 128,-1,26
 765 1259 765 1259 774 1296 c 2,27,-1
 778 1312 l 2,28,29
 782 1328 782 1328 782 1343 c 0,30,31
 782 1357 782 1357 776 1368 c 0,32,33
 765 1386 765 1386 755 1394 c 0,34,35
 730 1415 730 1415 655 1415 c 0,36,37
 634 1415 634 1415 608 1409 c 0,38,39
 557 1397 557 1397 532 1373 c 128,-1,40
 507 1349 507 1349 491 1298 c 1,41,-1
 377 1298 l 1,42,43
 395 1365 395 1365 408 1392.5 c 128,-1,44
 421 1420 421 1420 446 1443 c 0,45,46
 526 1520 526 1520 689 1520 c 0,47,48
 736 1520 736 1520 776 1512 c 0,49,50
 835 1500 835 1500 869 1466 c 128,-1,51
 903 1432 903 1432 903 1385 c 0,52,53
 903 1357 903 1357 901 1347 c 2,54,-1
 817 958 l 2,55,56
 815 949 815 949 815 944 c 0,57,58
 815 915 815 915 850 915 c 0,59,60
 855 915 855 915 868 917 c 0,61,62
 874 918 874 918 885 919 c 1,4,-1
743 1159 m 1,63,64
 699 1144 699 1144 639 1136 c 0,65,66
 500 1117 500 1117 458 1091 c 0,67,68
 401 1056 401 1056 401 994 c 0,69,70
 401 982 401 982 405 970 c 0,71,72
 415 943 415 943 439 931 c 128,-1,73
 463 919 463 919 510 919 c 0,74,75
 572 919 572 919 646 962 c 0,76,77
 712 1000 712 1000 723 1054 c 2,78,-1
 743 1159 l 1,63,64
EndSplineSet
EndChar

StartChar: guillemotleft
Encoding: 171 171 105
Width: 1139
GlyphClass: 2
Flags: W
LayerCount: 2
Fore
SplineSet
301 466 m 1,0,-1
 340 648 l 1,1,-1
 702 897 l 1,2,-1
 666 726 l 1,3,-1
 417 554 l 1,4,-1
 594 385 l 1,5,-1
 558 217 l 1,6,-1
 301 466 l 1,0,-1
721 466 m 1,7,-1
 759 648 l 1,8,-1
 1122 897 l 1,9,-1
 1086 726 l 1,10,-1
 837 554 l 1,11,-1
 1014 385 l 1,12,-1
 978 217 l 1,13,-1
 721 466 l 1,7,-1
EndSplineSet
EndChar

StartChar: logicalnot
Encoding: 172 172 106
Width: 1196
GlyphClass: 2
Flags: W
LayerCount: 2
Fore
SplineSet
233 772 m 1,0,-1
 1268 772 l 1,1,-1
 1142 176 l 1,2,-1
 999 176 l 1,3,-1
 1094 625 l 1,4,-1
 203 625 l 1,5,-1
 233 772 l 1,0,-1
EndSplineSet
EndChar

StartChar: registered
Encoding: 174 174 107
Width: 1509
GlyphClass: 2
Flags: W
LayerCount: 2
Fore
SplineSet
699 665 m 1,0,-1
 619 287 l 1,1,-1
 475 287 l 1,2,-1
 669 1198 l 1,3,-1
 1090 1198 l 2,4,5
 1334 1198 1334 1198 1334 1014 c 0,6,7
 1334 928 1334 928 1296 856 c 0,8,9
 1264 796 1264 796 1171 737 c 1,10,11
 1205 710 1205 710 1217 686.5 c 128,-1,12
 1229 663 1229 663 1229 623 c 0,13,14
 1229 593 1229 593 1214 507 c 0,15,16
 1199 424 1199 424 1199 398 c 0,17,18
 1199 382 1199 382 1202 370 c 0,19,20
 1207 353 1207 353 1224 337 c 1,21,-1
 1213 287 l 1,22,-1
 1052 287 l 1,23,24
 1045 318 1045 318 1045 345 c 0,25,26
 1045 378 1045 378 1049 405 c 0,27,28
 1052 429 1052 429 1074 518 c 0,29,30
 1083 554 1083 554 1083 583 c 0,31,32
 1083 611 1083 611 1070 630 c 0,33,34
 1046 665 1046 665 973 665 c 2,35,-1
 699 665 l 1,0,-1
727 795 m 1,36,-1
 991 795 l 2,37,38
 1094 795 1094 795 1139 852 c 0,39,40
 1179 903 1179 903 1179 975 c 0,41,42
 1179 983 1179 983 1178 989 c 0,43,44
 1170 1068 1170 1068 1049 1068 c 2,45,-1
 785 1068 l 1,46,-1
 727 795 l 1,36,-1
1085 1520 m 0,47,48
 1237 1520 1237 1520 1365 1461 c 0,49,50
 1582 1360 1582 1360 1667 1145 c 0,51,52
 1712 1030 1712 1030 1712 900 c 0,53,54
 1712 726 1712 726 1633 553 c 0,55,56
 1506 274 1506 274 1239 105 c 0,57,58
 1000 -45 1000 -45 739 -45 c 0,59,60
 591 -45 591 -45 460 15 c 0,61,62
 244 113 244 113 158 331 c 0,63,64
 113 446 113 446 113 576 c 0,65,66
 113 656 113 656 130 738 c 0,67,68
 177 958 177 958 333 1148 c 0,69,70
 484 1332 484 1332 705 1434 c 0,71,72
 890 1520 890 1520 1085 1520 c 0,47,48
1057 1393 m 0,73,74
 921 1393 921 1393 796 1343 c 0,75,76
 526 1236 526 1236 373 989 c 0,77,78
 256 799 256 799 256 600 c 0,79,80
 256 541 256 541 267 487 c 0,81,82
 306 290 306 290 460 179 c 0,83,84
 594 82 594 82 768 82 c 0,85,86
 982 82 982 82 1178 208 c 0,87,88
 1398 350 1398 350 1503 583 c 0,89,90
 1569 729 1569 729 1569 877 c 0,91,92
 1569 1065 1569 1065 1464 1201 c 0,93,94
 1392 1295 1392 1295 1287 1343 c 0,95,96
 1178 1393 1178 1393 1057 1393 c 0,73,74
EndSplineSet
EndChar

StartChar: macron
Encoding: 175 175 108
Width: 682
GlyphClass: 2
Flags: W
LayerCount: 2
Fore
SplineSet
922 1426 m 1,0,-1
 891 1285 l 1,1,-1
 328 1285 l 1,2,-1
 359 1426 l 1,3,-1
 922 1426 l 1,0,-1
EndSplineSet
EndChar

StartChar: degree
Encoding: 176 176 109
Width: 819
GlyphClass: 2
Flags: W
LayerCount: 2
Fore
SplineSet
695 1405 m 0,0,1
 758 1405 758 1405 814 1381 c 0,2,3
 908 1342 908 1342 960 1257 c 0,4,5
 1006 1182 1006 1182 1006 1095 c 0,6,7
 1006 1033 1006 1033 982 976 c 0,8,9
 946 888 946 888 867.5 836 c 128,-1,10
 789 784 789 784 692 784 c 0,11,12
 567 784 567 784 476 875 c 256,13,14
 385 966 385 966 385 1095 c 0,15,16
 385 1226 385 1226 476 1314 c 0,17,18
 569 1405 569 1405 695 1405 c 0,0,1
696 1317 m 0,19,20
 651 1317 651 1317 612 1300 c 0,21,22
 551 1274 551 1274 514 1218 c 128,-1,23
 477 1162 477 1162 477 1095 c 0,24,25
 477 1050 477 1050 494 1009 c 0,26,27
 519 948 519 948 574 910 c 128,-1,28
 629 872 629 872 693 872 c 0,29,30
 738 872 738 872 779 889 c 0,31,32
 841 916 841 916 877.5 971.5 c 128,-1,33
 914 1027 914 1027 914 1095 c 0,34,35
 914 1188 914 1188 850 1252 c 0,36,37
 785 1317 785 1317 696 1317 c 0,19,20
EndSplineSet
EndChar

StartChar: plusminus
Encoding: 177 177 110
Width: 1196
GlyphClass: 2
Flags: W
LayerCount: 2
Fore
SplineSet
1280 879 m 1,0,-1
 1249 732 l 1,1,-1
 825 732 l 1,2,-1
 735 305 l 1,3,-1
 590 305 l 1,4,-1
 681 732 l 1,5,-1
 257 732 l 1,6,-1
 288 879 l 1,7,-1
 711 879 l 1,8,-1
 801 1296 l 1,9,-1
 945 1296 l 1,10,-1
 856 879 l 1,11,-1
 1280 879 l 1,0,-1
1124 147 m 1,12,-1
 1093 0 l 1,13,-1
 102 0 l 1,14,-1
 133 147 l 1,15,-1
 1124 147 l 1,12,-1
EndSplineSet
EndChar

StartChar: acute
Encoding: 180 180 111
Width: 682
GlyphClass: 2
Flags: W
LayerCount: 2
Fore
SplineSet
708 1516 m 1,0,-1
 938 1516 l 1,1,-1
 569 1212 l 1,2,-1
 446 1212 l 1,3,-1
 708 1516 l 1,0,-1
EndSplineSet
EndChar

StartChar: mu
Encoding: 181 181 112
Width: 1139
GlyphClass: 2
Flags: W
LayerCount: 2
Fore
SplineSet
1106 -29 m 1,0,-1
 1079 -35 l 2,1,2
 1029 -47 1029 -47 997 -47 c 0,3,4
 913 -47 913 -47 877.5 -17 c 128,-1,5
 842 13 842 13 842 84 c 0,6,7
 842 97 842 97 848 123 c 1,8,9
 685 -47 685 -47 473 -47 c 0,10,11
 414 -47 414 -47 363 -26 c 0,12,13
 336 -16 336 -16 307 12 c 1,14,-1
 209 -451 l 1,15,-1
 37 -451 l 1,16,-1
 361 1073 l 1,17,-1
 533 1073 l 1,18,-1
 375 328 l 2,19,20
 369 300 369 300 369 265 c 0,21,22
 369 189 369 189 416 145.5 c 128,-1,23
 463 102 463 102 545 102 c 0,24,25
 667 102 667 102 766 190 c 0,26,27
 876 288 876 288 914 465 c 2,28,-1
 1043 1073 l 1,29,-1
 1215 1073 l 1,30,-1
 1024 180 l 2,31,32
 1022 170 1022 170 1022 157 c 0,33,34
 1022 146 1022 146 1024 137 c 0,35,36
 1034 94 1034 94 1100 94 c 0,37,38
 1111 94 1111 94 1120 96 c 0,39,40
 1125 97 1125 97 1135 100 c 1,41,-1
 1106 -29 l 1,0,-1
EndSplineSet
EndChar

StartChar: paragraph
Encoding: 182 182 113
Width: 1100
GlyphClass: 2
Flags: W
LayerCount: 2
Fore
SplineSet
1387 1493 m 1,0,-1
 1358 1362 l 1,1,-1
 1243 1362 l 1,2,-1
 876 -365 l 1,3,-1
 745 -365 l 1,4,-1
 1112 1362 l 1,5,-1
 942 1362 l 1,6,-1
 575 -365 l 1,7,-1
 444 -365 l 1,8,-1
 634 530 l 1,9,10
 483 535 483 535 397 621 c 0,11,12
 297 720 297 720 297 892 c 0,13,14
 297 994 297 994 340 1102 c 128,-1,15
 383 1210 383 1210 459 1295 c 0,16,17
 546 1394 546 1394 665 1446 c 0,18,19
 771 1493 771 1493 875 1493 c 2,20,-1
 1387 1493 l 1,0,-1
EndSplineSet
EndChar

StartChar: periodcentered
Encoding: 183 183 114
Width: 569
GlyphClass: 2
Flags: W
LayerCount: 2
Fore
SplineSet
582 679 m 1,0,-1
 537 466 l 1,1,-1
 324 466 l 1,2,-1
 369 679 l 1,3,-1
 582 679 l 1,0,-1
EndSplineSet
EndChar

StartChar: cedilla
Encoding: 184 184 115
Width: 682
GlyphClass: 2
Flags: W
LayerCount: 2
Fore
SplineSet
338 0 m 1,0,-1
 422 0 l 1,1,-1
 360 -115 l 1,2,3
 391 -111 391 -111 404 -111 c 0,4,5
 461 -111 461 -111 501 -141.5 c 128,-1,6
 541 -172 541 -172 541 -215 c 0,7,8
 541 -263 541 -263 514 -310 c 128,-1,9
 487 -357 487 -357 443 -387 c 0,10,11
 367 -438 367 -438 245 -438 c 0,12,13
 140 -438 140 -438 2 -369 c 1,14,-1
 59 -291 l 1,15,16
 173 -350 173 -350 252 -350 c 0,17,18
 309 -350 309 -350 345 -318.5 c 128,-1,19
 381 -287 381 -287 381 -237 c 0,20,21
 381 -219 381 -219 362 -205.5 c 128,-1,22
 343 -192 343 -192 318 -192 c 0,23,24
 307 -192 307 -192 276 -198 c 0,25,26
 273 -199 273 -199 262 -201 c 1,27,-1
 235 -188 l 1,28,-1
 338 0 l 1,0,-1
EndSplineSet
EndChar

StartChar: ordmasculine
Encoding: 186 186 116
Width: 748
GlyphClass: 2
Flags: W
LayerCount: 2
Fore
SplineSet
794 725 m 1,0,-1
 772 621 l 1,1,-1
 233 621 l 1,2,-1
 256 725 l 1,3,-1
 794 725 l 1,0,-1
688 1520 m 0,4,5
 751 1520 751 1520 804 1497 c 0,6,7
 849 1478 849 1478 876 1441 c 0,8,9
 925 1372 925 1372 925 1285 c 0,10,11
 925 1206 925 1206 896.5 1113.5 c 128,-1,12
 868 1021 868 1021 826 963 c 0,13,14
 722 817 722 817 537 817 c 0,15,16
 439 817 439 817 377 872 c 0,17,18
 305 936 305 936 305 1043 c 0,19,20
 305 1129 305 1129 332.5 1224 c 128,-1,21
 360 1319 360 1319 402 1376 c 0,22,23
 452 1444 452 1444 527.5 1482 c 128,-1,24
 603 1520 603 1520 688 1520 c 0,4,5
668 1414 m 0,25,26
 621 1414 621 1414 579 1391 c 0,27,28
 499 1348 499 1348 463 1253 c 0,29,30
 428 1160 428 1160 428 1075 c 0,31,32
 428 1039 428 1039 440 1003 c 0,33,34
 468 923 468 923 566 923 c 0,35,36
 613 923 613 923 651 944 c 0,37,38
 730 987 730 987 767 1083 c 0,39,40
 802 1172 802 1172 802 1265 c 0,41,42
 802 1293 802 1293 794 1322 c 0,43,44
 769 1414 769 1414 668 1414 c 0,25,26
EndSplineSet
EndChar

StartChar: guillemotright
Encoding: 187 187 117
Width: 1139
GlyphClass: 2
Flags: W
LayerCount: 2
Fore
SplineSet
654 648 m 1,0,-1
 615 467 l 1,1,-1
 248 217 l 1,2,-1
 284 388 l 1,3,-1
 537 560 l 1,4,-1
 356 729 l 1,5,-1
 393 897 l 1,6,-1
 654 648 l 1,0,-1
1061 648 m 1,7,-1
 1022 467 l 1,8,-1
 656 217 l 1,9,-1
 692 388 l 1,10,-1
 945 560 l 1,11,-1
 764 729 l 1,12,-1
 800 897 l 1,13,-1
 1061 648 l 1,7,-1
EndSplineSet
EndChar

StartChar: questiondown
Encoding: 191 191 118
Width: 1251
GlyphClass: 2
Flags: W
LayerCount: 2
Fore
SplineSet
704 666 m 1,0,-1
 888 666 l 1,1,-1
 864 553 l 2,2,3
 845 462 845 462 798.5 406.5 c 128,-1,4
 752 351 752 351 584 219 c 0,5,6
 473 132 473 132 422 53.5 c 128,-1,7
 371 -25 371 -25 371 -107 c 256,8,9
 371 -189 371 -189 430.5 -237.5 c 128,-1,10
 490 -286 490 -286 590 -286 c 0,11,12
 726 -286 726 -286 802.5 -209.5 c 128,-1,13
 879 -133 879 -133 913 35 c 1,14,-1
 1087 35 l 1,15,16
 991 -444 991 -444 544 -444 c 0,17,18
 451 -444 451 -444 377 -419 c 0,19,20
 268 -383 268 -383 211 -279 c 0,21,22
 176 -215 176 -215 176 -148 c 0,23,24
 176 2 176 2 280 140 c 0,25,26
 336 213 336 213 471 316 c 0,27,28
 589 406 589 406 629 453.5 c 128,-1,29
 669 501 669 501 683 570 c 2,30,-1
 704 666 l 1,0,-1
745 862 m 1,31,-1
 791 1073 l 1,32,-1
 975 1073 l 1,33,-1
 930 862 l 1,34,-1
 745 862 l 1,31,-1
EndSplineSet
EndChar

StartChar: Agrave
Encoding: 192 192 119
Width: 1366
GlyphClass: 2
Flags: W
LayerCount: 2
Fore
SplineSet
1073 449 m 1,0,-1
 490 449 l 1,1,-1
 238 0 l 1,2,-1
 35 0 l 1,3,-1
 885 1493 l 1,4,-1
 1131 1493 l 1,5,-1
 1338 0 l 1,6,-1
 1129 0 l 1,7,-1
 1073 449 l 1,0,-1
1053 609 m 1,8,-1
 971 1290 l 1,9,-1
 580 609 l 1,10,-1
 1053 609 l 1,8,-1
989 1923 m 1,11,-1
 1136 1620 l 1,12,-1
 1027 1620 l 1,13,-1
 772 1923 l 1,14,-1
 989 1923 l 1,11,-1
EndSplineSet
EndChar

StartChar: Aacute
Encoding: 193 193 120
Width: 1366
GlyphClass: 2
Flags: W
LayerCount: 2
Fore
SplineSet
1073 449 m 1,0,-1
 490 449 l 1,1,-1
 238 0 l 1,2,-1
 35 0 l 1,3,-1
 885 1493 l 1,4,-1
 1131 1493 l 1,5,-1
 1338 0 l 1,6,-1
 1129 0 l 1,7,-1
 1073 449 l 1,0,-1
1053 609 m 1,8,-1
 971 1290 l 1,9,-1
 580 609 l 1,10,-1
 1053 609 l 1,8,-1
1137 1923 m 1,11,-1
 1366 1923 l 1,12,-1
 998 1620 l 1,13,-1
 875 1620 l 1,14,-1
 1137 1923 l 1,11,-1
EndSplineSet
EndChar

StartChar: Acircumflex
Encoding: 194 194 121
Width: 1366
GlyphClass: 2
Flags: W
LayerCount: 2
Fore
SplineSet
1073 449 m 1,0,-1
 490 449 l 1,1,-1
 238 0 l 1,2,-1
 35 0 l 1,3,-1
 885 1493 l 1,4,-1
 1131 1493 l 1,5,-1
 1338 0 l 1,6,-1
 1129 0 l 1,7,-1
 1073 449 l 1,0,-1
1053 609 m 1,8,-1
 971 1290 l 1,9,-1
 580 609 l 1,10,-1
 1053 609 l 1,8,-1
996 1925 m 1,11,-1
 1188 1925 l 1,12,-1
 1321 1618 l 1,13,-1
 1190 1618 l 1,14,-1
 1075 1821 l 1,15,-1
 864 1618 l 1,16,-1
 733 1618 l 1,17,-1
 996 1925 l 1,11,-1
EndSplineSet
EndChar

StartChar: Atilde
Encoding: 195 195 122
Width: 1366
GlyphClass: 2
Flags: W
LayerCount: 2
Fore
SplineSet
1073 449 m 1,0,-1
 490 449 l 1,1,-1
 238 0 l 1,2,-1
 35 0 l 1,3,-1
 885 1493 l 1,4,-1
 1131 1493 l 1,5,-1
 1338 0 l 1,6,-1
 1129 0 l 1,7,-1
 1073 449 l 1,0,-1
1053 609 m 1,8,-1
 971 1290 l 1,9,-1
 580 609 l 1,10,-1
 1053 609 l 1,8,-1
1393 1880 m 1,11,12
 1361 1782 1361 1782 1300.5 1722.5 c 128,-1,13
 1240 1663 1240 1663 1172 1663 c 0,14,15
 1119 1663 1119 1663 960 1716 c 0,16,17
 925 1728 925 1728 905 1728 c 0,18,19
 893 1728 893 1728 879 1725 c 0,20,21
 843 1716 843 1716 817 1679 c 0,22,23
 813 1673 813 1673 804 1660 c 1,24,-1
 694 1660 l 1,25,26
 727 1755 727 1755 760 1797 c 0,27,28
 785 1829 785 1829 826.5 1849.5 c 128,-1,29
 868 1870 868 1870 908 1870 c 0,30,31
 954 1870 954 1870 1057 1836 c 0,32,33
 1149 1805 1149 1805 1186 1805 c 0,34,35
 1220 1805 1220 1805 1244 1827 c 0,36,37
 1260 1842 1260 1842 1284 1880 c 1,38,-1
 1393 1880 l 1,11,12
EndSplineSet
EndChar

StartChar: Adieresis
Encoding: 196 196 123
Width: 1366
GlyphClass: 2
Flags: W
LayerCount: 2
Fore
SplineSet
1073 449 m 1,0,-1
 490 449 l 1,1,-1
 238 0 l 1,2,-1
 35 0 l 1,3,-1
 885 1493 l 1,4,-1
 1131 1493 l 1,5,-1
 1338 0 l 1,6,-1
 1129 0 l 1,7,-1
 1073 449 l 1,0,-1
1053 609 m 1,8,-1
 971 1290 l 1,9,-1
 580 609 l 1,10,-1
 1053 609 l 1,8,-1
1026 1871 m 1,11,-1
 980 1660 l 1,12,-1
 768 1660 l 1,13,-1
 813 1871 l 1,14,-1
 1026 1871 l 1,11,-1
1355 1871 m 1,15,-1
 1310 1660 l 1,16,-1
 1097 1660 l 1,17,-1
 1142 1871 l 1,18,-1
 1355 1871 l 1,15,-1
EndSplineSet
EndChar

StartChar: Aring
Encoding: 197 197 124
Width: 1366
GlyphClass: 2
Flags: W
LayerCount: 2
Fore
SplineSet
1073 449 m 1,0,-1
 490 449 l 1,1,-1
 238 0 l 1,2,-1
 35 0 l 1,3,-1
 885 1493 l 1,4,-1
 1131 1493 l 1,5,-1
 1338 0 l 1,6,-1
 1129 0 l 1,7,-1
 1073 449 l 1,0,-1
1053 609 m 1,8,-1
 971 1290 l 1,9,-1
 580 609 l 1,10,-1
 1053 609 l 1,8,-1
1092 1952 m 0,11,12
 1128 1952 1128 1952 1159 1938 c 0,13,14
 1239 1901 1239 1901 1239 1815 c 0,15,16
 1239 1732 1239 1732 1178 1668 c 0,17,18
 1107 1594 1107 1594 1015 1594 c 0,19,20
 981 1594 981 1594 951 1608 c 0,21,22
 871 1646 871 1646 871 1738 c 0,23,24
 871 1814 871 1814 932 1878 c 0,25,26
 1003 1952 1003 1952 1092 1952 c 0,11,12
1076 1863 m 0,27,28
 1057 1863 1057 1863 1039 1856 c 0,29,30
 1008 1844 1008 1844 986.5 1814.5 c 128,-1,31
 965 1785 965 1785 965 1754 c 0,32,33
 965 1745 965 1745 967 1738 c 0,34,35
 978 1683 978 1683 1037 1683 c 0,36,37
 1079 1683 1079 1683 1113 1716.5 c 128,-1,38
 1147 1750 1147 1750 1147 1792 c 0,39,40
 1147 1823 1147 1823 1127 1843 c 128,-1,41
 1107 1863 1107 1863 1076 1863 c 0,27,28
EndSplineSet
EndChar

StartChar: AE
Encoding: 198 198 125
Width: 2048
GlyphClass: 3
Flags: W
LayerCount: 2
Fore
SplineSet
1052 438 m 1,0,-1
 500 438 l 1,1,-1
 233 0 l 1,2,-1
 23 0 l 1,3,-1
 953 1493 l 1,4,-1
 2227 1493 l 1,5,-1
 2191 1325 l 1,6,-1
 1433 1325 l 1,7,-1
 1331 848 l 1,8,-1
 2050 848 l 1,9,-1
 2014 680 l 1,10,-1
 1296 680 l 1,11,-1
 1187 168 l 1,12,-1
 1982 168 l 1,13,-1
 1946 0 l 1,14,-1
 959 0 l 1,15,-1
 1052 438 l 1,0,-1
1087 604 m 1,16,-1
 1240 1325 l 1,17,-1
 1036 1325 l 1,18,-1
 600 604 l 1,19,-1
 1087 604 l 1,16,-1
EndSplineSet
EndChar

StartChar: Ccedilla
Encoding: 199 199 126
Width: 1479
GlyphClass: 2
Flags: W
LayerCount: 2
Fore
SplineSet
754 -46 m 1,0,-1
 718 -114 l 1,1,2
 750 -110 750 -110 761 -110 c 0,3,4
 789 -110 789 -110 823 -122 c 0,5,6
 899 -150 899 -150 899 -215 c 0,7,8
 899 -262 899 -262 872 -309.5 c 128,-1,9
 845 -357 845 -357 801 -387 c 0,10,11
 725 -438 725 -438 602 -438 c 0,12,13
 542 -438 542 -438 490 -423 c 128,-1,14
 438 -408 438 -408 359 -368 c 1,15,-1
 416 -291 l 1,16,17
 531 -350 531 -350 609 -350 c 0,18,19
 633 -350 633 -350 654 -344 c 0,20,21
 738 -318 738 -318 738 -237 c 0,22,23
 738 -219 738 -219 719 -205.5 c 128,-1,24
 700 -192 700 -192 675 -192 c 0,25,26
 665 -192 665 -192 634 -198 c 0,27,28
 631 -199 631 -199 619 -200 c 1,29,-1
 593 -188 l 1,30,-1
 672 -43 l 1,31,32
 569 -27 569 -27 513 -4.5 c 128,-1,33
 457 18 457 18 402 67 c 0,34,35
 229 222 229 222 229 496 c 0,36,37
 229 708 229 708 314 924 c 0,38,39
 397 1135 397 1135 540 1284 c 0,40,41
 765 1518 765 1518 1089 1518 c 0,42,43
 1184 1518 1184 1518 1267 1493 c 0,44,45
 1404 1453 1404 1453 1490 1331 c 0,46,47
 1566 1223 1566 1223 1577 1030 c 1,48,-1
 1380 1030 l 1,49,50
 1370 1172 1370 1172 1307 1254 c 0,51,52
 1232 1352 1232 1352 1055 1352 c 0,53,54
 776 1352 776 1352 593 1079 c 0,55,56
 514 962 514 962 470 817.5 c 128,-1,57
 426 673 426 673 426 532 c 0,58,59
 426 393 426 393 483 287 c 0,60,61
 525 210 525 210 608 164 c 0,62,63
 689 119 689 119 780 119 c 0,64,65
 901 119 901 119 1010 172 c 128,-1,66
 1119 225 1119 225 1184 317 c 0,67,68
 1234 385 1234 385 1304 545 c 1,69,-1
 1505 545 l 1,70,71
 1378 241 1378 241 1216 109 c 0,72,73
 1027 -45 1027 -45 754 -46 c 1,0,-1
EndSplineSet
EndChar

StartChar: Egrave
Encoding: 200 200 127
Width: 1366
GlyphClass: 2
Flags: W
LayerCount: 2
Fore
SplineSet
1016 1923 m 1,0,-1
 1161 1620 l 1,1,-1
 1052 1620 l 1,2,-1
 796 1923 l 1,3,-1
 1016 1923 l 1,0,-1
521 680 m 1,4,-1
 412 168 l 1,5,-1
 1290 168 l 1,6,-1
 1255 0 l 1,7,-1
 184 0 l 1,8,-1
 501 1493 l 1,9,-1
 1538 1493 l 1,10,-1
 1503 1325 l 1,11,-1
 658 1325 l 1,12,-1
 557 848 l 1,13,-1
 1368 848 l 1,14,-1
 1331 680 l 1,15,-1
 521 680 l 1,4,-1
EndSplineSet
EndChar

StartChar: Eacute
Encoding: 201 201 128
Width: 1366
GlyphClass: 2
Flags: W
LayerCount: 2
Fore
SplineSet
1192 1923 m 1,0,-1
 1421 1923 l 1,1,-1
 1054 1620 l 1,2,-1
 929 1620 l 1,3,-1
 1192 1923 l 1,0,-1
521 680 m 1,4,-1
 412 168 l 1,5,-1
 1290 168 l 1,6,-1
 1255 0 l 1,7,-1
 184 0 l 1,8,-1
 501 1493 l 1,9,-1
 1538 1493 l 1,10,-1
 1503 1325 l 1,11,-1
 658 1325 l 1,12,-1
 557 848 l 1,13,-1
 1368 848 l 1,14,-1
 1331 680 l 1,15,-1
 521 680 l 1,4,-1
EndSplineSet
EndChar

StartChar: Ecircumflex
Encoding: 202 202 129
Width: 1366
GlyphClass: 2
Flags: W
LayerCount: 2
Fore
SplineSet
1013 1925 m 1,0,-1
 1208 1925 l 1,1,-1
 1339 1618 l 1,2,-1
 1210 1618 l 1,3,-1
 1095 1821 l 1,4,-1
 882 1618 l 1,5,-1
 751 1618 l 1,6,-1
 1013 1925 l 1,0,-1
521 680 m 1,7,-1
 412 168 l 1,8,-1
 1290 168 l 1,9,-1
 1255 0 l 1,10,-1
 184 0 l 1,11,-1
 501 1493 l 1,12,-1
 1538 1493 l 1,13,-1
 1503 1325 l 1,14,-1
 658 1325 l 1,15,-1
 557 848 l 1,16,-1
 1368 848 l 1,17,-1
 1331 680 l 1,18,-1
 521 680 l 1,7,-1
EndSplineSet
EndChar

StartChar: Edieresis
Encoding: 203 203 130
Width: 1366
GlyphClass: 2
Flags: W
LayerCount: 2
Fore
SplineSet
1034 1871 m 1,0,-1
 989 1660 l 1,1,-1
 776 1660 l 1,2,-1
 821 1871 l 1,3,-1
 1034 1871 l 1,0,-1
1364 1871 m 1,4,-1
 1319 1660 l 1,5,-1
 1106 1660 l 1,6,-1
 1151 1871 l 1,7,-1
 1364 1871 l 1,4,-1
521 680 m 1,8,-1
 412 168 l 1,9,-1
 1290 168 l 1,10,-1
 1255 0 l 1,11,-1
 184 0 l 1,12,-1
 501 1493 l 1,13,-1
 1538 1493 l 1,14,-1
 1503 1325 l 1,15,-1
 658 1325 l 1,16,-1
 557 848 l 1,17,-1
 1368 848 l 1,18,-1
 1331 680 l 1,19,-1
 521 680 l 1,8,-1
EndSplineSet
EndChar

StartChar: Igrave
Encoding: 204 204 131
Width: 569
GlyphClass: 2
Flags: W
LayerCount: 2
Fore
SplineSet
715 1493 m 1,0,-1
 398 0 l 1,1,-1
 205 0 l 1,2,-1
 522 1493 l 1,3,-1
 715 1493 l 1,0,-1
628 1923 m 1,4,-1
 774 1620 l 1,5,-1
 665 1620 l 1,6,-1
 410 1923 l 1,7,-1
 628 1923 l 1,4,-1
EndSplineSet
EndChar

StartChar: Iacute
Encoding: 205 205 132
Width: 569
GlyphClass: 2
Flags: W
LayerCount: 2
Fore
SplineSet
715 1493 m 1,0,-1
 398 0 l 1,1,-1
 205 0 l 1,2,-1
 522 1493 l 1,3,-1
 715 1493 l 1,0,-1
752 1923 m 1,4,-1
 981 1923 l 1,5,-1
 613 1620 l 1,6,-1
 490 1620 l 1,7,-1
 752 1923 l 1,4,-1
EndSplineSet
EndChar

StartChar: Icircumflex
Encoding: 206 206 133
Width: 569
GlyphClass: 2
Flags: W
LayerCount: 2
Fore
SplineSet
715 1493 m 1,0,-1
 398 0 l 1,1,-1
 205 0 l 1,2,-1
 522 1493 l 1,3,-1
 715 1493 l 1,0,-1
604 1925 m 1,4,-1
 799 1925 l 1,5,-1
 930 1618 l 1,6,-1
 801 1618 l 1,7,-1
 686 1821 l 1,8,-1
 473 1618 l 1,9,-1
 342 1618 l 1,10,-1
 604 1925 l 1,4,-1
EndSplineSet
EndChar

StartChar: Idieresis
Encoding: 207 207 134
Width: 569
GlyphClass: 2
Flags: W
LayerCount: 2
Fore
SplineSet
715 1493 m 1,0,-1
 398 0 l 1,1,-1
 205 0 l 1,2,-1
 522 1493 l 1,3,-1
 715 1493 l 1,0,-1
627 1858 m 1,4,-1
 582 1647 l 1,5,-1
 369 1647 l 1,6,-1
 414 1858 l 1,7,-1
 627 1858 l 1,4,-1
957 1858 m 1,8,-1
 912 1647 l 1,9,-1
 699 1647 l 1,10,-1
 744 1858 l 1,11,-1
 957 1858 l 1,8,-1
EndSplineSet
EndChar

StartChar: Ntilde
Encoding: 209 209 135
Width: 1479
GlyphClass: 2
Flags: W
LayerCount: 2
Fore
SplineSet
1641 1493 m 1,0,-1
 1323 0 l 1,1,-1
 1107 0 l 1,2,-1
 596 1211 l 1,3,-1
 338 0 l 1,4,-1
 156 0 l 1,5,-1
 473 1493 l 1,6,-1
 685 1493 l 1,7,-1
 1198 269 l 1,8,-1
 1458 1493 l 1,9,-1
 1641 1493 l 1,0,-1
1480 1880 m 1,10,11
 1448 1782 1448 1782 1387.5 1722.5 c 128,-1,12
 1327 1663 1327 1663 1259 1663 c 0,13,14
 1205 1663 1205 1663 1047 1716 c 0,15,16
 1012 1728 1012 1728 992 1728 c 0,17,18
 980 1728 980 1728 966 1725 c 0,19,20
 930 1716 930 1716 904 1679 c 0,21,22
 900 1673 900 1673 891 1660 c 1,23,-1
 781 1660 l 1,24,25
 814 1755 814 1755 847 1797 c 0,26,27
 872 1829 872 1829 913.5 1849.5 c 128,-1,28
 955 1870 955 1870 995 1870 c 0,29,30
 1041 1870 1041 1870 1144 1836 c 0,31,32
 1236 1805 1236 1805 1273 1805 c 0,33,34
 1307 1805 1307 1805 1331 1827 c 0,35,36
 1347 1842 1347 1842 1370 1880 c 1,37,-1
 1480 1880 l 1,10,11
EndSplineSet
EndChar

StartChar: Ograve
Encoding: 210 210 136
Width: 1593
GlyphClass: 2
Flags: W
LayerCount: 2
Fore
SplineSet
1102 1923 m 1,0,-1
 1249 1620 l 1,1,-1
 1139 1620 l 1,2,-1
 884 1923 l 1,3,-1
 1102 1923 l 1,0,-1
1099 1518 m 0,4,5
 1230 1518 1230 1518 1344 1481 c 0,6,7
 1537 1418 1537 1418 1622 1259 c 0,8,9
 1696 1122 1696 1122 1696 951 c 0,10,11
 1696 658 1696 658 1544 395 c 0,12,13
 1290 -47 1290 -47 801 -47 c 0,14,15
 621 -47 621 -47 479 27 c 0,16,17
 336 101 336 101 271 245 c 0,18,19
 213 374 213 374 213 539 c 0,20,21
 213 679 213 679 252 815 c 0,22,23
 350 1160 350 1160 619 1360 c 0,24,25
 830 1518 830 1518 1099 1518 c 0,4,5
1075 1352 m 0,26,27
 974 1352 974 1352 879 1317 c 0,28,29
 655 1235 655 1235 529 1008 c 0,30,31
 410 794 410 794 410 556 c 0,32,33
 410 508 410 508 416 463 c 0,34,35
 441 278 441 278 580 189 c 0,36,37
 691 119 691 119 828 119 c 0,38,39
 933 119 933 119 1030 154 c 0,40,41
 1253 233 1253 233 1380 463 c 0,42,43
 1499 677 1499 677 1499 915 c 0,44,45
 1499 1096 1499 1096 1415 1204 c 0,46,47
 1357 1280 1357 1280 1260 1317 c 0,48,49
 1169 1352 1169 1352 1075 1352 c 0,26,27
EndSplineSet
EndChar

StartChar: Oacute
Encoding: 211 211 137
Width: 1593
GlyphClass: 2
Flags: W
LayerCount: 2
Fore
SplineSet
1272 1923 m 1,0,-1
 1502 1923 l 1,1,-1
 1133 1620 l 1,2,-1
 1010 1620 l 1,3,-1
 1272 1923 l 1,0,-1
1099 1518 m 0,4,5
 1230 1518 1230 1518 1344 1481 c 0,6,7
 1537 1418 1537 1418 1622 1259 c 0,8,9
 1696 1122 1696 1122 1696 951 c 0,10,11
 1696 658 1696 658 1544 395 c 0,12,13
 1290 -47 1290 -47 801 -47 c 0,14,15
 621 -47 621 -47 479 27 c 0,16,17
 336 101 336 101 271 245 c 0,18,19
 213 374 213 374 213 539 c 0,20,21
 213 679 213 679 252 815 c 0,22,23
 350 1160 350 1160 619 1360 c 0,24,25
 830 1518 830 1518 1099 1518 c 0,4,5
1075 1352 m 0,26,27
 974 1352 974 1352 879 1317 c 0,28,29
 655 1235 655 1235 529 1008 c 0,30,31
 410 794 410 794 410 556 c 0,32,33
 410 508 410 508 416 463 c 0,34,35
 441 278 441 278 580 189 c 0,36,37
 691 119 691 119 828 119 c 0,38,39
 933 119 933 119 1030 154 c 0,40,41
 1253 233 1253 233 1380 463 c 0,42,43
 1499 677 1499 677 1499 915 c 0,44,45
 1499 1096 1499 1096 1415 1204 c 0,46,47
 1357 1280 1357 1280 1260 1317 c 0,48,49
 1169 1352 1169 1352 1075 1352 c 0,26,27
EndSplineSet
EndChar

StartChar: Ocircumflex
Encoding: 212 212 138
Width: 1593
GlyphClass: 2
Flags: W
LayerCount: 2
Fore
SplineSet
1101 1925 m 1,0,-1
 1294 1925 l 1,1,-1
 1427 1618 l 1,2,-1
 1296 1618 l 1,3,-1
 1181 1821 l 1,4,-1
 970 1618 l 1,5,-1
 839 1618 l 1,6,-1
 1101 1925 l 1,0,-1
1099 1518 m 0,7,8
 1230 1518 1230 1518 1344 1481 c 0,9,10
 1537 1418 1537 1418 1622 1259 c 0,11,12
 1696 1122 1696 1122 1696 951 c 0,13,14
 1696 658 1696 658 1544 395 c 0,15,16
 1290 -47 1290 -47 801 -47 c 0,17,18
 621 -47 621 -47 479 27 c 0,19,20
 336 101 336 101 271 245 c 0,21,22
 213 374 213 374 213 539 c 0,23,24
 213 679 213 679 252 815 c 0,25,26
 350 1160 350 1160 619 1360 c 0,27,28
 830 1518 830 1518 1099 1518 c 0,7,8
1075 1352 m 0,29,30
 974 1352 974 1352 879 1317 c 0,31,32
 655 1235 655 1235 529 1008 c 0,33,34
 410 794 410 794 410 556 c 0,35,36
 410 508 410 508 416 463 c 0,37,38
 441 278 441 278 580 189 c 0,39,40
 691 119 691 119 828 119 c 0,41,42
 933 119 933 119 1030 154 c 0,43,44
 1253 233 1253 233 1380 463 c 0,45,46
 1499 677 1499 677 1499 915 c 0,47,48
 1499 1096 1499 1096 1415 1204 c 0,49,50
 1357 1280 1357 1280 1260 1317 c 0,51,52
 1169 1352 1169 1352 1075 1352 c 0,29,30
EndSplineSet
EndChar

StartChar: Otilde
Encoding: 213 213 139
Width: 1593
GlyphClass: 2
Flags: W
LayerCount: 2
Fore
SplineSet
1099 1518 m 0,0,1
 1230 1518 1230 1518 1344 1481 c 0,2,3
 1537 1418 1537 1418 1622 1259 c 0,4,5
 1696 1122 1696 1122 1696 951 c 0,6,7
 1696 658 1696 658 1544 395 c 0,8,9
 1290 -47 1290 -47 801 -47 c 0,10,11
 621 -47 621 -47 479 27 c 0,12,13
 336 101 336 101 271 245 c 0,14,15
 213 374 213 374 213 539 c 0,16,17
 213 679 213 679 252 815 c 0,18,19
 350 1160 350 1160 619 1360 c 0,20,21
 830 1518 830 1518 1099 1518 c 0,0,1
1075 1352 m 0,22,23
 974 1352 974 1352 879 1317 c 0,24,25
 655 1235 655 1235 529 1008 c 0,26,27
 410 794 410 794 410 556 c 0,28,29
 410 508 410 508 416 463 c 0,30,31
 441 278 441 278 580 189 c 0,32,33
 691 119 691 119 828 119 c 0,34,35
 933 119 933 119 1030 154 c 0,36,37
 1253 233 1253 233 1380 463 c 0,38,39
 1499 677 1499 677 1499 915 c 0,40,41
 1499 1096 1499 1096 1415 1204 c 0,42,43
 1357 1280 1357 1280 1260 1317 c 0,44,45
 1169 1352 1169 1352 1075 1352 c 0,22,23
1529 1880 m 1,46,47
 1498 1782 1498 1782 1437 1722.5 c 128,-1,48
 1376 1663 1376 1663 1308 1663 c 0,49,50
 1255 1663 1255 1663 1096 1716 c 0,51,52
 1061 1728 1061 1728 1041 1728 c 0,53,54
 1029 1728 1029 1728 1015 1725 c 0,55,56
 979 1716 979 1716 953 1679 c 0,57,58
 949 1673 949 1673 940 1660 c 1,59,-1
 831 1660 l 1,60,61
 864 1756 864 1756 896 1797 c 0,62,63
 921 1829 921 1829 962.5 1849.5 c 128,-1,64
 1004 1870 1004 1870 1044 1870 c 0,65,66
 1090 1870 1090 1870 1193 1836 c 0,67,68
 1285 1805 1285 1805 1322 1805 c 0,69,70
 1356 1805 1356 1805 1380 1827 c 0,71,72
 1396 1842 1396 1842 1420 1880 c 1,73,-1
 1529 1880 l 1,46,47
EndSplineSet
EndChar

StartChar: Odieresis
Encoding: 214 214 140
Width: 1593
GlyphClass: 2
Flags: W
LayerCount: 2
Fore
SplineSet
1127 1871 m 1,0,-1
 1080 1660 l 1,1,-1
 869 1660 l 1,2,-1
 914 1871 l 1,3,-1
 1127 1871 l 1,0,-1
1457 1871 m 1,4,-1
 1410 1660 l 1,5,-1
 1199 1660 l 1,6,-1
 1244 1871 l 1,7,-1
 1457 1871 l 1,4,-1
1099 1518 m 0,8,9
 1230 1518 1230 1518 1344 1481 c 0,10,11
 1537 1418 1537 1418 1622 1259 c 0,12,13
 1696 1122 1696 1122 1696 951 c 0,14,15
 1696 658 1696 658 1544 395 c 0,16,17
 1290 -47 1290 -47 801 -47 c 0,18,19
 621 -47 621 -47 479 27 c 0,20,21
 336 101 336 101 271 245 c 0,22,23
 213 374 213 374 213 539 c 0,24,25
 213 679 213 679 252 815 c 0,26,27
 350 1160 350 1160 619 1360 c 0,28,29
 830 1518 830 1518 1099 1518 c 0,8,9
1075 1352 m 0,30,31
 974 1352 974 1352 879 1317 c 0,32,33
 655 1235 655 1235 529 1008 c 0,34,35
 410 794 410 794 410 556 c 0,36,37
 410 508 410 508 416 463 c 0,38,39
 441 278 441 278 580 189 c 0,40,41
 691 119 691 119 828 119 c 0,42,43
 933 119 933 119 1030 154 c 0,44,45
 1253 233 1253 233 1380 463 c 0,46,47
 1499 677 1499 677 1499 915 c 0,48,49
 1499 1096 1499 1096 1415 1204 c 0,50,51
 1357 1280 1357 1280 1260 1317 c 0,52,53
 1169 1352 1169 1352 1075 1352 c 0,30,31
EndSplineSet
EndChar

StartChar: Oslash
Encoding: 216 216 141
Width: 1593
GlyphClass: 2
Flags: W
LayerCount: 2
Fore
SplineSet
259 205 m 1,0,1
 222 268 222 268 201.5 359.5 c 128,-1,2
 181 451 181 451 181 549 c 0,3,4
 181 679 181 679 220 815 c 0,5,6
 281 1029 281 1029 420 1201 c 0,7,8
 677 1518 677 1518 1063 1518 c 0,9,10
 1212 1518 1212 1518 1335 1472 c 128,-1,11
 1458 1426 1458 1426 1526 1346 c 1,12,-1
 1704 1505 l 1,13,-1
 1776 1425 l 1,14,-1
 1588 1255 l 1,15,16
 1663 1122 1663 1122 1663 948 c 0,17,18
 1663 656 1663 656 1511 395 c 0,19,20
 1361 136 1361 136 1127 28 c 0,21,22
 963 -47 963 -47 775 -47 c 0,23,24
 649 -47 649 -47 533 -10 c 0,25,26
 410 29 410 29 324 117 c 1,27,-1
 138 -49 l 1,28,-1
 66 31 l 1,29,-1
 259 205 l 1,0,1
414 344 m 1,30,-1
 1377 1212 l 1,31,32
 1321 1278 1321 1278 1233 1315 c 128,-1,33
 1145 1352 1145 1352 1041 1352 c 0,34,35
 874 1352 874 1352 725 1258 c 0,36,37
 544 1145 544 1145 446 903 c 0,38,39
 378 734 378 734 378 541 c 0,40,41
 378 429 378 429 414 344 c 1,30,-1
1434 1118 m 1,42,-1
 472 252 l 1,43,44
 524 190 524 190 611.5 154.5 c 128,-1,45
 699 119 699 119 801 119 c 0,46,47
 967 119 967 119 1118 213 c 0,48,49
 1299 325 1299 325 1397 568 c 0,50,51
 1466 739 1466 739 1466 906 c 0,52,53
 1466 955 1466 955 1460 1008 c 0,54,55
 1453 1072 1453 1072 1434 1118 c 1,42,-1
EndSplineSet
EndChar

StartChar: Ugrave
Encoding: 217 217 142
Width: 1479
GlyphClass: 2
Flags: W
LayerCount: 2
Fore
SplineSet
1053 1923 m 1,0,-1
 1199 1620 l 1,1,-1
 1090 1620 l 1,2,-1
 835 1923 l 1,3,-1
 1053 1923 l 1,0,-1
1446 1493 m 1,4,-1
 1638 1493 l 1,5,-1
 1415 444 l 2,6,7
 1365 206 1365 206 1163 72 c 0,8,9
 985 -47 985 -47 743 -47 c 0,10,11
 498 -47 498 -47 367 72 c 0,12,13
 317 116 317 116 285.5 185 c 128,-1,14
 254 254 254 254 254 317 c 256,15,16
 254 380 254 380 283 514 c 2,17,-1
 492 1493 l 1,18,-1
 684 1493 l 1,19,-1
 461 444 l 2,20,21
 451 399 451 399 451 355 c 0,22,23
 451 249 451 249 541.5 184 c 128,-1,24
 632 119 632 119 780 119 c 0,25,26
 955 119 955 119 1073 205.5 c 128,-1,27
 1191 292 1191 292 1223 444 c 2,28,-1
 1446 1493 l 1,4,-1
EndSplineSet
EndChar

StartChar: Uacute
Encoding: 218 218 143
Width: 1479
GlyphClass: 2
Flags: W
LayerCount: 2
Fore
SplineSet
1211 1923 m 1,0,-1
 1440 1923 l 1,1,-1
 1072 1620 l 1,2,-1
 949 1620 l 1,3,-1
 1211 1923 l 1,0,-1
1446 1493 m 1,4,-1
 1638 1493 l 1,5,-1
 1415 444 l 2,6,7
 1365 206 1365 206 1163 72 c 0,8,9
 985 -47 985 -47 743 -47 c 0,10,11
 498 -47 498 -47 367 72 c 0,12,13
 317 116 317 116 285.5 185 c 128,-1,14
 254 254 254 254 254 317 c 256,15,16
 254 380 254 380 283 514 c 2,17,-1
 492 1493 l 1,18,-1
 684 1493 l 1,19,-1
 461 444 l 2,20,21
 451 399 451 399 451 355 c 0,22,23
 451 249 451 249 541.5 184 c 128,-1,24
 632 119 632 119 780 119 c 0,25,26
 955 119 955 119 1073 205.5 c 128,-1,27
 1191 292 1191 292 1223 444 c 2,28,-1
 1446 1493 l 1,4,-1
EndSplineSet
EndChar

StartChar: Ucircumflex
Encoding: 219 219 144
Width: 1479
GlyphClass: 2
Flags: W
LayerCount: 2
Fore
SplineSet
1059 1925 m 1,0,-1
 1251 1925 l 1,1,-1
 1384 1618 l 1,2,-1
 1253 1618 l 1,3,-1
 1139 1821 l 1,4,-1
 928 1618 l 1,5,-1
 797 1618 l 1,6,-1
 1059 1925 l 1,0,-1
1446 1493 m 1,7,-1
 1638 1493 l 1,8,-1
 1415 444 l 2,9,10
 1365 206 1365 206 1163 72 c 0,11,12
 985 -47 985 -47 743 -47 c 0,13,14
 498 -47 498 -47 367 72 c 0,15,16
 317 116 317 116 285.5 185 c 128,-1,17
 254 254 254 254 254 317 c 256,18,19
 254 380 254 380 283 514 c 2,20,-1
 492 1493 l 1,21,-1
 684 1493 l 1,22,-1
 461 444 l 2,23,24
 451 399 451 399 451 355 c 0,25,26
 451 249 451 249 541.5 184 c 128,-1,27
 632 119 632 119 780 119 c 0,28,29
 955 119 955 119 1073 205.5 c 128,-1,30
 1191 292 1191 292 1223 444 c 2,31,-1
 1446 1493 l 1,7,-1
EndSplineSet
EndChar

StartChar: Udieresis
Encoding: 220 220 145
Width: 1479
GlyphClass: 2
Flags: W
LayerCount: 2
Fore
SplineSet
1089 1871 m 1,0,-1
 1042 1660 l 1,1,-1
 831 1660 l 1,2,-1
 876 1871 l 1,3,-1
 1089 1871 l 1,0,-1
1419 1871 m 1,4,-1
 1372 1660 l 1,5,-1
 1161 1660 l 1,6,-1
 1206 1871 l 1,7,-1
 1419 1871 l 1,4,-1
1446 1493 m 1,8,-1
 1638 1493 l 1,9,-1
 1415 444 l 2,10,11
 1365 206 1365 206 1163 72 c 0,12,13
 985 -47 985 -47 743 -47 c 0,14,15
 498 -47 498 -47 367 72 c 0,16,17
 317 116 317 116 285.5 185 c 128,-1,18
 254 254 254 254 254 317 c 256,19,20
 254 380 254 380 283 514 c 2,21,-1
 492 1493 l 1,22,-1
 684 1493 l 1,23,-1
 461 444 l 2,24,25
 451 399 451 399 451 355 c 0,26,27
 451 249 451 249 541.5 184 c 128,-1,28
 632 119 632 119 780 119 c 0,29,30
 955 119 955 119 1073 205.5 c 128,-1,31
 1191 292 1191 292 1223 444 c 2,32,-1
 1446 1493 l 1,8,-1
EndSplineSet
EndChar

StartChar: Yacute
Encoding: 221 221 146
Width: 1366
GlyphClass: 2
Flags: W
LayerCount: 2
Fore
SplineSet
1155 1923 m 1,0,-1
 1384 1923 l 1,1,-1
 1016 1620 l 1,2,-1
 893 1620 l 1,3,-1
 1155 1923 l 1,0,-1
917 585 m 1,4,-1
 792 0 l 1,5,-1
 600 0 l 1,6,-1
 724 585 l 1,7,-1
 344 1493 l 1,8,-1
 573 1493 l 1,9,-1
 852 761 l 1,10,-1
 1443 1493 l 1,11,-1
 1671 1493 l 1,12,-1
 917 585 l 1,4,-1
EndSplineSet
EndChar

StartChar: germandbls
Encoding: 223 223 147
Width: 1251
GlyphClass: 3
Flags: W
LayerCount: 2
Fore
SplineSet
707 715 m 1,0,-1
 743 884 l 1,1,2
 886 886 886 886 980 935 c 0,3,4
 1050 971 1050 971 1089.5 1029 c 128,-1,5
 1129 1087 1129 1087 1129 1153 c 0,6,7
 1129 1235 1129 1235 1063.5 1284 c 128,-1,8
 998 1333 998 1333 889 1333 c 0,9,10
 755 1333 755 1333 662.5 1270.5 c 128,-1,11
 570 1208 570 1208 547 1103 c 2,12,-1
 313 0 l 1,13,-1
 143 0 l 1,14,-1
 377 1103 l 2,15,16
 417 1287 417 1287 554 1380 c 0,17,18
 722 1493 722 1493 937 1493 c 0,19,20
 1029 1493 1029 1493 1111 1466 c 0,21,22
 1241 1424 1241 1424 1290 1315 c 0,23,24
 1313 1263 1313 1263 1313 1200 c 0,25,26
 1313 920 1313 920 983 820 c 1,27,28
 1243 739 1243 739 1243 541 c 0,29,30
 1243 452 1243 452 1204 350 c 128,-1,31
 1165 248 1165 248 1102 173 c 0,32,33
 924 -41 924 -41 619 -41 c 0,34,35
 576 -41 576 -41 543 -36 c 0,36,37
 536 -35 536 -35 523 -33 c 1,38,-1
 557 127 l 1,39,-1
 641 127 l 2,40,41
 851 127 851 127 976 278 c 0,42,43
 1059 379 1059 379 1059 507 c 0,44,45
 1059 537 1059 537 1053 564 c 0,46,47
 1034 646 1034 646 962 681 c 128,-1,48
 890 716 890 716 739 716 c 0,49,50
 732 716 732 716 707 715 c 1,0,-1
EndSplineSet
EndChar

StartChar: agrave
Encoding: 224 224 148
Width: 1139
GlyphClass: 2
Flags: W
LayerCount: 2
Fore
SplineSet
924 529 m 1,0,1
 858 506 858 506 817.5 498 c 128,-1,2
 777 490 777 490 623 469 c 0,3,4
 483 450 483 450 414 408 c 0,5,6
 313 346 313 346 313 235 c 0,7,8
 313 185 313 185 342 151 c 0,9,10
 385 100 385 100 495 100 c 0,11,12
 630 100 630 100 749 171 c 0,13,14
 800 202 800 202 836.5 247 c 128,-1,15
 873 292 873 292 882 336 c 2,16,-1
 924 529 l 1,0,1
1130 105 m 1,17,-1
 1104 -28 l 1,18,19
 1085 -32 1085 -32 1075 -35 c 0,20,21
 1022 -47 1022 -47 995 -47 c 0,22,23
 922 -47 922 -47 880.5 -11.5 c 128,-1,24
 839 24 839 24 839 88 c 2,25,-1
 839 111 l 1,26,27
 775 55 775 55 741.5 33 c 128,-1,28
 708 11 708 11 660 -6 c 0,29,30
 542 -47 542 -47 427 -47 c 0,31,32
 354 -47 354 -47 291 -24 c 0,33,34
 215 2 215 2 174 66 c 0,35,36
 133 128 133 128 133 214 c 0,37,38
 133 304 133 304 177 382 c 128,-1,39
 221 460 221 460 301 510 c 0,40,41
 376 558 376 558 466 579 c 128,-1,42
 556 600 556 600 762 619 c 0,43,44
 875 629 875 629 914 653 c 0,45,46
 958 679 958 679 968 740 c 2,47,-1
 975 776 l 2,48,49
 979 801 979 801 979 816 c 0,50,51
 979 842 979 842 965 864 c 0,52,53
 941 902 941 902 886 924 c 128,-1,54
 831 946 831 946 762 946 c 0,55,56
 695 946 695 946 636 925.5 c 128,-1,57
 577 905 577 905 543 871 c 0,58,59
 505 832 505 832 481 756 c 1,60,-1
 309 756 l 1,61,62
 332 889 332 889 419 978 c 0,63,64
 544 1104 544 1104 807 1104 c 0,65,66
 885 1104 885 1104 956 1088 c 0,67,68
 1049 1066 1049 1066 1106 1007 c 128,-1,69
 1163 948 1163 948 1163 873 c 0,70,71
 1163 852 1163 852 1151 797 c 2,72,-1
 1020 180 l 2,73,74
 1018 172 1018 172 1018 159 c 0,75,76
 1018 101 1018 101 1095 101 c 0,77,78
 1105 101 1105 101 1118 103 c 0,79,80
 1122 103 1122 103 1130 105 c 1,17,-1
803 1516 m 1,81,-1
 948 1212 l 1,82,-1
 839 1212 l 1,83,-1
 584 1516 l 1,84,-1
 803 1516 l 1,81,-1
EndSplineSet
EndChar

StartChar: aacute
Encoding: 225 225 149
Width: 1139
GlyphClass: 2
Flags: W
LayerCount: 2
Fore
SplineSet
924 529 m 1,0,1
 858 506 858 506 817.5 498 c 128,-1,2
 777 490 777 490 623 469 c 0,3,4
 483 450 483 450 414 408 c 0,5,6
 313 346 313 346 313 235 c 0,7,8
 313 185 313 185 342 151 c 0,9,10
 385 100 385 100 495 100 c 0,11,12
 630 100 630 100 749 171 c 0,13,14
 800 202 800 202 836.5 247 c 128,-1,15
 873 292 873 292 882 336 c 2,16,-1
 924 529 l 1,0,1
1130 105 m 1,17,-1
 1104 -28 l 1,18,19
 1085 -32 1085 -32 1075 -35 c 0,20,21
 1022 -47 1022 -47 995 -47 c 0,22,23
 922 -47 922 -47 880.5 -11.5 c 128,-1,24
 839 24 839 24 839 88 c 2,25,-1
 839 111 l 1,26,27
 775 55 775 55 741.5 33 c 128,-1,28
 708 11 708 11 660 -6 c 0,29,30
 542 -47 542 -47 427 -47 c 0,31,32
 354 -47 354 -47 291 -24 c 0,33,34
 215 2 215 2 174 66 c 0,35,36
 133 128 133 128 133 214 c 0,37,38
 133 304 133 304 177 382 c 128,-1,39
 221 460 221 460 301 510 c 0,40,41
 376 558 376 558 466 579 c 128,-1,42
 556 600 556 600 762 619 c 0,43,44
 875 629 875 629 914 653 c 0,45,46
 958 679 958 679 968 740 c 2,47,-1
 975 776 l 2,48,49
 979 801 979 801 979 816 c 0,50,51
 979 842 979 842 965 864 c 0,52,53
 941 902 941 902 886 924 c 128,-1,54
 831 946 831 946 762 946 c 0,55,56
 695 946 695 946 636 925.5 c 128,-1,57
 577 905 577 905 543 871 c 0,58,59
 505 832 505 832 481 756 c 1,60,-1
 309 756 l 1,61,62
 332 889 332 889 419 978 c 0,63,64
 544 1104 544 1104 807 1104 c 0,65,66
 977 1104 977 1104 1075 1034 c 0,67,68
 1163 972 1163 972 1163 873 c 0,69,70
 1163 851 1163 851 1151 797 c 2,71,-1
 1020 180 l 2,72,73
 1018 172 1018 172 1018 159 c 0,74,75
 1018 101 1018 101 1095 101 c 0,76,77
 1105 101 1105 101 1118 103 c 0,78,79
 1122 103 1122 103 1130 105 c 1,17,-1
938 1516 m 1,80,-1
 1167 1516 l 1,81,-1
 799 1212 l 1,82,-1
 676 1212 l 1,83,-1
 938 1516 l 1,80,-1
EndSplineSet
EndChar

StartChar: acircumflex
Encoding: 226 226 150
Width: 1139
GlyphClass: 2
Flags: W
LayerCount: 2
Fore
SplineSet
924 529 m 1,0,1
 858 506 858 506 817.5 498 c 128,-1,2
 777 490 777 490 623 469 c 0,3,4
 483 450 483 450 414 408 c 0,5,6
 313 346 313 346 313 235 c 0,7,8
 313 185 313 185 342 151 c 0,9,10
 385 100 385 100 495 100 c 0,11,12
 630 100 630 100 749 171 c 0,13,14
 800 202 800 202 836.5 247 c 128,-1,15
 873 292 873 292 882 336 c 2,16,-1
 924 529 l 1,0,1
1130 105 m 1,17,-1
 1104 -28 l 1,18,19
 1085 -32 1085 -32 1075 -35 c 0,20,21
 1022 -47 1022 -47 995 -47 c 0,22,23
 922 -47 922 -47 880.5 -11.5 c 128,-1,24
 839 24 839 24 839 88 c 2,25,-1
 839 111 l 1,26,27
 775 55 775 55 741.5 33 c 128,-1,28
 708 11 708 11 660 -6 c 0,29,30
 542 -47 542 -47 427 -47 c 0,31,32
 354 -47 354 -47 291 -24 c 0,33,34
 215 2 215 2 174 66 c 0,35,36
 133 128 133 128 133 214 c 0,37,38
 133 304 133 304 177 382 c 128,-1,39
 221 460 221 460 301 510 c 0,40,41
 376 558 376 558 466 579 c 128,-1,42
 556 600 556 600 762 619 c 0,43,44
 875 629 875 629 914 653 c 0,45,46
 958 679 958 679 968 740 c 2,47,-1
 975 776 l 2,48,49
 979 801 979 801 979 816 c 0,50,51
 979 842 979 842 965 864 c 0,52,53
 941 902 941 902 886 924 c 128,-1,54
 831 946 831 946 762 946 c 0,55,56
 695 946 695 946 636 925.5 c 128,-1,57
 577 905 577 905 543 871 c 0,58,59
 505 832 505 832 481 756 c 1,60,-1
 309 756 l 1,61,62
 332 889 332 889 419 978 c 0,63,64
 544 1104 544 1104 807 1104 c 0,65,66
 885 1104 885 1104 956 1088 c 0,67,68
 1049 1066 1049 1066 1106 1007 c 128,-1,69
 1163 948 1163 948 1163 873 c 0,70,71
 1163 852 1163 852 1151 797 c 2,72,-1
 1020 180 l 2,73,74
 1018 172 1018 172 1018 159 c 0,75,76
 1018 101 1018 101 1095 101 c 0,77,78
 1105 101 1105 101 1118 103 c 0,79,80
 1122 103 1122 103 1130 105 c 1,17,-1
805 1518 m 1,81,-1
 999 1518 l 1,82,-1
 1130 1210 l 1,83,-1
 1001 1210 l 1,84,-1
 887 1413 l 1,85,-1
 674 1210 l 1,86,-1
 543 1210 l 1,87,-1
 805 1518 l 1,81,-1
EndSplineSet
EndChar

StartChar: atilde
Encoding: 227 227 151
Width: 1139
GlyphClass: 2
Flags: W
LayerCount: 2
Fore
SplineSet
924 529 m 1,0,1
 858 506 858 506 817 498 c 128,-1,2
 776 490 776 490 623 469 c 0,3,4
 483 450 483 450 414 408 c 0,5,6
 313 347 313 347 313 236 c 0,7,8
 313 100 313 100 495 100 c 0,9,10
 630 100 630 100 749 171 c 0,11,12
 800 202 800 202 836.5 247 c 128,-1,13
 873 292 873 292 882 336 c 2,14,-1
 924 529 l 1,0,1
1130 105 m 1,15,-1
 1104 -28 l 1,16,17
 1085 -32 1085 -32 1075 -35 c 0,18,19
 1022 -47 1022 -47 995 -47 c 0,20,21
 922 -47 922 -47 880.5 -11.5 c 128,-1,22
 839 24 839 24 839 88 c 2,23,-1
 839 111 l 1,24,25
 775 55 775 55 741 33 c 128,-1,26
 707 11 707 11 660 -6 c 0,27,28
 542 -47 542 -47 427 -47 c 0,29,30
 354 -47 354 -47 291 -24 c 0,31,32
 215 2 215 2 174 66 c 0,33,34
 133 128 133 128 133 214 c 0,35,36
 133 304 133 304 177 382 c 128,-1,37
 221 460 221 460 301 510 c 0,38,39
 376 558 376 558 466 579 c 128,-1,40
 556 600 556 600 761 619 c 0,41,42
 875 629 875 629 914 653 c 0,43,44
 958 679 958 679 968 740 c 2,45,-1
 975 776 l 2,46,47
 979 801 979 801 979 815 c 0,48,49
 979 842 979 842 965 864 c 0,50,51
 941 902 941 902 886 924 c 128,-1,52
 831 946 831 946 762 946 c 0,53,54
 723 946 723 946 682 938 c 0,55,56
 597 921 597 921 552.5 880.5 c 128,-1,57
 508 840 508 840 481 756 c 1,58,-1
 309 756 l 1,59,60
 332 889 332 889 419 978 c 0,61,62
 544 1104 544 1104 807 1104 c 0,63,64
 976 1104 976 1104 1075 1034 c 0,65,66
 1163 972 1163 972 1163 872 c 0,67,68
 1163 850 1163 850 1159 834 c 2,69,-1
 1020 180 l 2,70,71
 1018 172 1018 172 1018 159 c 0,72,73
 1018 101 1018 101 1095 101 c 0,74,75
 1105 101 1105 101 1118 103 c 0,76,77
 1122 103 1122 103 1130 105 c 1,15,-1
1194 1472 m 1,78,79
 1163 1375 1163 1375 1102 1315 c 128,-1,80
 1041 1255 1041 1255 973 1255 c 0,81,82
 920 1255 920 1255 762 1308 c 0,83,84
 727 1320 727 1320 707 1320 c 0,85,86
 694 1320 694 1320 680 1317 c 0,87,88
 654 1310 654 1310 643.5 1301 c 128,-1,89
 633 1292 633 1292 605 1252 c 1,90,-1
 496 1252 l 1,91,92
 529 1349 529 1349 561 1389 c 0,93,94
 587 1421 587 1421 628 1441.5 c 128,-1,95
 669 1462 669 1462 709 1462 c 0,96,97
 755 1462 755 1462 858 1428 c 0,98,99
 950 1397 950 1397 987 1397 c 0,100,101
 1021 1397 1021 1397 1045 1419 c 0,102,103
 1062 1434 1062 1434 1085 1472 c 1,104,-1
 1194 1472 l 1,78,79
EndSplineSet
EndChar

StartChar: adieresis
Encoding: 228 228 152
Width: 1139
GlyphClass: 2
Flags: W
LayerCount: 2
Fore
SplineSet
924 529 m 1,0,1
 858 506 858 506 817.5 498 c 128,-1,2
 777 490 777 490 623 469 c 0,3,4
 483 450 483 450 414 408 c 0,5,6
 313 346 313 346 313 235 c 0,7,8
 313 185 313 185 342 151 c 0,9,10
 385 100 385 100 495 100 c 0,11,12
 630 100 630 100 749 171 c 0,13,14
 800 202 800 202 836.5 247 c 128,-1,15
 873 292 873 292 882 336 c 2,16,-1
 924 529 l 1,0,1
1130 105 m 1,17,-1
 1104 -28 l 1,18,19
 1085 -32 1085 -32 1075 -35 c 0,20,21
 1022 -47 1022 -47 995 -47 c 0,22,23
 922 -47 922 -47 880.5 -11.5 c 128,-1,24
 839 24 839 24 839 88 c 2,25,-1
 839 111 l 1,26,27
 775 55 775 55 741.5 33 c 128,-1,28
 708 11 708 11 660 -6 c 0,29,30
 542 -47 542 -47 427 -47 c 0,31,32
 354 -47 354 -47 291 -24 c 0,33,34
 215 2 215 2 174 66 c 0,35,36
 133 128 133 128 133 214 c 0,37,38
 133 304 133 304 177 382 c 128,-1,39
 221 460 221 460 301 510 c 0,40,41
 376 558 376 558 466 579 c 128,-1,42
 556 600 556 600 762 619 c 0,43,44
 875 629 875 629 914 653 c 0,45,46
 958 679 958 679 968 740 c 2,47,-1
 975 776 l 2,48,49
 979 801 979 801 979 816 c 0,50,51
 979 842 979 842 965 864 c 0,52,53
 941 902 941 902 886 924 c 128,-1,54
 831 946 831 946 762 946 c 0,55,56
 695 946 695 946 636 925.5 c 128,-1,57
 577 905 577 905 543 871 c 0,58,59
 505 832 505 832 481 756 c 1,60,-1
 309 756 l 1,61,62
 332 889 332 889 419 978 c 0,63,64
 544 1104 544 1104 807 1104 c 0,65,66
 885 1104 885 1104 956 1088 c 0,67,68
 1049 1066 1049 1066 1106 1007 c 128,-1,69
 1163 948 1163 948 1163 873 c 0,70,71
 1163 852 1163 852 1151 797 c 2,72,-1
 1020 180 l 2,73,74
 1018 172 1018 172 1018 159 c 0,75,76
 1018 101 1018 101 1095 101 c 0,77,78
 1105 101 1105 101 1118 103 c 0,79,80
 1122 103 1122 103 1130 105 c 1,17,-1
825 1464 m 1,81,-1
 780 1253 l 1,82,-1
 567 1253 l 1,83,-1
 612 1464 l 1,84,-1
 825 1464 l 1,81,-1
1155 1464 m 1,85,-1
 1110 1253 l 1,86,-1
 897 1253 l 1,87,-1
 942 1464 l 1,88,-1
 1155 1464 l 1,85,-1
EndSplineSet
EndChar

StartChar: aring
Encoding: 229 229 153
Width: 1139
GlyphClass: 2
Flags: W
LayerCount: 2
Fore
SplineSet
924 529 m 1,0,1
 858 506 858 506 817.5 498 c 128,-1,2
 777 490 777 490 623 469 c 0,3,4
 483 450 483 450 414 408 c 0,5,6
 313 346 313 346 313 235 c 0,7,8
 313 185 313 185 342 151 c 0,9,10
 385 100 385 100 495 100 c 0,11,12
 630 100 630 100 749 171 c 0,13,14
 800 202 800 202 836.5 247 c 128,-1,15
 873 292 873 292 882 336 c 2,16,-1
 924 529 l 1,0,1
888 1456 m 0,17,18
 868 1456 868 1456 851 1449 c 0,19,20
 820 1437 820 1437 798 1407.5 c 128,-1,21
 776 1378 776 1378 776 1347 c 0,22,23
 776 1338 776 1338 778 1330 c 0,24,25
 789 1275 789 1275 848 1275 c 0,26,27
 869 1275 869 1275 884 1282 c 0,28,29
 918 1297 918 1297 938.5 1325 c 128,-1,30
 959 1353 959 1353 959 1384 c 0,31,32
 959 1416 959 1416 939 1436 c 128,-1,33
 919 1456 919 1456 888 1456 c 0,17,18
1130 105 m 1,34,-1
 1104 -28 l 1,35,36
 1085 -32 1085 -32 1075 -35 c 0,37,38
 1022 -47 1022 -47 995 -47 c 0,39,40
 922 -47 922 -47 880.5 -11.5 c 128,-1,41
 839 24 839 24 839 88 c 2,42,-1
 839 111 l 1,43,44
 775 55 775 55 741.5 33 c 128,-1,45
 708 11 708 11 660 -6 c 0,46,47
 542 -47 542 -47 427 -47 c 0,48,49
 354 -47 354 -47 291 -24 c 0,50,51
 215 2 215 2 174 66 c 0,52,53
 133 128 133 128 133 214 c 0,54,55
 133 304 133 304 177 382 c 128,-1,56
 221 460 221 460 301 510 c 0,57,58
 376 558 376 558 466 579 c 128,-1,59
 556 600 556 600 762 619 c 0,60,61
 875 629 875 629 914 653 c 0,62,63
 958 679 958 679 968 740 c 2,64,-1
 975 776 l 2,65,66
 979 801 979 801 979 816 c 0,67,68
 979 842 979 842 965 864 c 0,69,70
 941 902 941 902 886 924 c 128,-1,71
 831 946 831 946 762 946 c 0,72,73
 695 946 695 946 636 925.5 c 128,-1,74
 577 905 577 905 543 871 c 0,75,76
 505 832 505 832 481 756 c 1,77,-1
 309 756 l 1,78,79
 332 889 332 889 419 978 c 0,80,81
 544 1104 544 1104 807 1104 c 0,82,83
 977 1104 977 1104 1075 1034 c 0,84,85
 1163 972 1163 972 1163 873 c 0,86,87
 1163 851 1163 851 1151 797 c 2,88,-1
 1020 180 l 2,89,90
 1018 172 1018 172 1018 159 c 0,91,92
 1018 101 1018 101 1095 101 c 0,93,94
 1105 101 1105 101 1118 103 c 0,95,96
 1122 103 1122 103 1130 105 c 1,34,-1
904 1545 m 0,97,98
 940 1545 940 1545 971 1531 c 0,99,100
 1051 1493 1051 1493 1051 1407 c 0,101,102
 1051 1325 1051 1325 989 1260 c 0,103,104
 918 1186 918 1186 827 1186 c 0,105,106
 765 1186 765 1186 723.5 1227.5 c 128,-1,107
 682 1269 682 1269 682 1330 c 0,108,109
 682 1346 682 1346 686 1365 c 0,110,111
 703 1441 703 1441 766 1492 c 0,112,113
 832 1545 832 1545 904 1545 c 0,97,98
EndSplineSet
EndChar

StartChar: ae
Encoding: 230 230 154
Width: 1821
GlyphClass: 3
Flags: W
LayerCount: 2
Fore
SplineSet
903 528 m 1,0,1
 848 508 848 508 809.5 500.5 c 128,-1,2
 771 493 771 493 611 470 c 0,3,4
 468 449 468 449 402 408 c 0,5,6
 301 346 301 346 301 236 c 0,7,8
 301 100 301 100 486 100 c 0,9,10
 611 100 611 100 730 173 c 0,11,12
 782 204 782 204 817.5 248 c 128,-1,13
 853 292 853 292 862 336 c 2,14,-1
 903 528 l 1,0,1
1688 627 m 1,15,16
 1694 665 1694 665 1694 694 c 0,17,18
 1694 787 1694 787 1649 856 c 0,19,20
 1590 946 1590 946 1460 946 c 0,21,22
 1393 946 1393 946 1332 921 c 0,23,24
 1157 850 1157 850 1086 627 c 1,25,-1
 1688 627 l 1,15,16
1118 971 m 1,26,27
 1188 1033 1188 1033 1287.5 1068.5 c 128,-1,28
 1387 1104 1387 1104 1490 1104 c 0,29,30
 1580 1104 1580 1104 1665 1065 c 0,31,32
 1760 1022 1760 1022 1815 942 c 0,33,34
 1874 856 1874 856 1874 759 c 0,35,36
 1874 667 1874 667 1845 514 c 0,37,38
 1843 503 1843 503 1839 480 c 1,39,-1
 1049 480 l 1,40,41
 1039 431 1039 431 1039 371 c 2,42,-1
 1039 334 l 2,43,44
 1039 290 1039 290 1063 243 c 128,-1,45
 1087 196 1087 196 1127 162 c 0,46,47
 1187 111 1187 111 1295 111 c 0,48,49
 1342 111 1342 111 1385 123 c 0,50,51
 1527 164 1527 164 1612 326 c 1,52,-1
 1784 326 l 1,53,54
 1748 203 1748 203 1650 104 c 0,55,56
 1579 33 1579 33 1477 -7 c 128,-1,57
 1375 -47 1375 -47 1262 -47 c 0,58,59
 1023 -47 1023 -47 905 162 c 1,60,61
 869 127 869 127 810 85 c 128,-1,62
 751 43 751 43 703 19 c 0,63,64
 646 -10 646 -10 564.5 -28.5 c 128,-1,65
 483 -47 483 -47 412 -47 c 256,66,67
 341 -47 341 -47 279 -24 c 0,68,69
 204 3 204 3 162 68 c 0,70,71
 121 131 121 131 121 215 c 0,72,73
 121 257 121 257 131 297 c 0,74,75
 177 478 177 478 382 555 c 0,76,77
 482 593 482 593 744 615 c 0,78,79
 853 624 853 624 894.5 649.5 c 128,-1,80
 936 675 936 675 948 739 c 2,81,-1
 959 791 l 2,82,83
 963 813 963 813 963 830 c 256,84,85
 963 847 963 847 957 862 c 0,86,87
 922 946 922 946 751 946 c 0,88,89
 629 946 629 946 561 901.5 c 128,-1,90
 493 857 493 857 461 756 c 1,91,-1
 289 756 l 1,92,93
 332 914 332 914 398 979 c 0,94,95
 527 1104 527 1104 794 1104 c 0,96,97
 868 1104 868 1104 934 1090 c 0,98,99
 983 1079 983 1079 1007 1066.5 c 128,-1,100
 1031 1054 1031 1054 1084 1010 c 0,101,102
 1111 987 1111 987 1118 971 c 1,26,27
EndSplineSet
EndChar

StartChar: ccedilla
Encoding: 231 231 155
Width: 1024
GlyphClass: 2
Flags: W
LayerCount: 2
Fore
SplineSet
555 -46 m 1,0,-1
 518 -114 l 1,1,2
 551 -110 551 -110 562 -110 c 0,3,4
 590 -110 590 -110 623 -122 c 0,5,6
 699 -151 699 -151 699 -215 c 0,7,8
 699 -263 699 -263 672 -310 c 128,-1,9
 645 -357 645 -357 601 -387 c 0,10,11
 525 -438 525 -438 403 -438 c 0,12,13
 357 -438 357 -438 318 -430 c 0,14,15
 256 -417 256 -417 160 -368 c 1,16,-1
 217 -291 l 1,17,18
 331 -350 331 -350 410 -350 c 0,19,20
 466 -350 466 -350 502.5 -318.5 c 128,-1,21
 539 -287 539 -287 539 -237 c 0,22,23
 539 -219 539 -219 520 -205.5 c 128,-1,24
 501 -192 501 -192 475 -192 c 0,25,26
 465 -192 465 -192 434 -198 c 0,27,28
 431 -199 431 -199 420 -200 c 1,29,-1
 393 -188 l 1,30,-1
 472 -44 l 1,31,32
 399 -31 399 -31 360.5 -14 c 128,-1,33
 322 3 322 3 284 38 c 0,34,35
 224 95 224 95 190 177 c 128,-1,36
 156 259 156 259 156 348 c 0,37,38
 156 507 156 507 215 678 c 0,39,40
 293 904 293 904 457 1011 c 0,41,42
 601 1104 601 1104 781 1104 c 0,43,44
 864 1104 864 1104 930 1081 c 0,45,46
 1037 1045 1037 1045 1096 940 c 0,47,48
 1135 870 1135 870 1135 805 c 0,49,50
 1135 795 1135 795 1131 744 c 0,51,52
 1130 733 1130 733 1129 713 c 1,53,-1
 957 713 l 1,54,55
 959 740 959 740 959 759 c 0,56,57
 959 791 959 791 949 823 c 0,58,59
 910 946 910 946 749 946 c 0,60,61
 687 946 687 946 632 926 c 0,62,63
 493 873 493 873 412 701 c 0,64,65
 336 538 336 538 336 371 c 0,66,67
 336 284 336 284 373 215 c 0,68,69
 430 111 430 111 567 111 c 0,70,71
 794 111 794 111 889 369 c 1,72,-1
 1061 369 l 1,73,74
 1006 171 1006 171 893 74 c 0,75,76
 760 -41 760 -41 555 -46 c 1,0,-1
EndSplineSet
EndChar

StartChar: egrave
Encoding: 232 232 156
Width: 1139
GlyphClass: 2
Flags: W
LayerCount: 2
Fore
SplineSet
786 1516 m 1,0,-1
 933 1212 l 1,1,-1
 824 1212 l 1,2,-1
 569 1516 l 1,3,-1
 786 1516 l 1,0,-1
1153 480 m 1,4,-1
 362 480 l 1,5,6
 352 441 352 441 352 384 c 0,7,8
 352 356 352 356 354 334 c 0,9,10
 364 231 364 231 431.5 171 c 128,-1,11
 499 111 499 111 605 111 c 0,12,13
 814 111 814 111 926 326 c 1,14,-1
 1098 326 l 1,15,16
 1061 201 1061 201 963 104 c 0,17,18
 809 -47 809 -47 578 -47 c 0,19,20
 471 -47 471 -47 393 -10 c 0,21,22
 307 30 307 30 250 113 c 0,23,24
 172 225 172 225 172 354 c 0,25,26
 172 493 172 493 233 666 c 0,27,28
 319 906 319 906 480 1010 c 0,29,30
 626 1104 626 1104 797 1104 c 0,31,32
 894 1104 894 1104 979 1067 c 0,33,34
 1073 1026 1073 1026 1129 941 c 0,35,36
 1188 850 1188 850 1188 753 c 0,37,38
 1188 665 1188 665 1159 514 c 0,39,40
 1157 503 1157 503 1153 480 c 1,4,-1
1001 627 m 1,41,42
 1008 668 1008 668 1008 694 c 0,43,44
 1008 724 1008 724 1002 755 c 0,45,46
 964 946 964 946 770 946 c 0,47,48
 704 946 704 946 644 921 c 0,49,50
 560 886 560 886 493.5 806 c 128,-1,51
 427 726 427 726 399 627 c 1,52,-1
 1001 627 l 1,41,42
EndSplineSet
EndChar

StartChar: eacute
Encoding: 233 233 157
Width: 1139
GlyphClass: 2
Flags: W
LayerCount: 2
Fore
SplineSet
958 1516 m 1,0,-1
 1188 1516 l 1,1,-1
 819 1212 l 1,2,-1
 696 1212 l 1,3,-1
 958 1516 l 1,0,-1
1153 480 m 1,4,-1
 362 480 l 1,5,6
 352 441 352 441 352 384 c 0,7,8
 352 356 352 356 354 334 c 0,9,10
 364 231 364 231 431.5 171 c 128,-1,11
 499 111 499 111 605 111 c 0,12,13
 814 111 814 111 926 326 c 1,14,-1
 1098 326 l 1,15,16
 1061 201 1061 201 963 104 c 0,17,18
 809 -47 809 -47 578 -47 c 0,19,20
 471 -47 471 -47 393 -10 c 0,21,22
 307 30 307 30 250 113 c 0,23,24
 172 225 172 225 172 354 c 0,25,26
 172 493 172 493 233 666 c 0,27,28
 319 906 319 906 480 1010 c 0,29,30
 626 1104 626 1104 797 1104 c 0,31,32
 894 1104 894 1104 979 1067 c 0,33,34
 1073 1026 1073 1026 1129 941 c 0,35,36
 1188 850 1188 850 1188 753 c 0,37,38
 1188 665 1188 665 1159 514 c 0,39,40
 1157 503 1157 503 1153 480 c 1,4,-1
1001 627 m 1,41,42
 1008 668 1008 668 1008 694 c 0,43,44
 1008 724 1008 724 1002 755 c 0,45,46
 964 946 964 946 770 946 c 0,47,48
 704 946 704 946 644 921 c 0,49,50
 560 886 560 886 493.5 806 c 128,-1,51
 427 726 427 726 399 627 c 1,52,-1
 1001 627 l 1,41,42
EndSplineSet
EndChar

StartChar: ecircumflex
Encoding: 234 234 158
Width: 1139
GlyphClass: 2
Flags: W
LayerCount: 2
Fore
SplineSet
797 1518 m 1,0,-1
 989 1518 l 1,1,-1
 1122 1210 l 1,2,-1
 991 1210 l 1,3,-1
 876 1413 l 1,4,-1
 666 1210 l 1,5,-1
 534 1210 l 1,6,-1
 797 1518 l 1,0,-1
1153 480 m 1,7,-1
 362 480 l 1,8,9
 352 441 352 441 352 384 c 0,10,11
 352 356 352 356 354 334 c 0,12,13
 364 231 364 231 431.5 171 c 128,-1,14
 499 111 499 111 605 111 c 0,15,16
 814 111 814 111 926 326 c 1,17,-1
 1098 326 l 1,18,19
 1061 201 1061 201 963 104 c 0,20,21
 809 -47 809 -47 578 -47 c 0,22,23
 471 -47 471 -47 393 -10 c 0,24,25
 307 30 307 30 250 113 c 0,26,27
 172 225 172 225 172 354 c 0,28,29
 172 493 172 493 233 666 c 0,30,31
 319 906 319 906 480 1010 c 0,32,33
 626 1104 626 1104 797 1104 c 0,34,35
 894 1104 894 1104 979 1067 c 0,36,37
 1073 1026 1073 1026 1129 941 c 0,38,39
 1188 850 1188 850 1188 753 c 0,40,41
 1188 665 1188 665 1159 514 c 0,42,43
 1157 503 1157 503 1153 480 c 1,7,-1
1001 627 m 1,44,45
 1008 668 1008 668 1008 694 c 0,46,47
 1008 724 1008 724 1002 755 c 0,48,49
 964 946 964 946 770 946 c 0,50,51
 704 946 704 946 644 921 c 0,52,53
 560 886 560 886 493.5 806 c 128,-1,54
 427 726 427 726 399 627 c 1,55,-1
 1001 627 l 1,44,45
EndSplineSet
EndChar

StartChar: edieresis
Encoding: 235 235 159
Width: 1139
GlyphClass: 2
Flags: W
LayerCount: 2
Fore
SplineSet
819 1464 m 1,0,-1
 772 1253 l 1,1,-1
 561 1253 l 1,2,-1
 606 1464 l 1,3,-1
 819 1464 l 1,0,-1
1149 1464 m 1,4,-1
 1102 1253 l 1,5,-1
 891 1253 l 1,6,-1
 936 1464 l 1,7,-1
 1149 1464 l 1,4,-1
1153 480 m 1,8,-1
 362 480 l 1,9,10
 352 441 352 441 352 384 c 0,11,12
 352 356 352 356 354 334 c 0,13,14
 364 231 364 231 431.5 171 c 128,-1,15
 499 111 499 111 605 111 c 0,16,17
 814 111 814 111 926 326 c 1,18,-1
 1098 326 l 1,19,20
 1061 201 1061 201 963 104 c 0,21,22
 809 -47 809 -47 578 -47 c 0,23,24
 471 -47 471 -47 393 -10 c 0,25,26
 307 30 307 30 250 113 c 0,27,28
 172 225 172 225 172 354 c 0,29,30
 172 493 172 493 233 666 c 0,31,32
 319 906 319 906 480 1010 c 0,33,34
 626 1104 626 1104 797 1104 c 0,35,36
 894 1104 894 1104 979 1067 c 0,37,38
 1073 1026 1073 1026 1129 941 c 0,39,40
 1188 850 1188 850 1188 753 c 0,41,42
 1188 665 1188 665 1159 514 c 0,43,44
 1157 503 1157 503 1153 480 c 1,8,-1
1001 627 m 1,45,46
 1008 668 1008 668 1008 694 c 0,47,48
 1008 724 1008 724 1002 755 c 0,49,50
 964 946 964 946 770 946 c 0,51,52
 704 946 704 946 644 921 c 0,53,54
 560 886 560 886 493.5 806 c 128,-1,55
 427 726 427 726 399 627 c 1,56,-1
 1001 627 l 1,45,46
EndSplineSet
EndChar

StartChar: igrave
Encoding: 236 236 160
Width: 569
GlyphClass: 2
Flags: W
LayerCount: 2
Fore
SplineSet
594 1079 m 1,0,-1
 365 0 l 1,1,-1
 193 0 l 1,2,-1
 422 1079 l 1,3,-1
 594 1079 l 1,0,-1
530 1516 m 1,4,-1
 676 1212 l 1,5,-1
 567 1212 l 1,6,-1
 312 1516 l 1,7,-1
 530 1516 l 1,4,-1
EndSplineSet
EndChar

StartChar: iacute
Encoding: 237 237 161
Width: 569
GlyphClass: 2
Flags: W
LayerCount: 2
Fore
SplineSet
594 1079 m 1,0,-1
 365 0 l 1,1,-1
 193 0 l 1,2,-1
 422 1079 l 1,3,-1
 594 1079 l 1,0,-1
654 1516 m 1,4,-1
 883 1516 l 1,5,-1
 515 1212 l 1,6,-1
 392 1212 l 1,7,-1
 654 1516 l 1,4,-1
EndSplineSet
EndChar

StartChar: icircumflex
Encoding: 238 238 162
Width: 569
GlyphClass: 2
Flags: W
LayerCount: 2
Fore
SplineSet
594 1079 m 1,0,-1
 365 0 l 1,1,-1
 193 0 l 1,2,-1
 422 1079 l 1,3,-1
 594 1079 l 1,0,-1
506 1518 m 1,4,-1
 701 1518 l 1,5,-1
 832 1210 l 1,6,-1
 703 1210 l 1,7,-1
 588 1413 l 1,8,-1
 375 1210 l 1,9,-1
 244 1210 l 1,10,-1
 506 1518 l 1,4,-1
EndSplineSet
EndChar

StartChar: idieresis
Encoding: 239 239 163
Width: 569
GlyphClass: 2
Flags: W
LayerCount: 2
Fore
SplineSet
594 1079 m 1,0,-1
 365 0 l 1,1,-1
 193 0 l 1,2,-1
 422 1079 l 1,3,-1
 594 1079 l 1,0,-1
529 1450 m 1,4,-1
 484 1239 l 1,5,-1
 271 1239 l 1,6,-1
 316 1450 l 1,7,-1
 529 1450 l 1,4,-1
859 1450 m 1,8,-1
 814 1239 l 1,9,-1
 601 1239 l 1,10,-1
 646 1450 l 1,11,-1
 859 1450 l 1,8,-1
EndSplineSet
EndChar

StartChar: ntilde
Encoding: 241 241 164
Width: 1139
GlyphClass: 2
Flags: W
LayerCount: 2
Fore
SplineSet
371 1073 m 1,0,-1
 527 1073 l 1,1,-1
 498 940 l 1,2,3
 661 1104 661 1104 897 1104 c 0,4,5
 1013 1104 1013 1104 1082 1049 c 0,6,7
 1175 976 1175 976 1175 847 c 0,8,9
 1175 808 1175 808 1167 770 c 2,10,-1
 1003 0 l 1,11,-1
 831 0 l 1,12,-1
 983 715 l 2,13,14
 995 770 995 770 995 790 c 0,15,16
 995 862 995 862 944 909.5 c 128,-1,17
 893 957 893 957 816 957 c 0,18,19
 762 957 762 957 708 939 c 0,20,21
 499 866 499 866 441 592 c 2,22,-1
 315 0 l 1,23,-1
 143 0 l 1,24,-1
 371 1073 l 1,0,-1
1205 1472 m 1,25,26
 1174 1374 1174 1374 1113 1314.5 c 128,-1,27
 1052 1255 1052 1255 984 1255 c 0,28,29
 931 1255 931 1255 772 1308 c 0,30,31
 738 1320 738 1320 718 1320 c 0,32,33
 705 1320 705 1320 691 1317 c 0,34,35
 655 1308 655 1308 629 1271 c 0,36,37
 625 1265 625 1265 616 1252 c 1,38,-1
 507 1252 l 1,39,40
 540 1349 540 1349 572 1389 c 0,41,42
 597 1421 597 1421 638.5 1441.5 c 128,-1,43
 680 1462 680 1462 720 1462 c 0,44,45
 766 1462 766 1462 869 1428 c 0,46,47
 961 1397 961 1397 998 1397 c 0,48,49
 1032 1397 1032 1397 1056 1419 c 0,50,51
 1072 1433 1072 1433 1096 1472 c 1,52,-1
 1205 1472 l 1,25,26
EndSplineSet
EndChar

StartChar: ograve
Encoding: 242 242 165
Width: 1139
GlyphClass: 2
Flags: W
LayerCount: 2
Fore
SplineSet
778 1516 m 1,0,-1
 925 1212 l 1,1,-1
 816 1212 l 1,2,-1
 560 1516 l 1,3,-1
 778 1516 l 1,0,-1
786 1104 m 0,4,5
 893 1104 893 1104 975 1067 c 0,6,7
 1062 1028 1062 1028 1114 946 c 0,8,9
 1180 845 1180 845 1180 721 c 0,10,11
 1180 588 1180 588 1134 437.5 c 128,-1,12
 1088 287 1088 287 1018 190 c 0,13,14
 847 -47 847 -47 551 -47 c 0,15,16
 378 -47 378 -47 276 53 c 0,17,18
 164 163 164 163 164 336 c 0,19,20
 164 428 164 428 187 529 c 0,21,22
 248 804 248 804 389 946 c 0,23,24
 468 1026 468 1026 580 1067 c 0,25,26
 680 1104 680 1104 786 1104 c 0,4,5
761 946 m 0,27,28
 679 946 679 946 608 909 c 0,29,30
 476 841 476 841 406 674 c 0,31,32
 344 526 344 526 344 376 c 0,33,34
 344 254 344 254 405 183 c 0,35,36
 468 111 468 111 580 111 c 0,37,38
 666 111 666 111 738 148 c 0,39,40
 866 214 866 214 938 383 c 0,41,42
 1000 530 1000 530 1000 682 c 0,43,44
 1000 753 1000 753 979 809 c 0,45,46
 956 872 956 872 901 907 c 0,47,48
 839 946 839 946 761 946 c 0,27,28
EndSplineSet
EndChar

StartChar: oacute
Encoding: 243 243 166
Width: 1139
GlyphClass: 2
Flags: W
LayerCount: 2
Fore
SplineSet
950 1516 m 1,0,-1
 1180 1516 l 1,1,-1
 811 1212 l 1,2,-1
 688 1212 l 1,3,-1
 950 1516 l 1,0,-1
786 1104 m 0,4,5
 893 1104 893 1104 975 1067 c 0,6,7
 1062 1028 1062 1028 1114 946 c 0,8,9
 1180 845 1180 845 1180 721 c 0,10,11
 1180 588 1180 588 1134 437.5 c 128,-1,12
 1088 287 1088 287 1018 190 c 0,13,14
 847 -47 847 -47 551 -47 c 0,15,16
 378 -47 378 -47 276 53 c 0,17,18
 164 163 164 163 164 336 c 0,19,20
 164 428 164 428 187 529 c 0,21,22
 248 804 248 804 389 946 c 0,23,24
 468 1026 468 1026 580 1067 c 0,25,26
 680 1104 680 1104 786 1104 c 0,4,5
761 946 m 0,27,28
 679 946 679 946 608 909 c 0,29,30
 476 841 476 841 406 674 c 0,31,32
 344 526 344 526 344 376 c 0,33,34
 344 254 344 254 405 183 c 0,35,36
 468 111 468 111 580 111 c 0,37,38
 666 111 666 111 738 148 c 0,39,40
 866 214 866 214 938 383 c 0,41,42
 1000 530 1000 530 1000 682 c 0,43,44
 1000 753 1000 753 979 809 c 0,45,46
 956 872 956 872 901 907 c 0,47,48
 839 946 839 946 761 946 c 0,27,28
EndSplineSet
EndChar

StartChar: ocircumflex
Encoding: 244 244 167
Width: 1139
GlyphClass: 2
Flags: W
LayerCount: 2
Fore
SplineSet
784 1518 m 1,0,-1
 977 1518 l 1,1,-1
 1110 1210 l 1,2,-1
 979 1210 l 1,3,-1
 864 1413 l 1,4,-1
 653 1210 l 1,5,-1
 522 1210 l 1,6,-1
 784 1518 l 1,0,-1
786 1104 m 0,7,8
 893 1104 893 1104 975 1067 c 0,9,10
 1062 1028 1062 1028 1114 946 c 0,11,12
 1180 845 1180 845 1180 721 c 0,13,14
 1180 588 1180 588 1134 437.5 c 128,-1,15
 1088 287 1088 287 1018 190 c 0,16,17
 847 -47 847 -47 551 -47 c 0,18,19
 378 -47 378 -47 276 53 c 0,20,21
 164 163 164 163 164 336 c 0,22,23
 164 428 164 428 187 529 c 0,24,25
 248 804 248 804 389 946 c 0,26,27
 468 1026 468 1026 580 1067 c 0,28,29
 680 1104 680 1104 786 1104 c 0,7,8
761 946 m 0,30,31
 679 946 679 946 608 909 c 0,32,33
 476 841 476 841 406 674 c 0,34,35
 344 526 344 526 344 376 c 0,36,37
 344 254 344 254 405 183 c 0,38,39
 468 111 468 111 580 111 c 0,40,41
 666 111 666 111 738 148 c 0,42,43
 866 214 866 214 938 383 c 0,44,45
 1000 530 1000 530 1000 682 c 0,46,47
 1000 753 1000 753 979 809 c 0,48,49
 956 872 956 872 901 907 c 0,50,51
 839 946 839 946 761 946 c 0,30,31
EndSplineSet
EndChar

StartChar: otilde
Encoding: 245 245 168
Width: 1139
GlyphClass: 2
Flags: W
LayerCount: 2
Fore
SplineSet
786 1104 m 0,0,1
 893 1104 893 1104 975 1067 c 0,2,3
 1062 1028 1062 1028 1115 946 c 0,4,5
 1180 845 1180 845 1180 720 c 0,6,7
 1180 586 1180 586 1134.5 437 c 128,-1,8
 1089 288 1089 288 1018 190 c 0,9,10
 847 -47 847 -47 551 -47 c 0,11,12
 378 -47 378 -47 276 53 c 0,13,14
 164 163 164 163 164 335 c 0,15,16
 164 428 164 428 187 529 c 0,17,18
 248 803 248 803 389 946 c 0,19,20
 469 1026 469 1026 580 1067 c 0,21,22
 680 1104 680 1104 786 1104 c 0,0,1
761 946 m 0,23,24
 679 946 679 946 608 909 c 0,25,26
 476 841 476 841 406 674 c 0,27,28
 344 526 344 526 344 376 c 0,29,30
 344 254 344 254 405 183 c 0,31,32
 468 111 468 111 580 111 c 0,33,34
 666 111 666 111 738 148 c 0,35,36
 866 214 866 214 938 383 c 0,37,38
 1000 530 1000 530 1000 681 c 0,39,40
 1000 753 1000 753 979 809 c 0,41,42
 956 872 956 872 901 907 c 0,43,44
 839 946 839 946 761 946 c 0,23,24
1194 1472 m 1,45,46
 1163 1375 1163 1375 1102.5 1315 c 128,-1,47
 1042 1255 1042 1255 973 1255 c 0,48,49
 920 1255 920 1255 762 1308 c 0,50,51
 727 1320 727 1320 707 1320 c 0,52,53
 694 1320 694 1320 680 1317 c 0,54,55
 644 1308 644 1308 619 1271 c 0,56,57
 614 1265 614 1265 605 1252 c 1,58,-1
 496 1252 l 1,59,60
 531 1351 531 1351 561 1389 c 0,61,62
 587 1421 587 1421 628.5 1441.5 c 128,-1,63
 670 1462 670 1462 709 1462 c 0,64,65
 756 1462 756 1462 858 1428 c 0,66,67
 950 1397 950 1397 988 1397 c 0,68,69
 1022 1397 1022 1397 1045 1419 c 0,70,71
 1061 1433 1061 1433 1085 1472 c 1,72,-1
 1194 1472 l 1,45,46
EndSplineSet
EndChar

StartChar: odieresis
Encoding: 246 246 169
Width: 1139
GlyphClass: 2
Flags: W
LayerCount: 2
Fore
SplineSet
809 1464 m 1,0,-1
 762 1253 l 1,1,-1
 551 1253 l 1,2,-1
 596 1464 l 1,3,-1
 809 1464 l 1,0,-1
1139 1464 m 1,4,-1
 1092 1253 l 1,5,-1
 881 1253 l 1,6,-1
 926 1464 l 1,7,-1
 1139 1464 l 1,4,-1
786 1104 m 0,8,9
 893 1104 893 1104 975 1067 c 0,10,11
 1062 1028 1062 1028 1114 946 c 0,12,13
 1180 845 1180 845 1180 721 c 0,14,15
 1180 588 1180 588 1134 437.5 c 128,-1,16
 1088 287 1088 287 1018 190 c 0,17,18
 847 -47 847 -47 551 -47 c 0,19,20
 378 -47 378 -47 276 53 c 0,21,22
 164 163 164 163 164 336 c 0,23,24
 164 428 164 428 187 529 c 0,25,26
 248 804 248 804 389 946 c 0,27,28
 468 1026 468 1026 580 1067 c 0,29,30
 680 1104 680 1104 786 1104 c 0,8,9
761 946 m 0,31,32
 679 946 679 946 608 909 c 0,33,34
 476 841 476 841 406 674 c 0,35,36
 344 526 344 526 344 376 c 0,37,38
 344 254 344 254 405 183 c 0,39,40
 468 111 468 111 580 111 c 0,41,42
 666 111 666 111 738 148 c 0,43,44
 866 214 866 214 938 383 c 0,45,46
 1000 530 1000 530 1000 682 c 0,47,48
 1000 753 1000 753 979 809 c 0,49,50
 956 872 956 872 901 907 c 0,51,52
 839 946 839 946 761 946 c 0,31,32
EndSplineSet
EndChar

StartChar: divide
Encoding: 247 247 170
Width: 1196
GlyphClass: 2
Flags: W
LayerCount: 2
Fore
SplineSet
1210 550 m 1,0,-1
 1180 403 l 1,1,-1
 188 403 l 1,2,-1
 218 550 l 1,3,-1
 1210 550 l 1,0,-1
624 213 m 0,4,5
 646 213 646 213 665 205 c 0,6,7
 731 177 731 177 731 105 c 0,8,9
 731 62 731 62 699.5 31 c 128,-1,10
 668 0 668 0 624 0 c 0,11,12
 581 0 581 0 549.5 31.5 c 128,-1,13
 518 63 518 63 518 107 c 0,14,15
 518 150 518 150 549.5 181.5 c 128,-1,16
 581 213 581 213 624 213 c 0,4,5
775 946 m 0,17,18
 797 946 797 946 816 938 c 0,19,20
 882 910 882 910 882 838 c 0,21,22
 882 795 882 795 850.5 764 c 128,-1,23
 819 733 819 733 776 733 c 0,24,25
 732 733 732 733 700.5 764.5 c 128,-1,26
 669 796 669 796 669 840 c 256,27,28
 669 884 669 884 700 915 c 128,-1,29
 731 946 731 946 775 946 c 0,17,18
EndSplineSet
EndChar

StartChar: oslash
Encoding: 248 248 171
Width: 1251
GlyphClass: 2
Flags: W
LayerCount: 2
Fore
SplineSet
209 151 m 1,0,1
 166 246 166 246 166 336 c 0,2,3
 166 427 166 427 189 528 c 0,4,5
 249 803 249 803 391 946 c 0,6,7
 547 1104 547 1104 785 1104 c 0,8,9
 889 1104 889 1104 977 1067 c 0,10,11
 1048 1037 1048 1037 1100 967 c 1,12,-1
 1256 1108 l 1,13,-1
 1309 1046 l 1,14,-1
 1143 895 l 1,15,16
 1182 809 1182 809 1182 724 c 0,17,18
 1182 588 1182 588 1136.5 438 c 128,-1,19
 1091 288 1091 288 1020 190 c 0,20,21
 849 -47 849 -47 562 -47 c 0,22,23
 460 -47 460 -47 371 -10 c 0,24,25
 299 20 299 20 252 84 c 1,26,-1
 92 -62 l 1,27,-1
 39 -4 l 1,28,-1
 209 151 l 1,0,1
358 289 m 1,29,-1
 963 840 l 1,30,31
 943 875 943 875 920 893 c 0,32,33
 852 946 852 946 755 946 c 0,34,35
 678 946 678 946 607 909 c 0,36,37
 479 843 479 843 408 674 c 0,38,39
 346 527 346 527 346 369 c 0,40,41
 346 334 346 334 351 313 c 0,42,43
 353 305 353 305 358 289 c 1,29,-1
991 758 m 1,44,-1
 389 209 l 1,45,46
 407 180 407 180 428 164 c 0,47,48
 495 111 495 111 593 111 c 0,49,50
 690 111 690 111 774.5 167.5 c 128,-1,51
 859 224 859 224 913 327 c 0,52,53
 950 396 950 396 976 496.5 c 128,-1,54
 1002 597 1002 597 1002 671 c 0,55,56
 1002 700 1002 700 994 743 c 0,57,58
 993 749 993 749 991 758 c 1,44,-1
EndSplineSet
EndChar

StartChar: ugrave
Encoding: 249 249 172
Width: 1139
GlyphClass: 2
Flags: W
LayerCount: 2
Fore
SplineSet
771 1516 m 1,0,-1
 917 1212 l 1,1,-1
 808 1212 l 1,2,-1
 553 1516 l 1,3,-1
 771 1516 l 1,0,-1
988 0 m 1,4,-1
 833 0 l 1,5,-1
 858 117 l 1,6,7
 769 30 769 30 675.5 -8.5 c 128,-1,8
 582 -47 582 -47 462 -47 c 0,9,10
 410 -47 410 -47 362 -37 c 0,11,12
 277 -18 277 -18 228.5 38.5 c 128,-1,13
 180 95 180 95 180 175 c 0,14,15
 180 216 180 216 186 246 c 2,16,-1
 362 1073 l 1,17,-1
 534 1073 l 1,18,-1
 373 313 l 2,19,20
 367 286 367 286 367 258 c 0,21,22
 367 185 367 185 415.5 142.5 c 128,-1,23
 464 100 464 100 548 100 c 0,24,25
 602 100 602 100 653 119 c 0,26,27
 755 155 755 155 825 252 c 0,28,29
 888 339 888 339 915 465 c 2,30,-1
 1044 1073 l 1,31,-1
 1216 1073 l 1,32,-1
 988 0 l 1,4,-1
EndSplineSet
EndChar

StartChar: uacute
Encoding: 250 250 173
Width: 1139
GlyphClass: 2
Flags: W
LayerCount: 2
Fore
SplineSet
948 1516 m 1,0,-1
 1177 1516 l 1,1,-1
 809 1212 l 1,2,-1
 686 1212 l 1,3,-1
 948 1516 l 1,0,-1
988 0 m 1,4,-1
 833 0 l 1,5,-1
 858 117 l 1,6,7
 769 30 769 30 675.5 -8.5 c 128,-1,8
 582 -47 582 -47 462 -47 c 0,9,10
 410 -47 410 -47 362 -37 c 0,11,12
 277 -18 277 -18 228.5 38.5 c 128,-1,13
 180 95 180 95 180 175 c 0,14,15
 180 216 180 216 186 246 c 2,16,-1
 362 1073 l 1,17,-1
 534 1073 l 1,18,-1
 373 313 l 2,19,20
 367 286 367 286 367 258 c 0,21,22
 367 185 367 185 415.5 142.5 c 128,-1,23
 464 100 464 100 548 100 c 0,24,25
 602 100 602 100 653 119 c 0,26,27
 755 155 755 155 825 252 c 0,28,29
 888 339 888 339 915 465 c 2,30,-1
 1044 1073 l 1,31,-1
 1216 1073 l 1,32,-1
 988 0 l 1,4,-1
EndSplineSet
EndChar

StartChar: ucircumflex
Encoding: 251 251 174
Width: 1139
GlyphClass: 2
Flags: W
LayerCount: 2
Fore
SplineSet
778 1518 m 1,0,-1
 971 1518 l 1,1,-1
 1104 1210 l 1,2,-1
 973 1210 l 1,3,-1
 858 1413 l 1,4,-1
 647 1210 l 1,5,-1
 516 1210 l 1,6,-1
 778 1518 l 1,0,-1
988 0 m 1,7,-1
 833 0 l 1,8,-1
 858 117 l 1,9,10
 769 30 769 30 675.5 -8.5 c 128,-1,11
 582 -47 582 -47 462 -47 c 0,12,13
 410 -47 410 -47 362 -37 c 0,14,15
 277 -18 277 -18 228.5 38.5 c 128,-1,16
 180 95 180 95 180 175 c 0,17,18
 180 216 180 216 186 246 c 2,19,-1
 362 1073 l 1,20,-1
 534 1073 l 1,21,-1
 373 313 l 2,22,23
 367 286 367 286 367 258 c 0,24,25
 367 185 367 185 415.5 142.5 c 128,-1,26
 464 100 464 100 548 100 c 0,27,28
 602 100 602 100 653 119 c 0,29,30
 755 155 755 155 825 252 c 0,31,32
 888 339 888 339 915 465 c 2,33,-1
 1044 1073 l 1,34,-1
 1216 1073 l 1,35,-1
 988 0 l 1,7,-1
EndSplineSet
EndChar

StartChar: udieresis
Encoding: 252 252 175
Width: 1139
GlyphClass: 2
Flags: W
LayerCount: 2
Fore
SplineSet
807 1464 m 1,0,-1
 760 1253 l 1,1,-1
 549 1253 l 1,2,-1
 594 1464 l 1,3,-1
 807 1464 l 1,0,-1
1136 1464 m 1,4,-1
 1089 1253 l 1,5,-1
 878 1253 l 1,6,-1
 923 1464 l 1,7,-1
 1136 1464 l 1,4,-1
988 0 m 1,8,-1
 833 0 l 1,9,-1
 858 117 l 1,10,11
 769 30 769 30 675.5 -8.5 c 128,-1,12
 582 -47 582 -47 462 -47 c 0,13,14
 410 -47 410 -47 362 -37 c 0,15,16
 277 -18 277 -18 228.5 38.5 c 128,-1,17
 180 95 180 95 180 175 c 0,18,19
 180 216 180 216 186 246 c 2,20,-1
 362 1073 l 1,21,-1
 534 1073 l 1,22,-1
 373 313 l 2,23,24
 367 286 367 286 367 258 c 0,25,26
 367 185 367 185 415.5 142.5 c 128,-1,27
 464 100 464 100 548 100 c 0,28,29
 602 100 602 100 653 119 c 0,30,31
 755 155 755 155 825 252 c 0,32,33
 888 339 888 339 915 465 c 2,34,-1
 1044 1073 l 1,35,-1
 1216 1073 l 1,36,-1
 988 0 l 1,8,-1
EndSplineSet
EndChar

StartChar: yacute
Encoding: 253 253 176
Width: 1024
GlyphClass: 2
Flags: W
LayerCount: 2
Fore
SplineSet
1026 1073 m 1,0,-1
 1208 1073 l 1,1,-1
 454 -225 l 2,2,3
 388 -340 388 -340 307 -393 c 128,-1,4
 226 -446 226 -446 118 -446 c 0,5,6
 64 -446 64 -446 16 -426 c 1,7,-1
 49 -272 l 1,8,9
 60 -274 60 -274 65 -274 c 0,10,11
 93 -278 93 -278 100 -278 c 2,12,-1
 145 -278 l 2,13,14
 200 -278 200 -278 231 -257.5 c 128,-1,15
 262 -237 262 -237 303 -174 c 2,16,-1
 409 -8 l 1,17,-1
 270 1073 l 1,18,-1
 454 1073 l 1,19,-1
 548 240 l 1,20,-1
 1026 1073 l 1,0,-1
889 1516 m 1,21,-1
 1119 1516 l 1,22,-1
 750 1212 l 1,23,-1
 627 1212 l 1,24,-1
 889 1516 l 1,21,-1
EndSplineSet
EndChar

StartChar: ydieresis
Encoding: 255 255 177
Width: 1024
GlyphClass: 2
Flags: W
LayerCount: 2
Fore
SplineSet
1026 1073 m 1,0,-1
 1208 1073 l 1,1,-1
 454 -225 l 2,2,3
 388 -340 388 -340 307 -393 c 128,-1,4
 226 -446 226 -446 118 -446 c 0,5,6
 64 -446 64 -446 16 -426 c 1,7,-1
 49 -272 l 1,8,9
 60 -274 60 -274 65 -274 c 0,10,11
 93 -278 93 -278 100 -278 c 2,12,-1
 145 -278 l 2,13,14
 200 -278 200 -278 231 -257.5 c 128,-1,15
 262 -237 262 -237 303 -174 c 2,16,-1
 409 -8 l 1,17,-1
 270 1073 l 1,18,-1
 454 1073 l 1,19,-1
 548 240 l 1,20,-1
 1026 1073 l 1,0,-1
761 1464 m 1,21,-1
 714 1253 l 1,22,-1
 503 1253 l 1,23,-1
 548 1464 l 1,24,-1
 761 1464 l 1,21,-1
1091 1464 m 1,25,-1
 1044 1253 l 1,26,-1
 833 1253 l 1,27,-1
 878 1464 l 1,28,-1
 1091 1464 l 1,25,-1
EndSplineSet
EndChar

StartChar: dotlessi
Encoding: 305 305 178
Width: 569
GlyphClass: 2
Flags: W
LayerCount: 2
Fore
SplineSet
594 1079 m 1,0,-1
 365 0 l 1,1,-1
 193 0 l 1,2,-1
 422 1079 l 1,3,-1
 594 1079 l 1,0,-1
EndSplineSet
EndChar

StartChar: OE
Encoding: 338 338 179
Width: 2048
GlyphClass: 3
Flags: W
LayerCount: 2
Fore
SplineSet
1406 670 m 1,0,-1
 1299 168 l 1,1,-1
 1995 168 l 1,2,-1
 1960 0 l 1,3,-1
 1071 0 l 1,4,-1
 1105 158 l 1,5,6
 1017 51 1017 51 915 2 c 128,-1,7
 813 -47 813 -47 680 -47 c 0,8,9
 570 -47 570 -47 475 -8 c 0,10,11
 359 40 359 40 293 143 c 0,12,13
 207 279 207 279 207 448 c 0,14,15
 207 688 207 688 305 952 c 0,16,17
 424 1268 424 1268 661 1412 c 0,18,19
 836 1518 836 1518 1015 1518 c 0,20,21
 1144 1518 1144 1518 1225.5 1474.5 c 128,-1,22
 1307 1431 1307 1431 1356 1337 c 1,23,-1
 1389 1493 l 1,24,-1
 2269 1493 l 1,25,-1
 2235 1325 l 1,26,-1
 1545 1325 l 1,27,-1
 1442 838 l 1,28,-1
 2112 838 l 1,29,-1
 2075 670 l 1,30,-1
 1406 670 l 1,0,-1
1306 1104 m 1,31,32
 1285 1197 1285 1197 1221 1270 c 0,33,34
 1150 1352 1150 1352 984 1352 c 0,35,36
 710 1352 710 1352 550 1072 c 0,37,38
 491 967 491 967 448 788 c 0,39,40
 404 604 404 604 404 454 c 0,41,42
 404 363 404 363 441 281 c 0,43,44
 513 119 513 119 721 119 c 0,45,46
 977 119 977 119 1150 373 c 1,47,-1
 1306 1104 l 1,31,32
EndSplineSet
EndChar

StartChar: oe
Encoding: 339 339 180
Width: 1933
GlyphClass: 3
Flags: W
LayerCount: 2
Fore
SplineSet
1005 172 m 1,0,1
 980 138 980 138 952 111 c 0,2,3
 790 -47 790 -47 563 -47 c 0,4,5
 456 -47 456 -47 375 -10 c 0,6,7
 292 28 292 28 240 111 c 0,8,9
 174 215 174 215 174 338 c 0,10,11
 174 464 174 464 218.5 612 c 128,-1,12
 263 760 263 760 332 865 c 0,13,14
 414 989 414 989 542 1050 c 0,15,16
 657 1104 657 1104 790 1104 c 0,17,18
 894 1104 894 1104 977 1067 c 0,19,20
 1090 1017 1090 1017 1143 893 c 1,21,22
 1209 985 1209 985 1334.5 1044.5 c 128,-1,23
 1460 1104 1460 1104 1587 1104 c 0,24,25
 1760 1104 1760 1104 1868 1002 c 0,26,27
 1919 953 1919 953 1948.5 886.5 c 128,-1,28
 1978 820 1978 820 1978 753 c 0,29,30
 1978 666 1978 666 1950 514 c 0,31,32
 1948 503 1948 503 1943 480 c 1,33,-1
 1153 480 l 1,34,35
 1139 413 1139 413 1139 361 c 0,36,37
 1139 273 1139 273 1184 209 c 0,38,39
 1254 111 1254 111 1398 111 c 0,40,41
 1603 111 1603 111 1716 326 c 1,42,-1
 1888 326 l 1,43,44
 1853 203 1853 203 1754 104 c 0,45,46
 1683 32 1683 32 1581 -7.5 c 128,-1,47
 1479 -47 1479 -47 1366 -47 c 0,48,49
 1260 -47 1260 -47 1184 -10 c 0,50,51
 1128 17 1128 17 1078 68 c 128,-1,52
 1028 119 1028 119 1005 172 c 1,0,1
759 946 m 0,53,54
 678 946 678 946 611 909 c 0,55,56
 481 837 481 837 413 671 c 0,57,58
 354 524 354 524 354 371 c 0,59,60
 354 250 354 250 413 183 c 0,61,62
 476 111 476 111 584 111 c 0,63,64
 664 111 664 111 736 148 c 0,65,66
 869 216 869 216 937 384 c 0,67,68
 997 530 997 530 997 684 c 0,69,70
 997 752 997 752 977 807 c 0,71,72
 953 871 953 871 898 907 c 0,73,74
 838 946 838 946 759 946 c 0,53,54
1792 627 m 1,75,76
 1798 665 1798 665 1798 692 c 0,77,78
 1798 785 1798 785 1753 855 c 0,79,80
 1694 946 1694 946 1564 946 c 0,81,82
 1438 946 1438 946 1334 857.5 c 128,-1,83
 1230 769 1230 769 1190 627 c 1,84,-1
 1792 627 l 1,75,76
EndSplineSet
EndChar

StartChar: Ydieresis
Encoding: 376 376 181
Width: 1366
GlyphClass: 2
Flags: W
LayerCount: 2
Fore
SplineSet
917 586 m 1,0,-1
 793 0 l 1,1,-1
 600 0 l 1,2,-1
 725 586 l 1,3,-1
 344 1493 l 1,4,-1
 573 1493 l 1,5,-1
 852 762 l 1,6,-1
 1444 1493 l 1,7,-1
 1671 1493 l 1,8,-1
 917 586 l 1,0,-1
1031 1871 m 1,9,-1
 984 1660 l 1,10,-1
 773 1660 l 1,11,-1
 818 1871 l 1,12,-1
 1031 1871 l 1,9,-1
1361 1871 m 1,13,-1
 1314 1660 l 1,14,-1
 1103 1660 l 1,15,-1
 1148 1871 l 1,16,-1
 1361 1871 l 1,13,-1
EndSplineSet
EndChar

StartChar: florin
Encoding: 402 402 182
Width: 1139
GlyphClass: 2
Flags: W
LayerCount: 2
Fore
SplineSet
1161 950 m 1,0,-1
 1130 803 l 1,1,-1
 870 803 l 1,2,-1
 546 -10 l 2,3,4
 466 -211 466 -211 352 -317 c 0,5,6
 226 -434 226 -434 41 -434 c 0,7,8
 10 -434 10 -434 -15 -430 c 0,9,10
 -37 -426 -37 -426 -66 -413 c 1,11,-1
 6 -237 l 1,12,13
 52 -276 52 -276 108 -276 c 0,14,15
 259 -276 259 -276 352 -43 c 2,16,-1
 690 803 l 1,17,-1
 460 803 l 1,18,-1
 491 950 l 1,19,-1
 747 950 l 1,20,-1
 835 1161 l 2,21,22
 902 1323 902 1323 1017 1413 c 0,23,24
 1142 1511 1142 1511 1271 1511 c 0,25,26
 1350 1511 1350 1511 1425 1473 c 1,27,-1
 1331 1312 l 1,28,29
 1278 1353 1278 1353 1231 1353 c 0,30,31
 1086 1353 1086 1353 985 1092 c 2,32,-1
 929 950 l 1,33,-1
 1161 950 l 1,0,-1
EndSplineSet
EndChar

StartChar: circumflex
Encoding: 710 710 183
Width: 682
GlyphClass: 2
Flags: W
LayerCount: 2
Fore
SplineSet
561 1518 m 1,0,-1
 756 1518 l 1,1,-1
 887 1210 l 1,2,-1
 758 1210 l 1,3,-1
 643 1413 l 1,4,-1
 430 1210 l 1,5,-1
 299 1210 l 1,6,-1
 561 1518 l 1,0,-1
EndSplineSet
EndChar

StartChar: caron
Encoding: 711 711 184
Width: 682
GlyphClass: 2
Flags: W
LayerCount: 2
Fore
SplineSet
686 1212 m 1,0,-1
 491 1212 l 1,1,-1
 360 1516 l 1,2,-1
 489 1516 l 1,3,-1
 604 1315 l 1,4,-1
 817 1516 l 1,5,-1
 948 1516 l 1,6,-1
 686 1212 l 1,0,-1
EndSplineSet
EndChar

StartChar: breve
Encoding: 728 728 185
Width: 682
GlyphClass: 2
Flags: W
LayerCount: 2
Fore
SplineSet
348 1493 m 1,0,-1
 457 1493 l 1,1,-1
 457 1466 l 2,2,3
 457 1420 457 1420 503 1392 c 128,-1,4
 549 1364 549 1364 624 1364 c 0,5,6
 716 1364 716 1364 775.5 1398 c 128,-1,7
 835 1432 835 1432 850 1493 c 1,8,-1
 965 1493 l 1,9,10
 935 1375 935 1375 870 1317 c 0,11,12
 820 1271 820 1271 747 1244 c 128,-1,13
 674 1217 674 1217 599 1217 c 0,14,15
 539 1217 539 1217 483 1235 c 0,16,17
 338 1283 338 1283 338 1419 c 0,18,19
 338 1445 338 1445 348 1493 c 1,0,-1
EndSplineSet
EndChar

StartChar: dotaccent
Encoding: 729 729 186
Width: 682
GlyphClass: 2
Flags: W
LayerCount: 2
Fore
SplineSet
758 1464 m 1,0,-1
 713 1253 l 1,1,-1
 500 1253 l 1,2,-1
 545 1464 l 1,3,-1
 758 1464 l 1,0,-1
EndSplineSet
EndChar

StartChar: ring
Encoding: 730 730 187
Width: 682
GlyphClass: 2
Flags: W
LayerCount: 2
Fore
SplineSet
664 1545 m 0,0,1
 700 1545 700 1545 731 1531 c 0,2,3
 811 1494 811 1494 811 1408 c 0,4,5
 811 1325 811 1325 750 1260 c 0,6,7
 679 1186 679 1186 587 1186 c 0,8,9
 553 1186 553 1186 522 1200 c 0,10,11
 442 1238 442 1238 442 1330 c 0,12,13
 442 1346 442 1346 446 1365 c 0,14,15
 463 1439 463 1439 526.5 1492 c 128,-1,16
 590 1545 590 1545 664 1545 c 0,0,1
648 1456 m 0,17,18
 629 1456 629 1456 611 1449 c 0,19,20
 580 1437 580 1437 558 1407 c 128,-1,21
 536 1377 536 1377 536 1347 c 0,22,23
 536 1338 536 1338 538 1330 c 0,24,25
 549 1275 549 1275 609 1275 c 0,26,27
 651 1275 651 1275 685 1309 c 128,-1,28
 719 1343 719 1343 719 1384 c 0,29,30
 719 1416 719 1416 699 1436 c 128,-1,31
 679 1456 679 1456 648 1456 c 0,17,18
EndSplineSet
EndChar

StartChar: ogonek
Encoding: 731 731 188
Width: 682
GlyphClass: 2
Flags: W
LayerCount: 2
Fore
SplineSet
338 0 m 1,0,-1
 480 0 l 1,1,2
 450 -15 450 -15 435 -23 c 0,3,4
 356 -61 356 -61 324.5 -82.5 c 128,-1,5
 293 -104 293 -104 267 -135 c 0,6,7
 226 -185 226 -185 226 -239 c 0,8,9
 226 -258 226 -258 234 -273 c 0,10,11
 265 -328 265 -328 360 -328 c 0,12,13
 446 -328 446 -328 504 -307 c 1,14,-1
 486 -399 l 1,15,16
 427 -419 427 -419 347 -419 c 0,17,18
 215 -419 215 -419 143.5 -379 c 128,-1,19
 72 -339 72 -339 72 -265 c 0,20,21
 72 -149 72 -149 193 -69 c 0,22,23
 243 -36 243 -36 338 0 c 1,0,-1
EndSplineSet
EndChar

StartChar: tilde
Encoding: 732 732 189
Width: 682
GlyphClass: 2
Flags: W
LayerCount: 2
Fore
SplineSet
964 1472 m 1,0,1
 932 1373 932 1373 872 1314 c 128,-1,2
 812 1255 812 1255 743 1255 c 0,3,4
 690 1255 690 1255 532 1308 c 0,5,6
 497 1320 497 1320 477 1320 c 0,7,8
 464 1320 464 1320 450 1317 c 0,9,10
 414 1308 414 1308 389 1271 c 0,11,12
 384 1265 384 1265 375 1252 c 1,13,-1
 266 1252 l 1,14,15
 299 1347 299 1347 331 1389 c 0,16,17
 357 1421 357 1421 398.5 1441.5 c 128,-1,18
 440 1462 440 1462 479 1462 c 0,19,20
 525 1462 525 1462 628 1428 c 0,21,22
 720 1397 720 1397 758 1397 c 0,23,24
 792 1397 792 1397 816 1419 c 0,25,26
 831 1433 831 1433 855 1472 c 1,27,-1
 964 1472 l 1,0,1
EndSplineSet
EndChar

StartChar: hungarumlaut
Encoding: 733 733 190
Width: 682
GlyphClass: 2
Flags: W
LayerCount: 2
Fore
SplineSet
448 1516 m 1,0,-1
 678 1516 l 1,1,-1
 309 1208 l 1,2,-1
 186 1208 l 1,3,-1
 448 1516 l 1,0,-1
804 1516 m 1,4,-1
 1034 1516 l 1,5,-1
 665 1208 l 1,6,-1
 542 1208 l 1,7,-1
 804 1516 l 1,4,-1
EndSplineSet
EndChar

StartChar: uni0394
Encoding: 916 916 191
Width: 1374
GlyphClass: 2
Flags: W
LayerCount: 2
Fore
SplineSet
-20 0 m 1,0,-1
 899 1493 l 1,1,-1
 1104 1493 l 1,2,-1
 1395 0 l 1,3,-1
 -20 0 l 1,0,-1
288 168 m 1,4,-1
 1155 168 l 1,5,-1
 953 1261 l 1,6,-1
 288 168 l 1,4,-1
EndSplineSet
EndChar

StartChar: Pi
Encoding: 928 928 192
Width: 1485
GlyphClass: 2
Flags: W
LayerCount: 2
Fore
SplineSet
642 1325 m 1,0,-1
 361 0 l 1,1,-1
 168 0 l 1,2,-1
 485 1493 l 1,3,-1
 1634 1493 l 1,4,-1
 1317 0 l 1,5,-1
 1124 0 l 1,6,-1
 1406 1325 l 1,7,-1
 642 1325 l 1,0,-1
EndSplineSet
EndChar

StartChar: uni03A9
Encoding: 937 937 193
Width: 1559
GlyphClass: 2
Flags: W
LayerCount: 2
Fore
SplineSet
65 0 m 1,0,-1
 101 168 l 1,1,-1
 495 168 l 1,2,3
 244 347 244 347 244 656 c 0,4,5
 244 869 244 869 347 1076 c 0,6,7
 460 1304 460 1304 678 1423 c 0,8,9
 855 1519 855 1519 1056 1519 c 0,10,11
 1248 1519 1248 1519 1399 1427 c 0,12,13
 1516 1356 1516 1356 1580 1229 c 0,14,15
 1651 1087 1651 1087 1651 920 c 0,16,17
 1651 764 1651 764 1595 622.5 c 128,-1,18
 1539 481 1539 481 1434 372 c 0,19,20
 1310 242 1310 242 1134 168 c 1,21,-1
 1519 168 l 1,22,-1
 1484 0 l 1,23,-1
 894 0 l 1,24,-1
 929 168 l 1,25,26
 1061 237 1061 237 1137 296 c 128,-1,27
 1213 355 1213 355 1277 439 c 0,28,29
 1460 676 1460 676 1460 945 c 0,30,31
 1460 1045 1460 1045 1420 1135 c 0,32,33
 1378 1228 1378 1228 1298 1281 c 0,34,35
 1193 1350 1193 1350 1052 1350 c 0,36,37
 868 1350 868 1350 714 1238 c 0,38,39
 569 1133 569 1133 492 935 c 0,40,41
 434 784 434 784 434 622 c 0,42,43
 434 475 434 475 489 371 c 256,44,45
 544 267 544 267 691 168 c 1,46,-1
 655 0 l 1,47,-1
 65 0 l 1,0,-1
EndSplineSet
EndChar

StartChar: pi
Encoding: 960 960 194
Width: 1372
GlyphClass: 2
Flags: W
LayerCount: 2
Fore
SplineSet
1484 1073 m 1,0,-1
 1452 921 l 1,1,-1
 1299 921 l 1,2,-1
 1103 0 l 1,3,-1
 931 0 l 1,4,-1
 1127 921 l 1,5,-1
 637 921 l 1,6,-1
 441 0 l 1,7,-1
 269 0 l 1,8,-1
 465 921 l 1,9,-1
 311 921 l 1,10,-1
 343 1073 l 1,11,-1
 1484 1073 l 1,0,-1
EndSplineSet
EndChar

StartChar: endash
Encoding: 8211 8211 195
Width: 1139
GlyphClass: 2
Flags: W
LayerCount: 2
Fore
SplineSet
1286 639 m 1,0,-1
 1255 492 l 1,1,-1
 94 492 l 1,2,-1
 125 639 l 1,3,-1
 1286 639 l 1,0,-1
EndSplineSet
EndChar

StartChar: emdash
Encoding: 8212 8212 196
Width: 2048
GlyphClass: 2
Flags: W
LayerCount: 2
Fore
SplineSet
2187 639 m 1,0,-1
 2156 492 l 1,1,-1
 86 492 l 1,2,-1
 117 639 l 1,3,-1
 2187 639 l 1,0,-1
EndSplineSet
EndChar

StartChar: quoteleft
Encoding: 8216 8216 197
Width: 455
GlyphClass: 2
Flags: W
LayerCount: 2
Fore
SplineSet
524 977 m 1,0,-1
 334 977 l 1,1,-1
 378 1181 l 2,2,3
 433 1438 433 1438 631 1452 c 1,4,-1
 614 1373 l 1,5,6
 554 1363 554 1363 523 1323 c 128,-1,7
 492 1283 492 1283 472 1188 c 1,8,-1
 570 1188 l 1,9,-1
 524 977 l 1,0,-1
EndSplineSet
EndChar

StartChar: quoteright
Encoding: 8217 8217 198
Width: 455
GlyphClass: 2
Flags: W
LayerCount: 2
Fore
SplineSet
440 1450 m 1,0,-1
 633 1450 l 1,1,-1
 589 1246 l 2,2,3
 563 1123 563 1123 498.5 1053.5 c 128,-1,4
 434 984 434 984 340 977 c 1,5,-1
 357 1055 l 1,6,7
 463 1068 463 1068 495 1239 c 1,8,-1
 395 1239 l 1,9,-1
 440 1450 l 1,0,-1
EndSplineSet
EndChar

StartChar: quotesinglbase
Encoding: 8218 8218 199
Width: 455
GlyphClass: 2
Flags: W
LayerCount: 2
Fore
SplineSet
176 211 m 1,0,-1
 369 211 l 1,1,-1
 325 7 l 2,2,3
 299 -116 299 -116 234.5 -185.5 c 128,-1,4
 170 -255 170 -255 76 -262 c 1,5,-1
 93 -184 l 1,6,7
 199 -171 199 -171 231 0 c 1,8,-1
 131 0 l 1,9,-1
 176 211 l 1,0,-1
EndSplineSet
EndChar

StartChar: quotedblleft
Encoding: 8220 8220 200
Width: 682
GlyphClass: 2
Flags: W
LayerCount: 2
Fore
SplineSet
489 977 m 1,0,-1
 299 977 l 1,1,-1
 343 1181 l 2,2,3
 369 1305 369 1305 433 1374.5 c 128,-1,4
 497 1444 497 1444 590 1452 c 1,5,-1
 574 1373 l 1,6,7
 469 1359 469 1359 437 1188 c 1,8,-1
 535 1188 l 1,9,-1
 489 977 l 1,0,-1
819 977 m 1,10,-1
 628 977 l 1,11,-1
 672 1181 l 2,12,13
 698 1305 698 1305 762 1374.5 c 128,-1,14
 826 1444 826 1444 920 1452 c 1,15,-1
 903 1373 l 1,16,17
 798 1359 798 1359 766 1188 c 1,18,-1
 864 1188 l 1,19,-1
 819 977 l 1,10,-1
EndSplineSet
EndChar

StartChar: quotedblright
Encoding: 8221 8221 201
Width: 682
GlyphClass: 2
Flags: W
LayerCount: 2
Fore
SplineSet
407 1450 m 1,0,-1
 600 1450 l 1,1,-1
 556 1246 l 2,2,3
 530 1123 530 1123 465.5 1053.5 c 128,-1,4
 401 984 401 984 307 977 c 1,5,-1
 324 1055 l 1,6,7
 430 1068 430 1068 462 1239 c 1,8,-1
 362 1239 l 1,9,-1
 407 1450 l 1,0,-1
733 1450 m 1,10,-1
 925 1450 l 1,11,-1
 882 1246 l 2,12,13
 855 1123 855 1123 791 1053.5 c 128,-1,14
 727 984 727 984 633 977 c 1,15,-1
 649 1055 l 1,16,17
 756 1068 756 1068 787 1239 c 1,18,-1
 688 1239 l 1,19,-1
 733 1450 l 1,10,-1
EndSplineSet
EndChar

StartChar: quotedblbase
Encoding: 8222 8222 202
Width: 682
GlyphClass: 2
Flags: W
LayerCount: 2
Fore
SplineSet
141 211 m 1,0,-1
 334 211 l 1,1,-1
 290 7 l 2,2,3
 264 -116 264 -116 199.5 -185.5 c 128,-1,4
 135 -255 135 -255 41 -262 c 1,5,-1
 58 -184 l 1,6,7
 164 -171 164 -171 196 0 c 1,8,-1
 96 0 l 1,9,-1
 141 211 l 1,0,-1
467 211 m 1,10,-1
 659 211 l 1,11,-1
 616 7 l 2,12,13
 589 -116 589 -116 525 -185.5 c 128,-1,14
 461 -255 461 -255 367 -262 c 1,15,-1
 383 -184 l 1,16,17
 490 -171 490 -171 521 0 c 1,18,-1
 422 0 l 1,19,-1
 467 211 l 1,10,-1
EndSplineSet
EndChar

StartChar: dagger
Encoding: 8224 8224 203
Width: 1139
GlyphClass: 2
Flags: W
LayerCount: 2
Fore
SplineSet
1270 1026 m 1,0,-1
 1234 860 l 1,1,-1
 836 860 l 1,2,-1
 576 -362 l 1,3,-1
 396 -362 l 1,4,-1
 656 860 l 1,5,-1
 260 860 l 1,6,-1
 295 1026 l 1,7,-1
 691 1026 l 1,8,-1
 782 1452 l 1,9,-1
 962 1452 l 1,10,-1
 872 1026 l 1,11,-1
 1270 1026 l 1,0,-1
EndSplineSet
EndChar

StartChar: daggerdbl
Encoding: 8225 8225 204
Width: 1139
GlyphClass: 2
Flags: W
LayerCount: 2
Fore
SplineSet
1269 1026 m 1,0,-1
 1234 860 l 1,1,-1
 843 860 l 1,2,-1
 709 229 l 1,3,-1
 1100 229 l 1,4,-1
 1065 63 l 1,5,-1
 673 63 l 1,6,-1
 583 -362 l 1,7,-1
 403 -362 l 1,8,-1
 493 63 l 1,9,-1
 104 63 l 1,10,-1
 139 229 l 1,11,-1
 528 229 l 1,12,-1
 663 860 l 1,13,-1
 273 860 l 1,14,-1
 309 1026 l 1,15,-1
 698 1026 l 1,16,-1
 788 1452 l 1,17,-1
 969 1452 l 1,18,-1
 878 1026 l 1,19,-1
 1269 1026 l 1,0,-1
EndSplineSet
EndChar

StartChar: bullet
Encoding: 8226 8226 205
Width: 717
GlyphClass: 2
Flags: W
LayerCount: 2
Fore
SplineSet
561 963 m 0,0,1
 615 963 615 963 657 945 c 0,2,3
 709 922 709 922 739.5 872.5 c 128,-1,4
 770 823 770 823 770 763 c 0,5,6
 770 645 770 645 684 557 c 0,7,8
 581 451 581 451 451 451 c 0,9,10
 402 451 402 451 359 471 c 0,11,12
 306 496 306 496 276 544 c 128,-1,13
 246 592 246 592 246 651 c 0,14,15
 246 678 246 678 252 707 c 0,16,17
 275 814 275 814 365 887 c 0,18,19
 458 963 458 963 561 963 c 0,0,1
EndSplineSet
EndChar

StartChar: ellipsis
Encoding: 8230 8230 206
Width: 2048
GlyphClass: 2
Flags: W
LayerCount: 2
Fore
SplineSet
494 211 m 1,0,-1
 449 0 l 1,1,-1
 236 0 l 1,2,-1
 281 211 l 1,3,-1
 494 211 l 1,0,-1
1176 211 m 1,4,-1
 1131 0 l 1,5,-1
 918 0 l 1,6,-1
 963 211 l 1,7,-1
 1176 211 l 1,4,-1
1858 211 m 1,8,-1
 1813 0 l 1,9,-1
 1600 0 l 1,10,-1
 1645 211 l 1,11,-1
 1858 211 l 1,8,-1
EndSplineSet
EndChar

StartChar: perthousand
Encoding: 8240 8240 207
Width: 2048
GlyphClass: 2
Flags: W
LayerCount: 2
Fore
SplineSet
1329 1511 m 1,0,-1
 1464 1511 l 1,1,-1
 325 -41 l 1,2,-1
 190 -41 l 1,3,-1
 1329 1511 l 1,0,-1
643 1485 m 0,4,5
 707 1485 707 1485 756 1463 c 0,6,7
 818 1434 818 1434 853.5 1378.5 c 128,-1,8
 889 1323 889 1323 889 1254 c 0,9,10
 889 1170 889 1170 849 1093 c 0,11,12
 800 997 800 997 706 939 c 128,-1,13
 612 881 612 881 506 881 c 0,14,15
 382 881 382 881 313 969 c 0,16,17
 262 1034 262 1034 262 1118 c 0,18,19
 262 1192 262 1192 301.5 1268.5 c 128,-1,20
 341 1345 341 1345 405 1397 c 0,21,22
 515 1485 515 1485 643 1485 c 0,4,5
617 1372 m 0,23,24
 577 1372 577 1372 540 1357 c 0,25,26
 477 1333 477 1333 437 1282 c 0,27,28
 385 1217 385 1217 385 1138 c 0,29,30
 385 1124 385 1124 387 1111 c 0,31,32
 395 1059 395 1059 437 1026.5 c 128,-1,33
 479 994 479 994 536 994 c 0,34,35
 574 994 574 994 612 1009 c 0,36,37
 681 1035 681 1035 723.5 1096 c 128,-1,38
 766 1157 766 1157 766 1229 c 0,39,40
 766 1290 766 1290 723 1331 c 128,-1,41
 680 1372 680 1372 617 1372 c 0,23,24
1111 565 m 0,42,43
 1175 565 1175 565 1224 542 c 0,44,45
 1286 514 1286 514 1321.5 458.5 c 128,-1,46
 1357 403 1357 403 1357 334 c 0,47,48
 1357 250 1357 250 1317 173 c 0,49,50
 1268 77 1268 77 1174 19 c 128,-1,51
 1080 -39 1080 -39 975 -39 c 0,52,53
 851 -39 851 -39 782 49 c 0,54,55
 731 115 731 115 731 198 c 0,56,57
 731 272 731 272 770.5 348.5 c 128,-1,58
 810 425 810 425 874 477 c 0,59,60
 983 565 983 565 1111 565 c 0,42,43
1086 452 m 0,61,62
 1045 452 1045 452 1009 437 c 0,63,64
 946 413 946 413 906 362 c 0,65,66
 854 297 854 297 854 218 c 0,67,68
 854 204 854 204 856 191 c 0,69,70
 864 140 864 140 905.5 107 c 128,-1,71
 947 74 947 74 1005 74 c 0,72,73
 1043 74 1043 74 1081 89 c 0,74,75
 1150 115 1150 115 1192 176 c 128,-1,76
 1234 237 1234 237 1234 309 c 0,77,78
 1234 370 1234 370 1191 411 c 128,-1,79
 1148 452 1148 452 1086 452 c 0,61,62
1851 565 m 0,80,81
 1915 565 1915 565 1964 542 c 0,82,83
 2026 514 2026 514 2061.5 458.5 c 128,-1,84
 2097 403 2097 403 2097 334 c 0,85,86
 2097 250 2097 250 2057 173 c 0,87,88
 2008 77 2008 77 1914 19 c 128,-1,89
 1820 -39 1820 -39 1714 -39 c 0,90,91
 1590 -39 1590 -39 1521 49 c 0,92,93
 1470 114 1470 114 1470 198 c 0,94,95
 1470 272 1470 272 1509.5 348.5 c 128,-1,96
 1549 425 1549 425 1613 477 c 0,97,98
 1723 565 1723 565 1851 565 c 0,80,81
1825 452 m 0,99,100
 1785 452 1785 452 1748 437 c 0,101,102
 1685 413 1685 413 1645 362 c 0,103,104
 1593 298 1593 298 1593 218 c 0,105,106
 1593 204 1593 204 1595 191 c 0,107,108
 1603 140 1603 140 1645 107 c 128,-1,109
 1687 74 1687 74 1744 74 c 0,110,111
 1783 74 1783 74 1820 89 c 0,112,113
 1889 115 1889 115 1931.5 176 c 128,-1,114
 1974 237 1974 237 1974 309 c 0,115,116
 1974 369 1974 369 1931 410.5 c 128,-1,117
 1888 452 1888 452 1825 452 c 0,99,100
EndSplineSet
EndChar

StartChar: guilsinglleft
Encoding: 8249 8249 208
Width: 682
GlyphClass: 2
Flags: W
LayerCount: 2
Fore
SplineSet
287 466 m 1,0,-1
 326 648 l 1,1,-1
 688 897 l 1,2,-1
 652 726 l 1,3,-1
 403 554 l 1,4,-1
 580 385 l 1,5,-1
 544 217 l 1,6,-1
 287 466 l 1,0,-1
EndSplineSet
EndChar

StartChar: guilsinglright
Encoding: 8250 8250 209
Width: 682
GlyphClass: 2
Flags: W
LayerCount: 2
Fore
SplineSet
629 648 m 1,0,-1
 590 467 l 1,1,-1
 223 217 l 1,2,-1
 259 388 l 1,3,-1
 512 560 l 1,4,-1
 331 729 l 1,5,-1
 368 897 l 1,6,-1
 629 648 l 1,0,-1
EndSplineSet
EndChar

StartChar: fraction
Encoding: 8260 8260 210
Width: 569
GlyphClass: 2
Flags: W
LayerCount: 2
Fore
SplineSet
992 1452 m 1,0,-1
 1111 1452 l 1,1,-1
 -132 -41 l 1,2,-1
 -251 -41 l 1,3,-1
 992 1452 l 1,0,-1
EndSplineSet
EndChar

StartChar: Euro
Encoding: 8364 8364 211
Width: 1139
GlyphClass: 2
Flags: W
LayerCount: 2
Fore
SplineSet
210 640 m 1,0,1
 219 699 219 699 241 776 c 1,2,-1
 80 776 l 1,3,-1
 152 897 l 1,4,-1
 281 897 l 1,5,6
 356 1096 356 1096 490 1245 c 0,7,8
 675 1452 675 1452 938 1452 c 0,9,10
 1054 1452 1054 1452 1151 1411 c 0,11,12
 1225 1381 1225 1381 1303 1315 c 1,13,-1
 1202 1152 l 1,14,15
 1108 1232 1108 1232 1049 1259 c 0,16,17
 972 1295 972 1295 893 1295 c 0,18,19
 759 1295 759 1295 658 1201 c 128,-1,20
 557 1107 557 1107 466 897 c 1,21,-1
 1049 897 l 1,22,-1
 975 776 l 1,23,-1
 422 776 l 1,24,25
 401 709 401 709 392 640 c 1,26,-1
 895 640 l 1,27,-1
 821 519 l 1,28,-1
 382 519 l 1,29,-1
 382 490 l 2,30,31
 382 386 382 386 406.5 301.5 c 128,-1,32
 431 217 431 217 472 177 c 0,33,34
 537 113 537 113 641 113 c 0,35,36
 717 113 717 113 791.5 138.5 c 128,-1,37
 866 164 866 164 1009 239 c 1,38,-1
 968 48 l 1,39,40
 793 -47 793 -47 603 -47 c 0,41,42
 474 -47 474 -47 377 12 c 0,43,44
 195 123 195 123 195 459 c 0,45,46
 195 471 195 471 197 519 c 1,47,-1
 25 519 l 1,48,-1
 97 640 l 1,49,-1
 210 640 l 1,0,1
EndSplineSet
EndChar

StartChar: trademark
Encoding: 8482 8482 212
Width: 2048
GlyphClass: 2
Flags: W
LayerCount: 2
Fore
SplineSet
881 1380 m 1,0,-1
 715 598 l 1,1,-1
 576 598 l 1,2,-1
 742 1380 l 1,3,-1
 426 1380 l 1,4,-1
 450 1493 l 1,5,-1
 1217 1493 l 1,6,-1
 1193 1380 l 1,7,-1
 881 1380 l 1,0,-1
1666 598 m 1,8,-1
 1522 598 l 1,9,-1
 1423 1297 l 1,10,-1
 1274 598 l 1,11,-1
 1137 598 l 1,12,-1
 1327 1493 l 1,13,-1
 1520 1493 l 1,14,-1
 1632 751 l 1,15,-1
 2059 1493 l 1,16,-1
 2245 1493 l 1,17,-1
 2054 598 l 1,18,-1
 1917 598 l 1,19,-1
 2066 1297 l 1,20,-1
 1666 598 l 1,8,-1
EndSplineSet
EndChar

StartChar: partialdiff
Encoding: 8706 8706 213
Width: 975
GlyphClass: 2
Flags: W
LayerCount: 2
Fore
SplineSet
126 1479 m 1,0,1
 254 1536 254 1536 397 1536 c 0,2,3
 485 1536 485 1536 572 1501 c 0,4,5
 752 1427 752 1427 851 1233 c 0,6,7
 938 1063 938 1063 938 829 c 0,8,9
 938 669 938 669 899.5 492 c 128,-1,10
 861 315 861 315 803 211 c 0,11,12
 669 -31 669 -31 435 -31 c 0,13,14
 365 -31 365 -31 301 -7 c 0,15,16
 177 38 177 38 106 149 c 0,17,18
 45 245 45 245 45 367 c 0,19,20
 45 507 45 507 121 634 c 0,21,22
 241 836 241 836 446 836 c 0,23,24
 528 836 528 836 588.5 810 c 128,-1,25
 649 784 649 784 754 703 c 1,26,27
 776 858 776 858 776 933 c 0,28,29
 776 1046 776 1046 745.5 1154 c 128,-1,30
 715 1262 715 1262 663 1334 c 0,31,32
 587 1440 587 1440 439 1440 c 0,33,34
 383 1440 383 1440 350 1430.5 c 128,-1,35
 317 1421 317 1421 225 1380 c 0,36,37
 219 1378 219 1378 209 1373 c 1,38,-1
 126 1479 l 1,0,1
740 623 m 1,39,40
 658 748 658 748 525 748 c 0,41,42
 398 748 398 748 311 615 c 0,43,44
 225 483 225 483 225 316 c 0,45,46
 225 278 225 278 229 241 c 0,47,48
 242 136 242 136 291 86 c 0,49,50
 342 35 342 35 407 35 c 0,51,52
 491 35 491 35 558 100 c 128,-1,53
 625 165 625 165 667 285 c 0,54,55
 704 396 704 396 740 623 c 1,39,40
EndSplineSet
EndChar

StartChar: product
Encoding: 8719 8719 214
Width: 2039
GlyphClass: 2
Flags: W
LayerCount: 2
Fore
SplineSet
500 -319 m 1,0,-1
 500 1300 l 1,1,-1
 287 1300 l 1,2,-1
 287 1475 l 1,3,-1
 1849 1475 l 1,4,-1
 1849 1300 l 1,5,-1
 1642 1300 l 1,6,-1
 1642 -319 l 1,7,-1
 1793 -319 l 1,8,-1
 1793 -494 l 1,9,-1
 1301 -494 l 1,10,-1
 1300 -319 l 1,11,-1
 1442 -319 l 1,12,-1
 1442 1300 l 1,13,-1
 700 1300 l 1,14,-1
 700 -319 l 1,15,-1
 854 -319 l 1,16,-1
 855 -494 l 1,17,-1
 343 -494 l 1,18,-1
 343 -319 l 1,19,-1
 500 -319 l 1,0,-1
EndSplineSet
EndChar

StartChar: summation
Encoding: 8721 8721 215
Width: 2039
GlyphClass: 2
Flags: W
LayerCount: 2
Fore
SplineSet
1472 1528 m 1,0,-1
 1472 1087 l 1,1,-1
 1327 1087 l 1,2,-1
 1318 1378 l 1,3,-1
 648 1378 l 1,4,-1
 1065 663 l 1,5,-1
 647 -127 l 1,6,-1
 1333 -127 l 1,7,-1
 1339 165 l 1,8,-1
 1487 165 l 1,9,-1
 1487 -275 l 1,10,-1
 465 -275 l 1,11,-1
 465 -128 l 1,12,-1
 885 661 l 1,13,-1
 465 1384 l 1,14,-1
 465 1528 l 1,15,-1
 1472 1528 l 1,0,-1
EndSplineSet
EndChar

StartChar: uni2219
Encoding: 8729 8729 216
Width: 569
GlyphClass: 2
Flags: W
LayerCount: 2
Fore
SplineSet
582 679 m 1,0,-1
 537 466 l 1,1,-1
 324 466 l 1,2,-1
 369 679 l 1,3,-1
 582 679 l 1,0,-1
EndSplineSet
EndChar

StartChar: radical
Encoding: 8730 8730 217
Width: 928
GlyphClass: 2
Flags: W
LayerCount: 2
Fore
SplineSet
1282 1870 m 1,0,-1
 1353 1860 l 1,1,-1
 631 -74 l 1,2,-1
 354 945 l 1,3,-1
 141 849 l 1,4,-1
 118 918 l 1,5,-1
 453 1067 l 1,6,-1
 677 257 l 1,7,-1
 1282 1870 l 1,0,-1
EndSplineSet
EndChar

StartChar: infinity
Encoding: 8734 8734 218
Width: 1460
GlyphClass: 2
Flags: W
LayerCount: 2
Fore
SplineSet
859 608 m 1,0,1
 986 703 986 703 1035 735 c 0,2,3
 1176 827 1176 827 1304 827 c 0,4,5
 1373 827 1373 827 1432 790 c 0,6,7
 1530 728 1530 728 1530 601 c 0,8,9
 1530 484 1530 484 1446 385 c 0,10,11
 1393 324 1393 324 1321 289 c 128,-1,12
 1249 254 1249 254 1175 254 c 0,13,14
 1116 254 1116 254 1064 276 c 0,15,16
 1009 300 1009 300 962 339.5 c 128,-1,17
 915 379 915 379 830 473 c 1,18,19
 674 351 674 351 576 302.5 c 128,-1,20
 478 254 478 254 389 254 c 0,21,22
 318 254 318 254 258 291 c 0,23,24
 160 352 160 352 160 480 c 0,25,26
 160 597 160 597 244 696 c 0,27,28
 296 757 296 757 368 792 c 128,-1,29
 440 827 440 827 512 827 c 0,30,31
 634 827 634 827 738 735 c 0,32,33
 783 695 783 695 859 608 c 1,0,1
918 541 m 1,34,35
 964 484 964 484 1023 436 c 0,36,37
 1080 390 1080 390 1115 374 c 128,-1,38
 1150 358 1150 358 1193 358 c 0,39,40
 1243 358 1243 358 1288 381 c 0,41,42
 1336 404 1336 404 1370 448 c 0,43,44
 1422 515 1422 515 1422 581 c 0,45,46
 1422 605 1422 605 1410 635 c 0,47,48
 1373 723 1373 723 1274 723 c 0,49,50
 1143 723 1143 723 918 541 c 1,34,35
772 541 m 1,51,52
 625 723 625 723 498 723 c 0,53,54
 416 723 416 723 348 665 c 0,55,56
 268 597 268 597 268 502 c 0,57,58
 268 475 268 475 279 448 c 0,59,60
 315 358 315 358 418 358 c 0,61,62
 463 358 463 358 507 375 c 128,-1,63
 551 392 551 392 623 436 c 0,64,65
 709 489 709 489 772 541 c 1,51,52
EndSplineSet
EndChar

StartChar: integral
Encoding: 8747 8747 219
Width: 561
GlyphClass: 2
Flags: W
LayerCount: 2
Fore
SplineSet
386 1071 m 2,0,-1
 386 603 l 2,1,2
 386 336 386 336 377 201 c 128,-1,3
 368 66 368 66 343 -32 c 0,4,5
 298 -215 298 -215 161 -215 c 0,6,7
 136 -215 136 -215 114 -208 c 0,8,9
 77 -196 77 -196 54 -167 c 128,-1,10
 31 -138 31 -138 31 -103 c 0,11,12
 31 -80 31 -80 41 -59 c 0,13,14
 68 -2 68 -2 130 -2 c 0,15,16
 154 -2 154 -2 175 -13 c 0,17,18
 188 -20 188 -20 200 -32 c 0,19,20
 226 -58 226 -58 240 -58 c 0,21,22
 277 -58 277 -58 277 -1 c 0,23,24
 277 34 277 34 265 156 c 0,25,26
 236 461 236 461 236 585 c 2,27,-1
 236 1053 l 2,28,29
 236 1323 236 1323 245 1456.5 c 128,-1,30
 254 1590 254 1590 278 1688 c 0,31,32
 324 1870 324 1870 461 1870 c 0,33,34
 514 1870 514 1870 551.5 1837.5 c 128,-1,35
 589 1805 589 1805 589 1759 c 0,36,37
 589 1716 589 1716 560.5 1686.5 c 128,-1,38
 532 1657 532 1657 491 1657 c 0,39,40
 466 1657 466 1657 445 1668 c 0,41,42
 432 1675 432 1675 420 1687 c 0,43,44
 395 1713 395 1713 379 1713 c 0,45,46
 343 1713 343 1713 343 1656 c 0,47,48
 343 1620 343 1620 355 1499 c 0,49,50
 386 1198 386 1198 386 1071 c 2,0,-1
EndSplineSet
EndChar

StartChar: approxequal
Encoding: 8776 8776 220
Width: 1124
GlyphClass: 2
Flags: W
LayerCount: 2
Fore
SplineSet
258 498 m 1,0,-1
 185 554 l 1,1,2
 233 625 233 625 287 680 c 0,3,4
 390 786 390 786 512 786 c 0,5,6
 544 786 544 786 574 779 c 0,7,8
 633 764 633 764 728 715 c 0,9,10
 810 673 810 673 843 661 c 128,-1,11
 876 649 876 649 913 649 c 0,12,13
 972 649 972 649 1019.5 680 c 128,-1,14
 1067 711 1067 711 1131 791 c 1,15,-1
 1207 739 l 1,16,17
 1046 510 1046 510 866 510 c 0,18,19
 823 510 823 510 774.5 528 c 128,-1,20
 726 546 726 546 602 609 c 0,21,22
 526 647 526 647 474 647 c 0,23,24
 441 647 441 647 410 634 c 0,25,26
 339 604 339 604 258 498 c 1,0,-1
197 154 m 1,27,-1
 124 209 l 1,28,29
 171 279 171 279 227 336 c 0,30,31
 329 442 329 442 452 442 c 0,32,33
 530 442 530 442 667 371 c 0,34,35
 748 329 748 329 782 317 c 128,-1,36
 816 305 816 305 852 305 c 0,37,38
 912 305 912 305 959.5 336 c 128,-1,39
 1007 367 1007 367 1070 447 c 1,40,-1
 1146 395 l 1,41,42
 1071 288 1071 288 1003 237 c 0,43,44
 908 166 908 166 805 166 c 0,45,46
 792 166 792 166 782 168 c 0,47,48
 738 174 738 174 697 190.5 c 128,-1,49
 656 207 656 207 541 265 c 0,50,51
 465 303 465 303 412 303 c 0,52,53
 380 303 380 303 349 290 c 0,54,55
 278 260 278 260 197 154 c 1,27,-1
EndSplineSet
EndChar

StartChar: notequal
Encoding: 8800 8800 221
Width: 1124
GlyphClass: 2
Flags: W
LayerCount: 2
Fore
SplineSet
367 227 m 1,0,-1
 116 227 l 1,1,-1
 147 374 l 1,2,-1
 477 374 l 1,3,-1
 638 580 l 1,4,-1
 191 580 l 1,5,-1
 221 727 l 1,6,-1
 748 727 l 1,7,-1
 944 983 l 1,8,-1
 1071 904 l 1,9,-1
 935 727 l 1,10,-1
 1212 727 l 1,11,-1
 1181 580 l 1,12,-1
 825 580 l 1,13,-1
 665 374 l 1,14,-1
 1137 374 l 1,15,-1
 1106 227 l 1,16,-1
 555 227 l 1,17,-1
 384 4 l 1,18,-1
 257 83 l 1,19,-1
 367 227 l 1,0,-1
EndSplineSet
EndChar

StartChar: lessequal
Encoding: 8804 8804 222
Width: 1124
GlyphClass: 2
Flags: W
LayerCount: 2
Fore
SplineSet
1089 147 m 1,0,-1
 1058 0 l 1,1,-1
 56 0 l 1,2,-1
 86 147 l 1,3,-1
 1089 147 l 1,0,-1
191 631 m 1,4,-1
 221 772 l 1,5,-1
 1313 1196 l 1,6,-1
 1279 1034 l 1,7,-1
 414 699 l 1,8,-1
 1137 364 l 1,9,-1
 1103 207 l 1,10,-1
 191 631 l 1,4,-1
EndSplineSet
EndChar

StartChar: greaterequal
Encoding: 8805 8805 223
Width: 1124
GlyphClass: 2
Flags: W
LayerCount: 2
Fore
SplineSet
109 147 m 1,0,-1
 1112 147 l 1,1,-1
 1081 0 l 1,2,-1
 79 0 l 1,3,-1
 109 147 l 1,0,-1
1246 771 m 1,4,-1
 1216 631 l 1,5,-1
 124 207 l 1,6,-1
 159 369 l 1,7,-1
 1023 704 l 1,8,-1
 300 1039 l 1,9,-1
 334 1196 l 1,10,-1
 1246 771 l 1,4,-1
EndSplineSet
EndChar

StartChar: uni25C6
Encoding: 9670 9670 224
Width: 2039
GlyphClass: 2
Flags: W
LayerCount: 2
Fore
SplineSet
494 678 m 1,0,-1
 1024 1277 l 1,1,-1
 1572 674 l 1,2,-1
 1037 80 l 1,3,-1
 494 678 l 1,0,-1
EndSplineSet
EndChar
